STARTFONT 2.1
COMMENT "Copyright by Hugo Chargois"
COMMENT "Licensed under the WTFPL"
FONT -Gohu-2xGohuFont-Medium-R-Normal--22-160-100-100-C-120-ISO10646-1

SIZE 22 100 100
FONTBOUNDINGBOX 12 22 0 -4
STARTPROPERTIES 30
FOUNDRY "Gohu"
FAMILY_NAME "GohuFont"
WEIGHT_NAME "Medium"
SLANT "R"
SETWIDTH_NAME "Normal"
ADD_STYLE_NAME ""
PIXEL_SIZE 11
POINT_SIZE 160
RESOLUTION_X 100
RESOLUTION_Y 100
SPACING "C"
AVERAGE_WIDTH 60
CHARSET_REGISTRY "ISO10646"
CHARSET_ENCODING "1"
FONTNAME_REGISTRY ""
FONT_NAME "GohuFont"
FACE_NAME "GohuFont"
FONT_VERSION "003.000"
FONT_ASCENT 18
FONT_DESCENT 4
UNDERLINE_POSITION -1
UNDERLINE_THICKNESS 1
X_HEIGHT 8
CAP_HEIGHT 14
RAW_ASCENT 818
RAW_DESCENT 182
NORM_SPACE 6
FIGURE_WIDTH 6
AVG_LOWERCASE_WIDTH 60
AVG_UPPERCASE_WIDTH "60"
ENDPROPERTIES
CHARS 1597
STARTCHAR <control>
ENCODING 0
SWIDTH 784 0
DWIDTH 12 0
BBX 10 16 0 0
BITMAP
CCC0
CCC0
0000
0000
C0C0
C0C0
0000
0000
0000
0000
C0C0
C0C0
0000
0000
CCC0
CCC0
ENDCHAR
STARTCHAR SPACE
ENCODING 32
SWIDTH 784 0
DWIDTH 12 0
BBX 0 0 0 0
BITMAP
ENDCHAR
STARTCHAR EXCLAMATION MARK
ENCODING 33
SWIDTH 784 0
DWIDTH 12 0
BBX 2 16 4 0
BITMAP
C000
C000
C000
C000
C000
C000
C000
C000
C000
C000
C000
C000
0000
0000
C000
C000
ENDCHAR
STARTCHAR QUOTATION MARK
ENCODING 34
SWIDTH 784 0
DWIDTH 12 0
BBX 6 6 2 10
BITMAP
CC00
CC00
CC00
CC00
CC00
CC00
ENDCHAR
STARTCHAR NUMBER SIGN
ENCODING 35
SWIDTH 784 0
DWIDTH 12 0
BBX 10 14 0 2
BITMAP
3300
3300
3300
3300
FFC0
FFC0
3300
3300
FFC0
FFC0
3300
3300
3300
3300
ENDCHAR
STARTCHAR DOLLAR SIGN
ENCODING 36
SWIDTH 784 0
DWIDTH 12 0
BBX 10 18 0 -2
BITMAP
0C00
0C00
3F00
3F00
CCC0
CCC0
CC00
CC00
3F00
3F00
0CC0
0CC0
CCC0
CCC0
3F00
3F00
0C00
0C00
ENDCHAR
STARTCHAR PERCENT SIGN
ENCODING 37
SWIDTH 784 0
DWIDTH 12 0
BBX 10 14 0 0
BITMAP
30C0
30C0
CCC0
CCC0
3300
3300
0C00
0C00
3300
3300
CCC0
CCC0
C300
C300
ENDCHAR
STARTCHAR AMPERSAND
ENCODING 38
SWIDTH 784 0
DWIDTH 12 0
BBX 10 14 0 0
BITMAP
3C00
3C00
C300
C300
CC00
CC00
3000
3000
CCC0
CCC0
C300
C300
3CC0
3CC0
ENDCHAR
STARTCHAR APOSTROPHE
ENCODING 39
SWIDTH 784 0
DWIDTH 12 0
BBX 2 6 4 10
BITMAP
C000
C000
C000
C000
C000
C000
ENDCHAR
STARTCHAR LEFT PARENTHESIS
ENCODING 40
SWIDTH 784 0
DWIDTH 12 0
BBX 6 18 2 -2
BITMAP
0C00
0C00
3000
3000
3000
3000
C000
C000
C000
C000
C000
C000
3000
3000
3000
3000
0C00
0C00
ENDCHAR
STARTCHAR RIGHT PARENTHESIS
ENCODING 41
SWIDTH 784 0
DWIDTH 12 0
BBX 6 18 2 -2
BITMAP
C000
C000
3000
3000
3000
3000
0C00
0C00
0C00
0C00
0C00
0C00
3000
3000
3000
3000
C000
C000
ENDCHAR
STARTCHAR ASTERISK
ENCODING 42
SWIDTH 784 0
DWIDTH 12 0
BBX 10 10 0 2
BITMAP
0C00
0C00
CCC0
CCC0
3F00
3F00
CCC0
CCC0
0C00
0C00
ENDCHAR
STARTCHAR PLUS SIGN
ENCODING 43
SWIDTH 784 0
DWIDTH 12 0
BBX 10 10 0 2
BITMAP
0C00
0C00
0C00
0C00
FFC0
FFC0
0C00
0C00
0C00
0C00
ENDCHAR
STARTCHAR COMMA
ENCODING 44
SWIDTH 784 0
DWIDTH 12 0
BBX 4 8 2 -4
BITMAP
F000
F000
F000
F000
3000
3000
C000
C000
ENDCHAR
STARTCHAR HYPHEN-MINUS
ENCODING 45
SWIDTH 784 0
DWIDTH 12 0
BBX 10 2 0 6
BITMAP
FFC0
FFC0
ENDCHAR
STARTCHAR FULL STOP
ENCODING 46
SWIDTH 784 0
DWIDTH 12 0
BBX 4 4 2 0
BITMAP
F000
F000
F000
F000
ENDCHAR
STARTCHAR SOLIDUS
ENCODING 47
SWIDTH 784 0
DWIDTH 12 0
BBX 10 20 0 -4
BITMAP
00C0
00C0
00C0
00C0
0300
0300
0300
0300
0C00
0C00
0C00
0C00
3000
3000
3000
3000
C000
C000
C000
C000
ENDCHAR
STARTCHAR DIGIT ZERO
ENCODING 48
SWIDTH 784 0
DWIDTH 12 0
BBX 10 14 0 0
BITMAP
3F00
3F00
C0C0
C0C0
C3C0
C3C0
CCC0
CCC0
F0C0
F0C0
C0C0
C0C0
3F00
3F00
ENDCHAR
STARTCHAR DIGIT ONE
ENCODING 49
SWIDTH 784 0
DWIDTH 12 0
BBX 6 14 0 0
BITMAP
0C00
0C00
3C00
3C00
CC00
CC00
0C00
0C00
0C00
0C00
0C00
0C00
0C00
0C00
ENDCHAR
STARTCHAR DIGIT TWO
ENCODING 50
SWIDTH 784 0
DWIDTH 12 0
BBX 10 14 0 0
BITMAP
3F00
3F00
C0C0
C0C0
00C0
00C0
0300
0300
0C00
0C00
3000
3000
FFC0
FFC0
ENDCHAR
STARTCHAR DIGIT THREE
ENCODING 51
SWIDTH 784 0
DWIDTH 12 0
BBX 10 14 0 0
BITMAP
3F00
3F00
C0C0
C0C0
00C0
00C0
0F00
0F00
00C0
00C0
C0C0
C0C0
3F00
3F00
ENDCHAR
STARTCHAR DIGIT FOUR
ENCODING 52
SWIDTH 784 0
DWIDTH 12 0
BBX 10 14 0 0
BITMAP
0300
0300
0F00
0F00
3300
3300
C300
C300
FFC0
FFC0
0300
0300
0300
0300
ENDCHAR
STARTCHAR DIGIT FIVE
ENCODING 53
SWIDTH 784 0
DWIDTH 12 0
BBX 10 14 0 0
BITMAP
FFC0
FFC0
C000
C000
FF00
FF00
00C0
00C0
00C0
00C0
C0C0
C0C0
3F00
3F00
ENDCHAR
STARTCHAR DIGIT SIX
ENCODING 54
SWIDTH 784 0
DWIDTH 12 0
BBX 10 14 0 0
BITMAP
3F00
3F00
C000
C000
FF00
FF00
C0C0
C0C0
C0C0
C0C0
C0C0
C0C0
3F00
3F00
ENDCHAR
STARTCHAR DIGIT SEVEN
ENCODING 55
SWIDTH 784 0
DWIDTH 12 0
BBX 10 14 0 0
BITMAP
FFC0
FFC0
00C0
00C0
0300
0300
0300
0300
0C00
0C00
0C00
0C00
0C00
0C00
ENDCHAR
STARTCHAR DIGIT EIGHT
ENCODING 56
SWIDTH 784 0
DWIDTH 12 0
BBX 10 14 0 0
BITMAP
3F00
3F00
C0C0
C0C0
C0C0
C0C0
3F00
3F00
C0C0
C0C0
C0C0
C0C0
3F00
3F00
ENDCHAR
STARTCHAR DIGIT NINE
ENCODING 57
SWIDTH 784 0
DWIDTH 12 0
BBX 10 14 0 0
BITMAP
3F00
3F00
C0C0
C0C0
C0C0
C0C0
3FC0
3FC0
00C0
00C0
00C0
00C0
3F00
3F00
ENDCHAR
STARTCHAR COLON
ENCODING 58
SWIDTH 784 0
DWIDTH 12 0
BBX 4 10 4 0
BITMAP
F000
F000
F000
F000
0000
0000
F000
F000
F000
F000
ENDCHAR
STARTCHAR SEMICOLON
ENCODING 59
SWIDTH 784 0
DWIDTH 12 0
BBX 4 14 2 -4
BITMAP
F000
F000
F000
F000
0000
0000
F000
F000
F000
F000
3000
3000
C000
C000
ENDCHAR
STARTCHAR LESS-THAN SIGN
ENCODING 60
SWIDTH 784 0
DWIDTH 12 0
BBX 8 14 2 0
BITMAP
0300
0300
0C00
0C00
3000
3000
C000
C000
3000
3000
0C00
0C00
0300
0300
ENDCHAR
STARTCHAR EQUALS SIGN
ENCODING 61
SWIDTH 784 0
DWIDTH 12 0
BBX 10 6 0 4
BITMAP
FFC0
FFC0
0000
0000
FFC0
FFC0
ENDCHAR
STARTCHAR GREATER-THAN SIGN
ENCODING 62
SWIDTH 784 0
DWIDTH 12 0
BBX 8 14 2 0
BITMAP
C000
C000
3000
3000
0C00
0C00
0300
0300
0C00
0C00
3000
3000
C000
C000
ENDCHAR
STARTCHAR QUESTION MARK
ENCODING 63
SWIDTH 784 0
DWIDTH 12 0
BBX 10 14 0 0
BITMAP
3F00
3F00
C0C0
C0C0
00C0
00C0
0300
0300
0C00
0C00
0000
0000
0C00
0C00
ENDCHAR
STARTCHAR COMMERCIAL AT
ENCODING 64
SWIDTH 784 0
DWIDTH 12 0
BBX 10 14 0 0
BITMAP
3F00
3F00
C0C0
C0C0
CFC0
CFC0
CCC0
CCC0
CFC0
CFC0
C000
C000
3FC0
3FC0
ENDCHAR
STARTCHAR LATIN CAPITAL LETTER A
ENCODING 65
SWIDTH 784 0
DWIDTH 12 0
BBX 10 16 0 0
BITMAP
3F00
3F00
C0C0
C0C0
C0C0
C0C0
FFC0
FFC0
C0C0
C0C0
C0C0
C0C0
C0C0
C0C0
C0C0
C0C0
ENDCHAR
STARTCHAR LATIN CAPITAL LETTER B
ENCODING 66
SWIDTH 784 0
DWIDTH 12 0
BBX 10 16 0 0
BITMAP
FF00
FF00
C0C0
C0C0
C0C0
C0C0
FF00
FF00
C0C0
C0C0
C0C0
C0C0
C0C0
C0C0
FF00
FF00
ENDCHAR
STARTCHAR LATIN CAPITAL LETTER C
ENCODING 67
SWIDTH 784 0
DWIDTH 12 0
BBX 10 16 0 0
BITMAP
3F00
3F00
C0C0
C0C0
C000
C000
C000
C000
C000
C000
C000
C000
C0C0
C0C0
3F00
3F00
ENDCHAR
STARTCHAR LATIN CAPITAL LETTER D
ENCODING 68
SWIDTH 784 0
DWIDTH 12 0
BBX 10 16 0 0
BITMAP
FF00
FF00
C0C0
C0C0
C0C0
C0C0
C0C0
C0C0
C0C0
C0C0
C0C0
C0C0
C0C0
C0C0
FF00
FF00
ENDCHAR
STARTCHAR LATIN CAPITAL LETTER E
ENCODING 69
SWIDTH 784 0
DWIDTH 12 0
BBX 10 16 0 0
BITMAP
FFC0
FFC0
C000
C000
C000
C000
FF00
FF00
C000
C000
C000
C000
C000
C000
FFC0
FFC0
ENDCHAR
STARTCHAR LATIN CAPITAL LETTER F
ENCODING 70
SWIDTH 784 0
DWIDTH 12 0
BBX 10 16 0 0
BITMAP
FFC0
FFC0
C000
C000
C000
C000
FF00
FF00
C000
C000
C000
C000
C000
C000
C000
C000
ENDCHAR
STARTCHAR LATIN CAPITAL LETTER G
ENCODING 71
SWIDTH 784 0
DWIDTH 12 0
BBX 10 16 0 0
BITMAP
3F00
3F00
C0C0
C0C0
C000
C000
CFC0
CFC0
C0C0
C0C0
C0C0
C0C0
C0C0
C0C0
3F00
3F00
ENDCHAR
STARTCHAR LATIN CAPITAL LETTER H
ENCODING 72
SWIDTH 784 0
DWIDTH 12 0
BBX 10 16 0 0
BITMAP
C0C0
C0C0
C0C0
C0C0
C0C0
C0C0
FFC0
FFC0
C0C0
C0C0
C0C0
C0C0
C0C0
C0C0
C0C0
C0C0
ENDCHAR
STARTCHAR LATIN CAPITAL LETTER I
ENCODING 73
SWIDTH 784 0
DWIDTH 12 0
BBX 6 16 2 0
BITMAP
FC00
FC00
3000
3000
3000
3000
3000
3000
3000
3000
3000
3000
3000
3000
FC00
FC00
ENDCHAR
STARTCHAR LATIN CAPITAL LETTER J
ENCODING 74
SWIDTH 784 0
DWIDTH 12 0
BBX 10 16 0 0
BITMAP
00C0
00C0
00C0
00C0
00C0
00C0
00C0
00C0
00C0
00C0
C0C0
C0C0
C0C0
C0C0
3F00
3F00
ENDCHAR
STARTCHAR LATIN CAPITAL LETTER K
ENCODING 75
SWIDTH 784 0
DWIDTH 12 0
BBX 10 16 0 0
BITMAP
C0C0
C0C0
C300
C300
CC00
CC00
F000
F000
CC00
CC00
C300
C300
C0C0
C0C0
C0C0
C0C0
ENDCHAR
STARTCHAR LATIN CAPITAL LETTER L
ENCODING 76
SWIDTH 784 0
DWIDTH 12 0
BBX 10 16 0 0
BITMAP
C000
C000
C000
C000
C000
C000
C000
C000
C000
C000
C000
C000
C000
C000
FFC0
FFC0
ENDCHAR
STARTCHAR LATIN CAPITAL LETTER M
ENCODING 77
SWIDTH 784 0
DWIDTH 12 0
BBX 10 16 0 0
BITMAP
C0C0
C0C0
F3C0
F3C0
CCC0
CCC0
CCC0
CCC0
C0C0
C0C0
C0C0
C0C0
C0C0
C0C0
C0C0
C0C0
ENDCHAR
STARTCHAR LATIN CAPITAL LETTER N
ENCODING 78
SWIDTH 784 0
DWIDTH 12 0
BBX 10 16 0 0
BITMAP
C0C0
C0C0
F0C0
F0C0
F0C0
F0C0
CCC0
CCC0
CCC0
CCC0
C3C0
C3C0
C3C0
C3C0
C0C0
C0C0
ENDCHAR
STARTCHAR LATIN CAPITAL LETTER O
ENCODING 79
SWIDTH 784 0
DWIDTH 12 0
BBX 10 16 0 0
BITMAP
3F00
3F00
C0C0
C0C0
C0C0
C0C0
C0C0
C0C0
C0C0
C0C0
C0C0
C0C0
C0C0
C0C0
3F00
3F00
ENDCHAR
STARTCHAR LATIN CAPITAL LETTER P
ENCODING 80
SWIDTH 784 0
DWIDTH 12 0
BBX 10 16 0 0
BITMAP
FF00
FF00
C0C0
C0C0
C0C0
C0C0
FF00
FF00
C000
C000
C000
C000
C000
C000
C000
C000
ENDCHAR
STARTCHAR LATIN CAPITAL LETTER Q
ENCODING 81
SWIDTH 784 0
DWIDTH 12 0
BBX 10 18 0 -2
BITMAP
3F00
3F00
C0C0
C0C0
C0C0
C0C0
C0C0
C0C0
C0C0
C0C0
CCC0
CCC0
C300
C300
3CC0
3CC0
00C0
00C0
ENDCHAR
STARTCHAR LATIN CAPITAL LETTER R
ENCODING 82
SWIDTH 784 0
DWIDTH 12 0
BBX 10 16 0 0
BITMAP
FF00
FF00
C0C0
C0C0
C0C0
C0C0
FF00
FF00
C300
C300
C0C0
C0C0
C0C0
C0C0
C0C0
C0C0
ENDCHAR
STARTCHAR LATIN CAPITAL LETTER S
ENCODING 83
SWIDTH 784 0
DWIDTH 12 0
BBX 10 16 0 0
BITMAP
3F00
3F00
C0C0
C0C0
C000
C000
3F00
3F00
00C0
00C0
00C0
00C0
C0C0
C0C0
3F00
3F00
ENDCHAR
STARTCHAR LATIN CAPITAL LETTER T
ENCODING 84
SWIDTH 784 0
DWIDTH 12 0
BBX 10 16 0 0
BITMAP
FFC0
FFC0
0C00
0C00
0C00
0C00
0C00
0C00
0C00
0C00
0C00
0C00
0C00
0C00
0C00
0C00
ENDCHAR
STARTCHAR LATIN CAPITAL LETTER U
ENCODING 85
SWIDTH 784 0
DWIDTH 12 0
BBX 10 16 0 0
BITMAP
C0C0
C0C0
C0C0
C0C0
C0C0
C0C0
C0C0
C0C0
C0C0
C0C0
C0C0
C0C0
C0C0
C0C0
3F00
3F00
ENDCHAR
STARTCHAR LATIN CAPITAL LETTER V
ENCODING 86
SWIDTH 784 0
DWIDTH 12 0
BBX 10 16 0 0
BITMAP
C0C0
C0C0
C0C0
C0C0
C0C0
C0C0
C0C0
C0C0
3300
3300
3300
3300
0C00
0C00
0C00
0C00
ENDCHAR
STARTCHAR LATIN CAPITAL LETTER W
ENCODING 87
SWIDTH 784 0
DWIDTH 12 0
BBX 10 16 0 0
BITMAP
C0C0
C0C0
C0C0
C0C0
C0C0
C0C0
CCC0
CCC0
CCC0
CCC0
CCC0
CCC0
3300
3300
3300
3300
ENDCHAR
STARTCHAR LATIN CAPITAL LETTER X
ENCODING 88
SWIDTH 784 0
DWIDTH 12 0
BBX 10 16 0 0
BITMAP
C0C0
C0C0
C0C0
C0C0
3300
3300
0C00
0C00
3300
3300
C0C0
C0C0
C0C0
C0C0
C0C0
C0C0
ENDCHAR
STARTCHAR LATIN CAPITAL LETTER Y
ENCODING 89
SWIDTH 784 0
DWIDTH 12 0
BBX 10 16 0 0
BITMAP
C0C0
C0C0
C0C0
C0C0
3300
3300
0C00
0C00
0C00
0C00
0C00
0C00
0C00
0C00
0C00
0C00
ENDCHAR
STARTCHAR LATIN CAPITAL LETTER Z
ENCODING 90
SWIDTH 784 0
DWIDTH 12 0
BBX 10 16 0 0
BITMAP
FFC0
FFC0
00C0
00C0
0300
0300
0C00
0C00
3000
3000
C000
C000
C000
C000
FFC0
FFC0
ENDCHAR
STARTCHAR LEFT SQUARE BRACKET
ENCODING 91
SWIDTH 784 0
DWIDTH 12 0
BBX 6 18 4 -2
BITMAP
FC00
FC00
C000
C000
C000
C000
C000
C000
C000
C000
C000
C000
C000
C000
C000
C000
FC00
FC00
ENDCHAR
STARTCHAR REVERSE SOLIDUS
ENCODING 92
SWIDTH 784 0
DWIDTH 12 0
BBX 10 20 2 -4
BITMAP
C000
C000
C000
C000
3000
3000
3000
3000
0C00
0C00
0C00
0C00
0300
0300
0300
0300
00C0
00C0
00C0
00C0
ENDCHAR
STARTCHAR RIGHT SQUARE BRACKET
ENCODING 93
SWIDTH 784 0
DWIDTH 12 0
BBX 6 18 0 -2
BITMAP
FC00
FC00
0C00
0C00
0C00
0C00
0C00
0C00
0C00
0C00
0C00
0C00
0C00
0C00
0C00
0C00
FC00
FC00
ENDCHAR
STARTCHAR CIRCUMFLEX ACCENT
ENCODING 94
SWIDTH 784 0
DWIDTH 12 0
BBX 10 6 0 8
BITMAP
0C00
0C00
3300
3300
C0C0
C0C0
ENDCHAR
STARTCHAR LOW LINE
ENCODING 95
SWIDTH 784 0
DWIDTH 12 0
BBX 12 2 0 -2
BITMAP
FFF0
FFF0
ENDCHAR
STARTCHAR GRAVE ACCENT
ENCODING 96
SWIDTH 784 0
DWIDTH 12 0
BBX 6 6 2 10
BITMAP
C000
C000
3000
3000
0C00
0C00
ENDCHAR
STARTCHAR LATIN SMALL LETTER A
ENCODING 97
SWIDTH 784 0
DWIDTH 12 0
BBX 10 10 0 0
BITMAP
3F00
3F00
00C0
00C0
3FC0
3FC0
C0C0
C0C0
3FC0
3FC0
ENDCHAR
STARTCHAR LATIN SMALL LETTER B
ENCODING 98
SWIDTH 784 0
DWIDTH 12 0
BBX 10 16 0 0
BITMAP
C000
C000
C000
C000
C000
C000
CF00
CF00
F0C0
F0C0
C0C0
C0C0
C0C0
C0C0
FF00
FF00
ENDCHAR
STARTCHAR LATIN SMALL LETTER C
ENCODING 99
SWIDTH 784 0
DWIDTH 12 0
BBX 10 10 0 0
BITMAP
3FC0
3FC0
C000
C000
C000
C000
C000
C000
3FC0
3FC0
ENDCHAR
STARTCHAR LATIN SMALL LETTER D
ENCODING 100
SWIDTH 784 0
DWIDTH 12 0
BBX 10 16 0 0
BITMAP
00C0
00C0
00C0
00C0
00C0
00C0
3FC0
3FC0
C0C0
C0C0
C0C0
C0C0
C3C0
C3C0
3CC0
3CC0
ENDCHAR
STARTCHAR LATIN SMALL LETTER E
ENCODING 101
SWIDTH 784 0
DWIDTH 12 0
BBX 10 10 0 0
BITMAP
3F00
3F00
C0C0
C0C0
FFC0
FFC0
C000
C000
3FC0
3FC0
ENDCHAR
STARTCHAR LATIN SMALL LETTER F
ENCODING 102
SWIDTH 784 0
DWIDTH 12 0
BBX 6 16 2 0
BITMAP
3C00
3C00
C000
C000
C000
C000
FC00
FC00
C000
C000
C000
C000
C000
C000
C000
C000
ENDCHAR
STARTCHAR LATIN SMALL LETTER G
ENCODING 103
SWIDTH 784 0
DWIDTH 12 0
BBX 10 14 0 -4
BITMAP
3FC0
3FC0
C0C0
C0C0
C0C0
C0C0
C3C0
C3C0
3CC0
3CC0
00C0
00C0
3F00
3F00
ENDCHAR
STARTCHAR LATIN SMALL LETTER H
ENCODING 104
SWIDTH 784 0
DWIDTH 12 0
BBX 10 16 0 0
BITMAP
C000
C000
C000
C000
C000
C000
CF00
CF00
F0C0
F0C0
C0C0
C0C0
C0C0
C0C0
C0C0
C0C0
ENDCHAR
STARTCHAR LATIN SMALL LETTER I
ENCODING 105
SWIDTH 784 0
DWIDTH 12 0
BBX 6 14 2 0
BITMAP
3000
3000
0000
0000
F000
F000
3000
3000
3000
3000
3000
3000
3C00
3C00
ENDCHAR
STARTCHAR LATIN SMALL LETTER J
ENCODING 106
SWIDTH 784 0
DWIDTH 12 0
BBX 6 18 0 -4
BITMAP
0C00
0C00
0000
0000
3C00
3C00
0C00
0C00
0C00
0C00
0C00
0C00
0C00
0C00
0C00
0C00
F000
F000
ENDCHAR
STARTCHAR LATIN SMALL LETTER K
ENCODING 107
SWIDTH 784 0
DWIDTH 12 0
BBX 10 16 0 0
BITMAP
C000
C000
C000
C000
C000
C000
C300
C300
CC00
CC00
FC00
FC00
C300
C300
C0C0
C0C0
ENDCHAR
STARTCHAR LATIN SMALL LETTER L
ENCODING 108
SWIDTH 784 0
DWIDTH 12 0
BBX 8 16 2 0
BITMAP
F000
F000
3000
3000
3000
3000
3000
3000
3000
3000
3000
3000
3000
3000
0F00
0F00
ENDCHAR
STARTCHAR LATIN SMALL LETTER M
ENCODING 109
SWIDTH 784 0
DWIDTH 12 0
BBX 10 10 0 0
BITMAP
FF00
FF00
CCC0
CCC0
CCC0
CCC0
CCC0
CCC0
CCC0
CCC0
ENDCHAR
STARTCHAR LATIN SMALL LETTER N
ENCODING 110
SWIDTH 784 0
DWIDTH 12 0
BBX 10 10 0 0
BITMAP
FF00
FF00
C0C0
C0C0
C0C0
C0C0
C0C0
C0C0
C0C0
C0C0
ENDCHAR
STARTCHAR LATIN SMALL LETTER O
ENCODING 111
SWIDTH 784 0
DWIDTH 12 0
BBX 10 10 0 0
BITMAP
3F00
3F00
C0C0
C0C0
C0C0
C0C0
C0C0
C0C0
3F00
3F00
ENDCHAR
STARTCHAR LATIN SMALL LETTER P
ENCODING 112
SWIDTH 784 0
DWIDTH 12 0
BBX 10 14 0 -4
BITMAP
CF00
CF00
F0C0
F0C0
C0C0
C0C0
C0C0
C0C0
FF00
FF00
C000
C000
C000
C000
ENDCHAR
STARTCHAR LATIN SMALL LETTER Q
ENCODING 113
SWIDTH 784 0
DWIDTH 12 0
BBX 10 14 0 -4
BITMAP
3FC0
3FC0
C0C0
C0C0
C0C0
C0C0
C3C0
C3C0
3CC0
3CC0
00C0
00C0
00C0
00C0
ENDCHAR
STARTCHAR LATIN SMALL LETTER R
ENCODING 114
SWIDTH 784 0
DWIDTH 12 0
BBX 10 10 0 0
BITMAP
CF00
CF00
F0C0
F0C0
C000
C000
C000
C000
C000
C000
ENDCHAR
STARTCHAR LATIN SMALL LETTER S
ENCODING 115
SWIDTH 784 0
DWIDTH 12 0
BBX 10 10 0 0
BITMAP
3F00
3F00
C000
C000
3F00
3F00
00C0
00C0
FF00
FF00
ENDCHAR
STARTCHAR LATIN SMALL LETTER T
ENCODING 116
SWIDTH 784 0
DWIDTH 12 0
BBX 8 16 0 0
BITMAP
3000
3000
3000
3000
3000
3000
FF00
FF00
3000
3000
3000
3000
3000
3000
0F00
0F00
ENDCHAR
STARTCHAR LATIN SMALL LETTER U
ENCODING 117
SWIDTH 784 0
DWIDTH 12 0
BBX 10 10 0 0
BITMAP
C0C0
C0C0
C0C0
C0C0
C0C0
C0C0
C3C0
C3C0
3CC0
3CC0
ENDCHAR
STARTCHAR LATIN SMALL LETTER V
ENCODING 118
SWIDTH 784 0
DWIDTH 12 0
BBX 10 10 0 0
BITMAP
C0C0
C0C0
C0C0
C0C0
3300
3300
3300
3300
0C00
0C00
ENDCHAR
STARTCHAR LATIN SMALL LETTER W
ENCODING 119
SWIDTH 784 0
DWIDTH 12 0
BBX 10 10 0 0
BITMAP
C0C0
C0C0
CCC0
CCC0
CCC0
CCC0
CCC0
CCC0
3300
3300
ENDCHAR
STARTCHAR LATIN SMALL LETTER X
ENCODING 120
SWIDTH 784 0
DWIDTH 12 0
BBX 10 10 0 0
BITMAP
C0C0
C0C0
3300
3300
0C00
0C00
3300
3300
C0C0
C0C0
ENDCHAR
STARTCHAR LATIN SMALL LETTER Y
ENCODING 121
SWIDTH 784 0
DWIDTH 12 0
BBX 10 14 0 -4
BITMAP
C0C0
C0C0
C0C0
C0C0
C0C0
C0C0
C3C0
C3C0
3CC0
3CC0
00C0
00C0
3F00
3F00
ENDCHAR
STARTCHAR LATIN SMALL LETTER Z
ENCODING 122
SWIDTH 784 0
DWIDTH 12 0
BBX 10 10 0 0
BITMAP
FFC0
FFC0
0300
0300
0C00
0C00
3000
3000
FFC0
FFC0
ENDCHAR
STARTCHAR LEFT CURLY BRACKET
ENCODING 123
SWIDTH 784 0
DWIDTH 12 0
BBX 12 22 0 -4
BITMAP
03C0
03C0
0C00
0C00
0C00
0C00
0C00
0C00
0C00
0C00
F000
F000
0C00
0C00
0C00
0C00
0C00
0C00
0C00
0C00
03C0
03C0
ENDCHAR
STARTCHAR VERTICAL LINE
ENCODING 124
SWIDTH 784 0
DWIDTH 12 0
BBX 2 18 4 -2
BITMAP
C000
C000
C000
C000
C000
C000
C000
C000
C000
C000
C000
C000
C000
C000
C000
C000
C000
C000
ENDCHAR
STARTCHAR RIGHT CURLY BRACKET
ENCODING 125
SWIDTH 784 0
DWIDTH 12 0
BBX 12 22 0 -4
BITMAP
F000
F000
0C00
0C00
0C00
0C00
0C00
0C00
0C00
0C00
03C0
03C0
0C00
0C00
0C00
0C00
0C00
0C00
0C00
0C00
F000
F000
ENDCHAR
STARTCHAR TILDE
ENCODING 126
SWIDTH 784 0
DWIDTH 12 0
BBX 10 6 0 4
BITMAP
3000
3000
CCC0
CCC0
0300
0300
ENDCHAR
STARTCHAR NO-BREAK SPACE
ENCODING 160
SWIDTH 784 0
DWIDTH 12 0
BBX 0 0 0 0
BITMAP
ENDCHAR
STARTCHAR INVERTED EXCLAMATION MARK
ENCODING 161
SWIDTH 784 0
DWIDTH 12 0
BBX 2 16 4 0
BITMAP
C000
C000
0000
0000
C000
C000
C000
C000
C000
C000
C000
C000
C000
C000
C000
C000
ENDCHAR
STARTCHAR CENT SIGN
ENCODING 162
SWIDTH 784 0
DWIDTH 12 0
BBX 10 14 0 -2
BITMAP
0C00
0C00
3FC0
3FC0
CC00
CC00
CC00
CC00
CC00
CC00
3FC0
3FC0
0C00
0C00
ENDCHAR
STARTCHAR POUND SIGN
ENCODING 163
SWIDTH 784 0
DWIDTH 12 0
BBX 10 16 0 0
BITMAP
0F00
0F00
30C0
30C0
3000
3000
3000
3000
FC00
FC00
3000
3000
30C0
30C0
CF00
CF00
ENDCHAR
STARTCHAR CURRENCY SIGN
ENCODING 164
SWIDTH 784 0
DWIDTH 12 0
BBX 10 10 0 0
BITMAP
C0C0
C0C0
3F00
3F00
3300
3300
3F00
3F00
C0C0
C0C0
ENDCHAR
STARTCHAR YEN SIGN
ENCODING 165
SWIDTH 784 0
DWIDTH 12 0
BBX 10 18 0 -2
BITMAP
C0C0
C0C0
C0C0
C0C0
3300
3300
0C00
0C00
FFC0
FFC0
0C00
0C00
FFC0
FFC0
0C00
0C00
0C00
0C00
ENDCHAR
STARTCHAR BROKEN BAR
ENCODING 166
SWIDTH 784 0
DWIDTH 12 0
BBX 2 18 4 -2
BITMAP
C000
C000
C000
C000
C000
C000
C000
C000
0000
0000
C000
C000
C000
C000
C000
C000
C000
C000
ENDCHAR
STARTCHAR SECTION SIGN
ENCODING 167
SWIDTH 784 0
DWIDTH 12 0
BBX 8 18 2 -2
BITMAP
3F00
3F00
C000
C000
C000
C000
FC00
FC00
C300
C300
3F00
3F00
0300
0300
0300
0300
FC00
FC00
ENDCHAR
STARTCHAR DIAERESIS
ENCODING 168
SWIDTH 784 0
DWIDTH 12 0
BBX 6 2 2 14
BITMAP
CC00
CC00
ENDCHAR
STARTCHAR COPYRIGHT SIGN
ENCODING 169
SWIDTH 784 0
DWIDTH 12 0
BBX 10 14 0 0
BITMAP
3F00
3F00
C0C0
C0C0
CCC0
CCC0
F0C0
F0C0
CCC0
CCC0
C0C0
C0C0
3F00
3F00
ENDCHAR
STARTCHAR FEMININE ORDINAL INDICATOR
ENCODING 170
SWIDTH 784 0
DWIDTH 12 0
BBX 8 12 2 2
BITMAP
3F00
3F00
C300
C300
CF00
CF00
3300
3300
0000
0000
FF00
FF00
ENDCHAR
STARTCHAR LEFT-POINTING DOUBLE ANGLE QUOTATION MARK
ENCODING 171
SWIDTH 784 0
DWIDTH 12 0
BBX 12 10 0 2
BITMAP
0C30
0C30
30C0
30C0
C300
C300
30C0
30C0
0C30
0C30
ENDCHAR
STARTCHAR NOT SIGN
ENCODING 172
SWIDTH 784 0
DWIDTH 12 0
BBX 8 4 2 4
BITMAP
FF00
FF00
0300
0300
ENDCHAR
STARTCHAR SOFT HYPHEN
ENCODING 173
SWIDTH 784 0
DWIDTH 12 0
BBX 8 2 2 6
BITMAP
FF00
FF00
ENDCHAR
STARTCHAR REGISTERED SIGN
ENCODING 174
SWIDTH 784 0
DWIDTH 12 0
BBX 10 14 0 0
BITMAP
3F00
3F00
C0C0
C0C0
FCC0
FCC0
F0C0
F0C0
F0C0
F0C0
C0C0
C0C0
3F00
3F00
ENDCHAR
STARTCHAR MACRON
ENCODING 175
SWIDTH 784 0
DWIDTH 12 0
BBX 10 2 0 14
BITMAP
FFC0
FFC0
ENDCHAR
STARTCHAR DEGREE SIGN
ENCODING 176
SWIDTH 784 0
DWIDTH 12 0
BBX 6 6 2 8
BITMAP
3000
3000
CC00
CC00
3000
3000
ENDCHAR
STARTCHAR PLUS-MINUS SIGN
ENCODING 177
SWIDTH 784 0
DWIDTH 12 0
BBX 10 12 0 0
BITMAP
0C00
0C00
0C00
0C00
FFC0
FFC0
0C00
0C00
0C00
0C00
FFC0
FFC0
ENDCHAR
STARTCHAR SUPERSCRIPT TWO
ENCODING 178
SWIDTH 784 0
DWIDTH 12 0
BBX 8 10 2 6
BITMAP
3C00
3C00
C300
C300
0C00
0C00
3000
3000
FF00
FF00
ENDCHAR
STARTCHAR SUPERSCRIPT THREE
ENCODING 179
SWIDTH 784 0
DWIDTH 12 0
BBX 8 10 2 6
BITMAP
FC00
FC00
0300
0300
3C00
3C00
0300
0300
FC00
FC00
ENDCHAR
STARTCHAR ACUTE ACCENT
ENCODING 180
SWIDTH 784 0
DWIDTH 12 0
BBX 4 4 4 12
BITMAP
3000
3000
C000
C000
ENDCHAR
STARTCHAR MICRO SIGN
ENCODING 181
SWIDTH 784 0
DWIDTH 12 0
BBX 10 12 0 -2
BITMAP
C0C0
C0C0
C0C0
C0C0
C0C0
C0C0
F0C0
F0C0
CF00
CF00
C000
C000
ENDCHAR
STARTCHAR PILCROW SIGN
ENCODING 182
SWIDTH 784 0
DWIDTH 12 0
BBX 10 14 0 0
BITMAP
3FC0
3FC0
FCC0
FCC0
FCC0
FCC0
3CC0
3CC0
0CC0
0CC0
0CC0
0CC0
0CC0
0CC0
ENDCHAR
STARTCHAR MIDDLE DOT
ENCODING 183
SWIDTH 784 0
DWIDTH 12 0
BBX 2 2 4 6
BITMAP
C000
C000
ENDCHAR
STARTCHAR CEDILLA
ENCODING 184
SWIDTH 784 0
DWIDTH 12 0
BBX 4 4 4 -4
BITMAP
3000
3000
C000
C000
ENDCHAR
STARTCHAR SUPERSCRIPT ONE
ENCODING 185
SWIDTH 784 0
DWIDTH 12 0
BBX 6 10 2 6
BITMAP
3000
3000
F000
F000
3000
3000
3000
3000
FC00
FC00
ENDCHAR
STARTCHAR MASCULINE ORDINAL INDICATOR
ENCODING 186
SWIDTH 784 0
DWIDTH 12 0
BBX 8 12 2 2
BITMAP
3C00
3C00
C300
C300
C300
C300
3C00
3C00
0000
0000
FF00
FF00
ENDCHAR
STARTCHAR RIGHT-POINTING DOUBLE ANGLE QUOTATION MARK
ENCODING 187
SWIDTH 784 0
DWIDTH 12 0
BBX 12 10 0 2
BITMAP
C300
C300
30C0
30C0
0C30
0C30
30C0
30C0
C300
C300
ENDCHAR
STARTCHAR VULGAR FRACTION ONE QUARTER
ENCODING 188
SWIDTH 784 0
DWIDTH 12 0
BBX 12 18 0 -2
BITMAP
3000
3000
F000
F000
3000
3000
3000
3000
FC30
FC30
00F0
00F0
0330
0330
0FF0
0FF0
0030
0030
ENDCHAR
STARTCHAR VULGAR FRACTION ONE HALF
ENCODING 189
SWIDTH 784 0
DWIDTH 12 0
BBX 12 18 0 -2
BITMAP
3000
3000
F000
F000
3000
3000
3000
3000
FCC0
FCC0
0330
0330
0030
0030
00C0
00C0
03F0
03F0
ENDCHAR
STARTCHAR VULGAR FRACTION THREE QUARTERS
ENCODING 190
SWIDTH 784 0
DWIDTH 12 0
BBX 10 18 0 -2
BITMAP
F000
F000
0C00
0C00
3000
3000
0C00
0C00
F0C0
F0C0
03C0
03C0
0CC0
0CC0
3FC0
3FC0
00C0
00C0
ENDCHAR
STARTCHAR INVERTED QUESTION MARK
ENCODING 191
SWIDTH 784 0
DWIDTH 12 0
BBX 10 14 0 0
BITMAP
0C00
0C00
0000
0000
0C00
0C00
3000
3000
C000
C000
C0C0
C0C0
3F00
3F00
ENDCHAR
STARTCHAR LATIN CAPITAL LETTER A WITH GRAVE
ENCODING 192
SWIDTH 784 0
DWIDTH 12 0
BBX 10 18 0 0
BITMAP
3000
3000
0C00
0C00
3F00
3F00
C0C0
C0C0
C0C0
C0C0
FFC0
FFC0
C0C0
C0C0
C0C0
C0C0
C0C0
C0C0
ENDCHAR
STARTCHAR LATIN CAPITAL LETTER A WITH ACUTE
ENCODING 193
SWIDTH 784 0
DWIDTH 12 0
BBX 10 18 0 0
BITMAP
0300
0300
0C00
0C00
3F00
3F00
C0C0
C0C0
C0C0
C0C0
FFC0
FFC0
C0C0
C0C0
C0C0
C0C0
C0C0
C0C0
ENDCHAR
STARTCHAR LATIN CAPITAL LETTER A WITH CIRCUMFLEX
ENCODING 194
SWIDTH 784 0
DWIDTH 12 0
BBX 10 18 0 0
BITMAP
0C00
0C00
3300
3300
0000
0000
3F00
3F00
C0C0
C0C0
C0C0
C0C0
FFC0
FFC0
C0C0
C0C0
C0C0
C0C0
ENDCHAR
STARTCHAR LATIN CAPITAL LETTER A WITH TILDE
ENCODING 195
SWIDTH 784 0
DWIDTH 12 0
BBX 10 18 0 0
BITMAP
3CC0
3CC0
CF00
CF00
0000
0000
3F00
3F00
C0C0
C0C0
C0C0
C0C0
FFC0
FFC0
C0C0
C0C0
C0C0
C0C0
ENDCHAR
STARTCHAR LATIN CAPITAL LETTER A WITH DIAERESIS
ENCODING 196
SWIDTH 784 0
DWIDTH 12 0
BBX 10 18 0 0
BITMAP
3300
3300
0000
0000
3F00
3F00
C0C0
C0C0
C0C0
C0C0
FFC0
FFC0
C0C0
C0C0
C0C0
C0C0
C0C0
C0C0
ENDCHAR
STARTCHAR LATIN CAPITAL LETTER A WITH RING ABOVE
ENCODING 197
SWIDTH 784 0
DWIDTH 12 0
BBX 10 18 0 0
BITMAP
0C00
0C00
3300
3300
0C00
0C00
3F00
3F00
C0C0
C0C0
C0C0
C0C0
FFC0
FFC0
C0C0
C0C0
C0C0
C0C0
ENDCHAR
STARTCHAR LATIN CAPITAL LETTER AE
ENCODING 198
SWIDTH 784 0
DWIDTH 12 0
BBX 10 14 0 0
BITMAP
3FC0
3FC0
CC00
CC00
CC00
CC00
FF00
FF00
CC00
CC00
CC00
CC00
CFC0
CFC0
ENDCHAR
STARTCHAR LATIN CAPITAL LETTER C WITH CEDILLA
ENCODING 199
SWIDTH 784 0
DWIDTH 12 0
BBX 10 18 0 -4
BITMAP
3F00
3F00
C0C0
C0C0
C000
C000
C000
C000
C000
C000
C0C0
C0C0
3F00
3F00
0C00
0C00
3000
3000
ENDCHAR
STARTCHAR LATIN CAPITAL LETTER E WITH GRAVE
ENCODING 200
SWIDTH 784 0
DWIDTH 12 0
BBX 10 18 0 0
BITMAP
3000
3000
0C00
0C00
FFC0
FFC0
C000
C000
C000
C000
FF00
FF00
C000
C000
C000
C000
FFC0
FFC0
ENDCHAR
STARTCHAR LATIN CAPITAL LETTER E WITH ACUTE
ENCODING 201
SWIDTH 784 0
DWIDTH 12 0
BBX 10 18 0 0
BITMAP
0300
0300
0C00
0C00
FFC0
FFC0
C000
C000
C000
C000
FF00
FF00
C000
C000
C000
C000
FFC0
FFC0
ENDCHAR
STARTCHAR LATIN CAPITAL LETTER E WITH CIRCUMFLEX
ENCODING 202
SWIDTH 784 0
DWIDTH 12 0
BBX 10 18 0 0
BITMAP
0C00
0C00
3300
3300
FFC0
FFC0
C000
C000
C000
C000
FF00
FF00
C000
C000
C000
C000
FFC0
FFC0
ENDCHAR
STARTCHAR LATIN CAPITAL LETTER E WITH DIAERESIS
ENCODING 203
SWIDTH 784 0
DWIDTH 12 0
BBX 10 18 0 0
BITMAP
3300
3300
0000
0000
FFC0
FFC0
C000
C000
C000
C000
FF00
FF00
C000
C000
C000
C000
FFC0
FFC0
ENDCHAR
STARTCHAR LATIN CAPITAL LETTER I WITH GRAVE
ENCODING 204
SWIDTH 784 0
DWIDTH 12 0
BBX 6 18 2 0
BITMAP
3000
3000
0C00
0C00
0000
0000
FC00
FC00
3000
3000
3000
3000
3000
3000
3000
3000
FC00
FC00
ENDCHAR
STARTCHAR LATIN CAPITAL LETTER I WITH ACUTE
ENCODING 205
SWIDTH 784 0
DWIDTH 12 0
BBX 6 18 2 0
BITMAP
3000
3000
C000
C000
0000
0000
FC00
FC00
3000
3000
3000
3000
3000
3000
3000
3000
FC00
FC00
ENDCHAR
STARTCHAR LATIN CAPITAL LETTER I WITH CIRCUMFLEX
ENCODING 206
SWIDTH 784 0
DWIDTH 12 0
BBX 6 18 2 0
BITMAP
3000
3000
CC00
CC00
0000
0000
FC00
FC00
3000
3000
3000
3000
3000
3000
3000
3000
FC00
FC00
ENDCHAR
STARTCHAR LATIN CAPITAL LETTER I WITH DIAERESIS
ENCODING 207
SWIDTH 784 0
DWIDTH 12 0
BBX 6 18 2 0
BITMAP
CC00
CC00
0000
0000
FC00
FC00
3000
3000
3000
3000
3000
3000
3000
3000
3000
3000
FC00
FC00
ENDCHAR
STARTCHAR LATIN CAPITAL LETTER ETH
ENCODING 208
SWIDTH 784 0
DWIDTH 12 0
BBX 10 14 0 0
BITMAP
3F00
3F00
30C0
30C0
30C0
30C0
FCC0
FCC0
30C0
30C0
30C0
30C0
3F00
3F00
ENDCHAR
STARTCHAR LATIN CAPITAL LETTER N WITH TILDE
ENCODING 209
SWIDTH 784 0
DWIDTH 12 0
BBX 10 18 0 0
BITMAP
3CC0
3CC0
CF00
CF00
C0C0
C0C0
F0C0
F0C0
CCC0
CCC0
C3C0
C3C0
C0C0
C0C0
C0C0
C0C0
C0C0
C0C0
ENDCHAR
STARTCHAR LATIN CAPITAL LETTER O WITH GRAVE
ENCODING 210
SWIDTH 784 0
DWIDTH 12 0
BBX 10 18 0 0
BITMAP
3000
3000
0C00
0C00
3F00
3F00
C0C0
C0C0
C0C0
C0C0
C0C0
C0C0
C0C0
C0C0
C0C0
C0C0
3F00
3F00
ENDCHAR
STARTCHAR LATIN CAPITAL LETTER O WITH ACUTE
ENCODING 211
SWIDTH 784 0
DWIDTH 12 0
BBX 10 18 0 0
BITMAP
0300
0300
0C00
0C00
3F00
3F00
C0C0
C0C0
C0C0
C0C0
C0C0
C0C0
C0C0
C0C0
C0C0
C0C0
3F00
3F00
ENDCHAR
STARTCHAR LATIN CAPITAL LETTER O WITH CIRCUMFLEX
ENCODING 212
SWIDTH 784 0
DWIDTH 12 0
BBX 10 18 0 0
BITMAP
0C00
0C00
3300
3300
0000
0000
3F00
3F00
C0C0
C0C0
C0C0
C0C0
C0C0
C0C0
C0C0
C0C0
3F00
3F00
ENDCHAR
STARTCHAR LATIN CAPITAL LETTER O WITH TILDE
ENCODING 213
SWIDTH 784 0
DWIDTH 12 0
BBX 10 18 0 0
BITMAP
3CC0
3CC0
CF00
CF00
3F00
3F00
C0C0
C0C0
C0C0
C0C0
C0C0
C0C0
C0C0
C0C0
C0C0
C0C0
3F00
3F00
ENDCHAR
STARTCHAR LATIN CAPITAL LETTER O WITH DIAERESIS
ENCODING 214
SWIDTH 784 0
DWIDTH 12 0
BBX 10 18 0 0
BITMAP
3300
3300
0000
0000
3F00
3F00
C0C0
C0C0
C0C0
C0C0
C0C0
C0C0
C0C0
C0C0
C0C0
C0C0
3F00
3F00
ENDCHAR
STARTCHAR MULTIPLICATION SIGN
ENCODING 215
SWIDTH 784 0
DWIDTH 12 0
BBX 10 10 0 2
BITMAP
C0C0
C0C0
3300
3300
0C00
0C00
3300
3300
C0C0
C0C0
ENDCHAR
STARTCHAR LATIN CAPITAL LETTER O WITH STROKE
ENCODING 216
SWIDTH 784 0
DWIDTH 12 0
BBX 12 12 0 2
BITMAP
3F30
3F30
C0C0
C0C0
C3C0
C3C0
CCC0
CCC0
F0C0
F0C0
FF00
FF00
ENDCHAR
STARTCHAR LATIN CAPITAL LETTER U WITH GRAVE
ENCODING 217
SWIDTH 784 0
DWIDTH 12 0
BBX 10 18 0 0
BITMAP
3000
3000
0C00
0C00
C0C0
C0C0
C0C0
C0C0
C0C0
C0C0
C0C0
C0C0
C0C0
C0C0
C0C0
C0C0
3F00
3F00
ENDCHAR
STARTCHAR LATIN CAPITAL LETTER U WITH ACUTE
ENCODING 218
SWIDTH 784 0
DWIDTH 12 0
BBX 10 18 0 0
BITMAP
0300
0300
0C00
0C00
C0C0
C0C0
C0C0
C0C0
C0C0
C0C0
C0C0
C0C0
C0C0
C0C0
C0C0
C0C0
3F00
3F00
ENDCHAR
STARTCHAR LATIN CAPITAL LETTER U WITH CIRCUMFLEX
ENCODING 219
SWIDTH 784 0
DWIDTH 12 0
BBX 10 18 0 0
BITMAP
0300
0300
0C00
0C00
C0C0
C0C0
C0C0
C0C0
C0C0
C0C0
C0C0
C0C0
C0C0
C0C0
C0C0
C0C0
3F00
3F00
ENDCHAR
STARTCHAR LATIN CAPITAL LETTER U WITH DIAERESIS
ENCODING 220
SWIDTH 784 0
DWIDTH 12 0
BBX 10 18 0 0
BITMAP
3300
3300
0000
0000
C0C0
C0C0
C0C0
C0C0
C0C0
C0C0
C0C0
C0C0
C0C0
C0C0
C0C0
C0C0
3F00
3F00
ENDCHAR
STARTCHAR LATIN CAPITAL LETTER Y WITH ACUTE
ENCODING 221
SWIDTH 784 0
DWIDTH 12 0
BBX 10 18 0 0
BITMAP
0300
0300
0C00
0C00
C0C0
C0C0
C0C0
C0C0
C0C0
C0C0
3300
3300
0C00
0C00
0C00
0C00
0C00
0C00
ENDCHAR
STARTCHAR LATIN CAPITAL LETTER THORN
ENCODING 222
SWIDTH 784 0
DWIDTH 12 0
BBX 10 14 0 0
BITMAP
C000
C000
FF00
FF00
C0C0
C0C0
C0C0
C0C0
FF00
FF00
C000
C000
C000
C000
ENDCHAR
STARTCHAR LATIN SMALL LETTER SHARP S
ENCODING 223
SWIDTH 784 0
DWIDTH 12 0
BBX 10 18 0 -2
BITMAP
0F00
0F00
30C0
30C0
C0C0
C0C0
C300
C300
C300
C300
C0C0
C0C0
C0C0
C0C0
CF00
CF00
C000
C000
ENDCHAR
STARTCHAR LATIN SMALL LETTER A WITH GRAVE
ENCODING 224
SWIDTH 784 0
DWIDTH 12 0
BBX 10 16 0 0
BITMAP
0C00
0C00
0300
0300
0000
0000
3F00
3F00
00C0
00C0
3FC0
3FC0
C0C0
C0C0
3FC0
3FC0
ENDCHAR
STARTCHAR LATIN SMALL LETTER A WITH ACUTE
ENCODING 225
SWIDTH 784 0
DWIDTH 12 0
BBX 10 16 0 0
BITMAP
0300
0300
0C00
0C00
0000
0000
3F00
3F00
00C0
00C0
3FC0
3FC0
C0C0
C0C0
3FC0
3FC0
ENDCHAR
STARTCHAR LATIN SMALL LETTER A WITH CIRCUMFLEX
ENCODING 226
SWIDTH 784 0
DWIDTH 12 0
BBX 10 16 0 0
BITMAP
0C00
0C00
3300
3300
0000
0000
3F00
3F00
00C0
00C0
3FC0
3FC0
C0C0
C0C0
3FC0
3FC0
ENDCHAR
STARTCHAR LATIN SMALL LETTER A WITH TILDE
ENCODING 227
SWIDTH 784 0
DWIDTH 12 0
BBX 10 16 0 0
BITMAP
3CC0
3CC0
CF00
CF00
0000
0000
3F00
3F00
00C0
00C0
3FC0
3FC0
C0C0
C0C0
3FC0
3FC0
ENDCHAR
STARTCHAR LATIN SMALL LETTER A WITH DIAERESIS
ENCODING 228
SWIDTH 784 0
DWIDTH 12 0
BBX 10 14 0 0
BITMAP
3300
3300
0000
0000
3F00
3F00
00C0
00C0
3FC0
3FC0
C0C0
C0C0
3FC0
3FC0
ENDCHAR
STARTCHAR LATIN SMALL LETTER A WITH RING ABOVE
ENCODING 229
SWIDTH 784 0
DWIDTH 12 0
BBX 10 16 0 0
BITMAP
0C00
0C00
3300
3300
0C00
0C00
3F00
3F00
00C0
00C0
3FC0
3FC0
C0C0
C0C0
3FC0
3FC0
ENDCHAR
STARTCHAR LATIN SMALL LETTER AE
ENCODING 230
SWIDTH 784 0
DWIDTH 12 0
BBX 10 10 0 0
BITMAP
3F00
3F00
CCC0
CCC0
CFC0
CFC0
CC00
CC00
3FC0
3FC0
ENDCHAR
STARTCHAR LATIN SMALL LETTER C WITH CEDILLA
ENCODING 231
SWIDTH 784 0
DWIDTH 12 0
BBX 10 14 0 -4
BITMAP
3FC0
3FC0
C000
C000
C000
C000
C000
C000
3FC0
3FC0
0C00
0C00
3000
3000
ENDCHAR
STARTCHAR LATIN SMALL LETTER E WITH GRAVE
ENCODING 232
SWIDTH 784 0
DWIDTH 12 0
BBX 10 16 0 0
BITMAP
3000
3000
0C00
0C00
0000
0000
3F00
3F00
C0C0
C0C0
FFC0
FFC0
C000
C000
3FC0
3FC0
ENDCHAR
STARTCHAR LATIN SMALL LETTER E WITH ACUTE
ENCODING 233
SWIDTH 784 0
DWIDTH 12 0
BBX 10 16 0 0
BITMAP
0300
0300
0C00
0C00
0000
0000
3F00
3F00
C0C0
C0C0
FFC0
FFC0
C000
C000
3FC0
3FC0
ENDCHAR
STARTCHAR LATIN SMALL LETTER E WITH CIRCUMFLEX
ENCODING 234
SWIDTH 784 0
DWIDTH 12 0
BBX 10 16 0 0
BITMAP
0C00
0C00
3300
3300
0000
0000
3F00
3F00
C0C0
C0C0
FFC0
FFC0
C000
C000
3FC0
3FC0
ENDCHAR
STARTCHAR LATIN SMALL LETTER E WITH DIAERESIS
ENCODING 235
SWIDTH 784 0
DWIDTH 12 0
BBX 10 14 0 0
BITMAP
3300
3300
0000
0000
3F00
3F00
C0C0
C0C0
FFC0
FFC0
C000
C000
3FC0
3FC0
ENDCHAR
STARTCHAR LATIN SMALL LETTER I WITH GRAVE
ENCODING 236
SWIDTH 784 0
DWIDTH 12 0
BBX 4 16 4 0
BITMAP
C000
C000
3000
3000
0000
0000
C000
C000
C000
C000
C000
C000
C000
C000
C000
C000
ENDCHAR
STARTCHAR LATIN SMALL LETTER I WITH ACUTE
ENCODING 237
SWIDTH 784 0
DWIDTH 12 0
BBX 4 16 2 0
BITMAP
3000
3000
C000
C000
0000
0000
3000
3000
3000
3000
3000
3000
3000
3000
3000
3000
ENDCHAR
STARTCHAR LATIN SMALL LETTER I WITH CIRCUMFLEX
ENCODING 238
SWIDTH 784 0
DWIDTH 12 0
BBX 6 16 2 0
BITMAP
3000
3000
CC00
CC00
0000
0000
3000
3000
3000
3000
3000
3000
3000
3000
3000
3000
ENDCHAR
STARTCHAR LATIN SMALL LETTER I WITH DIAERESIS
ENCODING 239
SWIDTH 784 0
DWIDTH 12 0
BBX 6 14 2 0
BITMAP
CC00
CC00
0000
0000
3000
3000
3000
3000
3000
3000
3000
3000
3000
3000
ENDCHAR
STARTCHAR LATIN SMALL LETTER ETH
ENCODING 240
SWIDTH 784 0
DWIDTH 12 0
BBX 10 16 0 0
BITMAP
3C00
3C00
3C00
3C00
0300
0300
3FC0
3FC0
C0C0
C0C0
C0C0
C0C0
C0C0
C0C0
3F00
3F00
ENDCHAR
STARTCHAR LATIN SMALL LETTER N WITH TILDE
ENCODING 241
SWIDTH 784 0
DWIDTH 12 0
BBX 10 16 0 0
BITMAP
3300
3300
CC00
CC00
0000
0000
FF00
FF00
C0C0
C0C0
C0C0
C0C0
C0C0
C0C0
C0C0
C0C0
ENDCHAR
STARTCHAR LATIN SMALL LETTER O WITH GRAVE
ENCODING 242
SWIDTH 784 0
DWIDTH 12 0
BBX 10 16 0 0
BITMAP
3000
3000
0C00
0C00
0000
0000
3F00
3F00
C0C0
C0C0
C0C0
C0C0
C0C0
C0C0
3F00
3F00
ENDCHAR
STARTCHAR LATIN SMALL LETTER O WITH ACUTE
ENCODING 243
SWIDTH 784 0
DWIDTH 12 0
BBX 10 16 0 0
BITMAP
0300
0300
0C00
0C00
0000
0000
3F00
3F00
C0C0
C0C0
C0C0
C0C0
C0C0
C0C0
3F00
3F00
ENDCHAR
STARTCHAR LATIN SMALL LETTER O WITH CIRCUMFLEX
ENCODING 244
SWIDTH 784 0
DWIDTH 12 0
BBX 10 16 0 0
BITMAP
0C00
0C00
3300
3300
0000
0000
3F00
3F00
C0C0
C0C0
C0C0
C0C0
C0C0
C0C0
3F00
3F00
ENDCHAR
STARTCHAR LATIN SMALL LETTER O WITH TILDE
ENCODING 245
SWIDTH 784 0
DWIDTH 12 0
BBX 10 16 0 0
BITMAP
3300
3300
CC00
CC00
0000
0000
3F00
3F00
C0C0
C0C0
C0C0
C0C0
C0C0
C0C0
3F00
3F00
ENDCHAR
STARTCHAR LATIN SMALL LETTER O WITH DIAERESIS
ENCODING 246
SWIDTH 784 0
DWIDTH 12 0
BBX 10 14 0 0
BITMAP
3300
3300
0000
0000
3F00
3F00
C0C0
C0C0
C0C0
C0C0
C0C0
C0C0
3F00
3F00
ENDCHAR
STARTCHAR DIVISION SIGN
ENCODING 247
SWIDTH 784 0
DWIDTH 12 0
BBX 10 10 0 2
BITMAP
0C00
0C00
0000
0000
FFC0
FFC0
0000
0000
0C00
0C00
ENDCHAR
STARTCHAR LATIN SMALL LETTER O WITH STROKE
ENCODING 248
SWIDTH 784 0
DWIDTH 12 0
BBX 10 10 0 0
BITMAP
3F00
3F00
C3C0
C3C0
CCC0
CCC0
F0C0
F0C0
3F00
3F00
ENDCHAR
STARTCHAR LATIN SMALL LETTER U WITH GRAVE
ENCODING 249
SWIDTH 784 0
DWIDTH 12 0
BBX 10 16 0 0
BITMAP
3000
3000
0C00
0C00
0000
0000
C0C0
C0C0
C0C0
C0C0
C0C0
C0C0
C3C0
C3C0
3CC0
3CC0
ENDCHAR
STARTCHAR LATIN SMALL LETTER U WITH ACUTE
ENCODING 250
SWIDTH 784 0
DWIDTH 12 0
BBX 10 16 0 0
BITMAP
0300
0300
0C00
0C00
0000
0000
C0C0
C0C0
C0C0
C0C0
C0C0
C0C0
C3C0
C3C0
3CC0
3CC0
ENDCHAR
STARTCHAR LATIN SMALL LETTER U WITH CIRCUMFLEX
ENCODING 251
SWIDTH 784 0
DWIDTH 12 0
BBX 10 16 0 0
BITMAP
0C00
0C00
3300
3300
0000
0000
C0C0
C0C0
C0C0
C0C0
C0C0
C0C0
C3C0
C3C0
3CC0
3CC0
ENDCHAR
STARTCHAR LATIN SMALL LETTER U WITH DIAERESIS
ENCODING 252
SWIDTH 784 0
DWIDTH 12 0
BBX 10 14 0 0
BITMAP
3300
3300
0000
0000
C0C0
C0C0
C0C0
C0C0
C0C0
C0C0
C3C0
C3C0
3CC0
3CC0
ENDCHAR
STARTCHAR LATIN SMALL LETTER Y WITH ACUTE
ENCODING 253
SWIDTH 784 0
DWIDTH 12 0
BBX 10 20 0 -4
BITMAP
0300
0300
0C00
0C00
0000
0000
C0C0
C0C0
C0C0
C0C0
C0C0
C0C0
C3C0
C3C0
3CC0
3CC0
00C0
00C0
3F00
3F00
ENDCHAR
STARTCHAR LATIN SMALL LETTER THORN
ENCODING 254
SWIDTH 784 0
DWIDTH 12 0
BBX 10 18 0 -4
BITMAP
C000
C000
C000
C000
FF00
FF00
C0C0
C0C0
C0C0
C0C0
C0C0
C0C0
FF00
FF00
C000
C000
C000
C000
ENDCHAR
STARTCHAR LATIN SMALL LETTER Y WITH DIAERESIS
ENCODING 255
SWIDTH 784 0
DWIDTH 12 0
BBX 10 18 0 -4
BITMAP
3300
3300
0000
0000
C0C0
C0C0
C0C0
C0C0
C0C0
C0C0
C3C0
C3C0
3CC0
3CC0
00C0
00C0
3F00
3F00
ENDCHAR
STARTCHAR LATIN CAPITAL LETTER A WITH MACRON
ENCODING 256
SWIDTH 784 0
DWIDTH 12 0
BBX 10 16 0 0
BITMAP
3F00
3F00
0000
0000
3F00
3F00
C0C0
C0C0
C0C0
C0C0
FFC0
FFC0
C0C0
C0C0
C0C0
C0C0
ENDCHAR
STARTCHAR LATIN SMALL LETTER A WITH MACRON
ENCODING 257
SWIDTH 784 0
DWIDTH 12 0
BBX 10 14 0 0
BITMAP
3F00
3F00
0000
0000
3F00
3F00
00C0
00C0
3FC0
3FC0
C0C0
C0C0
3FC0
3FC0
ENDCHAR
STARTCHAR LATIN CAPITAL LETTER A WITH BREVE
ENCODING 258
SWIDTH 784 0
DWIDTH 12 0
BBX 10 16 0 0
BITMAP
C0C0
C0C0
3F00
3F00
3F00
3F00
C0C0
C0C0
C0C0
C0C0
FFC0
FFC0
C0C0
C0C0
C0C0
C0C0
ENDCHAR
STARTCHAR LATIN SMALL LETTER A WITH BREVE
ENCODING 259
SWIDTH 784 0
DWIDTH 12 0
BBX 10 16 0 0
BITMAP
C0C0
C0C0
3F00
3F00
0000
0000
3F00
3F00
00C0
00C0
3FC0
3FC0
C0C0
C0C0
3FC0
3FC0
ENDCHAR
STARTCHAR LATIN CAPITAL LETTER A WITH OGONEK
ENCODING 260
SWIDTH 784 0
DWIDTH 12 0
BBX 10 18 0 -4
BITMAP
0C00
0C00
3300
3300
C0C0
C0C0
C0C0
C0C0
FFC0
FFC0
C0C0
C0C0
C0C0
C0C0
0300
0300
03C0
03C0
ENDCHAR
STARTCHAR LATIN SMALL LETTER A WITH OGONEK
ENCODING 261
SWIDTH 784 0
DWIDTH 12 0
BBX 10 14 0 -4
BITMAP
3F00
3F00
00C0
00C0
3FC0
3FC0
C0C0
C0C0
3FC0
3FC0
0300
0300
03C0
03C0
ENDCHAR
STARTCHAR LATIN CAPITAL LETTER C WITH ACUTE
ENCODING 262
SWIDTH 784 0
DWIDTH 12 0
BBX 10 16 0 0
BITMAP
0300
0300
0C00
0C00
3F00
3F00
C0C0
C0C0
C000
C000
C000
C000
C0C0
C0C0
3F00
3F00
ENDCHAR
STARTCHAR LATIN SMALL LETTER C WITH ACUTE
ENCODING 263
SWIDTH 784 0
DWIDTH 12 0
BBX 10 16 0 0
BITMAP
0300
0300
0C00
0C00
0000
0000
3F00
3F00
C0C0
C0C0
C000
C000
C0C0
C0C0
3F00
3F00
ENDCHAR
STARTCHAR LATIN CAPITAL LETTER C WITH CIRCUMFLEX
ENCODING 264
SWIDTH 784 0
DWIDTH 12 0
BBX 10 16 0 0
BITMAP
0C00
0C00
3300
3300
3F00
3F00
C0C0
C0C0
C000
C000
C000
C000
C0C0
C0C0
3F00
3F00
ENDCHAR
STARTCHAR LATIN SMALL LETTER C WITH CIRCUMFLEX
ENCODING 265
SWIDTH 784 0
DWIDTH 12 0
BBX 10 16 0 0
BITMAP
0C00
0C00
3300
3300
0000
0000
3F00
3F00
C0C0
C0C0
C000
C000
C0C0
C0C0
3F00
3F00
ENDCHAR
STARTCHAR LATIN CAPITAL LETTER C WITH DOT ABOVE
ENCODING 266
SWIDTH 784 0
DWIDTH 12 0
BBX 10 16 0 0
BITMAP
0C00
0C00
0000
0000
3F00
3F00
C0C0
C0C0
C000
C000
C000
C000
C0C0
C0C0
3F00
3F00
ENDCHAR
STARTCHAR LATIN SMALL LETTER C WITH DOT ABOVE
ENCODING 267
SWIDTH 784 0
DWIDTH 12 0
BBX 10 14 0 0
BITMAP
0C00
0C00
0000
0000
3F00
3F00
C0C0
C0C0
C000
C000
C0C0
C0C0
3F00
3F00
ENDCHAR
STARTCHAR LATIN CAPITAL LETTER C WITH CARON
ENCODING 268
SWIDTH 784 0
DWIDTH 12 0
BBX 10 16 0 0
BITMAP
3300
3300
0C00
0C00
3F00
3F00
C0C0
C0C0
C000
C000
C000
C000
C0C0
C0C0
3F00
3F00
ENDCHAR
STARTCHAR LATIN SMALL LETTER C WITH CARON
ENCODING 269
SWIDTH 784 0
DWIDTH 12 0
BBX 10 16 0 0
BITMAP
3300
3300
0C00
0C00
0000
0000
3F00
3F00
C0C0
C0C0
C000
C000
C0C0
C0C0
3F00
3F00
ENDCHAR
STARTCHAR LATIN CAPITAL LETTER D WITH CARON
ENCODING 270
SWIDTH 784 0
DWIDTH 12 0
BBX 10 16 0 0
BITMAP
3300
3300
0C00
0C00
FF00
FF00
C0C0
C0C0
C0C0
C0C0
C0C0
C0C0
C0C0
C0C0
FF00
FF00
ENDCHAR
STARTCHAR LATIN SMALL LETTER D WITH CARON
ENCODING 271
SWIDTH 784 0
DWIDTH 12 0
BBX 10 16 0 0
BITMAP
3300
3300
0C00
0C00
00C0
00C0
3CC0
3CC0
C3C0
C3C0
C0C0
C0C0
C3C0
C3C0
3CC0
3CC0
ENDCHAR
STARTCHAR LATIN CAPITAL LETTER D WITH STROKE
ENCODING 272
SWIDTH 784 0
DWIDTH 12 0
BBX 12 14 0 0
BITMAP
3FC0
3FC0
3030
3030
3030
3030
FC30
FC30
3030
3030
3030
3030
3FC0
3FC0
ENDCHAR
STARTCHAR LATIN SMALL LETTER D WITH STROKE
ENCODING 273
SWIDTH 784 0
DWIDTH 12 0
BBX 10 14 0 0
BITMAP
0300
0300
0FC0
0FC0
0300
0300
3F00
3F00
C300
C300
C300
C300
3F00
3F00
ENDCHAR
STARTCHAR LATIN CAPITAL LETTER E WITH MACRON
ENCODING 274
SWIDTH 784 0
DWIDTH 12 0
BBX 10 16 0 0
BITMAP
3F00
3F00
0000
0000
FFC0
FFC0
C000
C000
FF00
FF00
C000
C000
C000
C000
FFC0
FFC0
ENDCHAR
STARTCHAR LATIN SMALL LETTER E WITH MACRON
ENCODING 275
SWIDTH 784 0
DWIDTH 12 0
BBX 10 14 0 0
BITMAP
3F00
3F00
0000
0000
3F00
3F00
C0C0
C0C0
FFC0
FFC0
C000
C000
3F00
3F00
ENDCHAR
STARTCHAR LATIN CAPITAL LETTER E WITH BREVE
ENCODING 276
SWIDTH 784 0
DWIDTH 12 0
BBX 10 16 0 0
BITMAP
C0C0
C0C0
3F00
3F00
FFC0
FFC0
C000
C000
FF00
FF00
C000
C000
C000
C000
FFC0
FFC0
ENDCHAR
STARTCHAR LATIN SMALL LETTER E WITH BREVE
ENCODING 277
SWIDTH 784 0
DWIDTH 12 0
BBX 10 16 0 0
BITMAP
C0C0
C0C0
3F00
3F00
0000
0000
3F00
3F00
C0C0
C0C0
FFC0
FFC0
C000
C000
3F00
3F00
ENDCHAR
STARTCHAR LATIN CAPITAL LETTER E WITH DOT ABOVE
ENCODING 278
SWIDTH 784 0
DWIDTH 12 0
BBX 10 16 0 0
BITMAP
0C00
0C00
0000
0000
FFC0
FFC0
C000
C000
FF00
FF00
C000
C000
C000
C000
FFC0
FFC0
ENDCHAR
STARTCHAR LATIN SMALL LETTER E WITH DOT ABOVE
ENCODING 279
SWIDTH 784 0
DWIDTH 12 0
BBX 10 14 0 0
BITMAP
0C00
0C00
0000
0000
3F00
3F00
C0C0
C0C0
FFC0
FFC0
C000
C000
3F00
3F00
ENDCHAR
STARTCHAR LATIN CAPITAL LETTER E WITH OGONEK
ENCODING 280
SWIDTH 784 0
DWIDTH 12 0
BBX 10 18 0 -4
BITMAP
FFC0
FFC0
C000
C000
C000
C000
FF00
FF00
C000
C000
C000
C000
FFC0
FFC0
0C00
0C00
0F00
0F00
ENDCHAR
STARTCHAR LATIN SMALL LETTER E WITH OGONEK
ENCODING 281
SWIDTH 784 0
DWIDTH 12 0
BBX 10 14 0 -4
BITMAP
3F00
3F00
C0C0
C0C0
FFC0
FFC0
C000
C000
3F00
3F00
0C00
0C00
0F00
0F00
ENDCHAR
STARTCHAR LATIN CAPITAL LETTER E WITH CARON
ENCODING 282
SWIDTH 784 0
DWIDTH 12 0
BBX 10 16 0 0
BITMAP
3300
3300
0C00
0C00
FFC0
FFC0
C000
C000
FF00
FF00
C000
C000
C000
C000
FFC0
FFC0
ENDCHAR
STARTCHAR LATIN SMALL LETTER E WITH CARON
ENCODING 283
SWIDTH 784 0
DWIDTH 12 0
BBX 10 16 0 0
BITMAP
3300
3300
0C00
0C00
0000
0000
3F00
3F00
C0C0
C0C0
FFC0
FFC0
C000
C000
3F00
3F00
ENDCHAR
STARTCHAR LATIN CAPITAL LETTER G WITH CIRCUMFLEX
ENCODING 284
SWIDTH 784 0
DWIDTH 12 0
BBX 10 16 0 0
BITMAP
0C00
0C00
3300
3300
3F00
3F00
C0C0
C0C0
C000
C000
C3C0
C3C0
C0C0
C0C0
3F00
3F00
ENDCHAR
STARTCHAR LATIN SMALL LETTER G WITH CIRCUMFLEX
ENCODING 285
SWIDTH 784 0
DWIDTH 12 0
BBX 12 20 0 -4
BITMAP
0C00
0C00
3300
3300
0000
0000
3CC0
3CC0
C300
C300
3C00
3C00
C000
C000
3F00
3F00
C0C0
C0C0
3F00
3F00
ENDCHAR
STARTCHAR LATIN CAPITAL LETTER G WITH BREVE
ENCODING 286
SWIDTH 784 0
DWIDTH 12 0
BBX 10 16 0 0
BITMAP
C0C0
C0C0
3F00
3F00
3F00
3F00
C0C0
C0C0
C000
C000
C3C0
C3C0
C0C0
C0C0
3F00
3F00
ENDCHAR
STARTCHAR LATIN SMALL LETTER G WITH BREVE
ENCODING 287
SWIDTH 784 0
DWIDTH 12 0
BBX 12 20 0 -4
BITMAP
C0C0
C0C0
3F00
3F00
0000
0000
3CC0
3CC0
C300
C300
3C00
3C00
C000
C000
3F00
3F00
C0C0
C0C0
3F00
3F00
ENDCHAR
STARTCHAR LATIN CAPITAL LETTER G WITH DOT ABOVE
ENCODING 288
SWIDTH 784 0
DWIDTH 12 0
BBX 10 16 0 0
BITMAP
0C00
0C00
0000
0000
3F00
3F00
C0C0
C0C0
C000
C000
C3C0
C3C0
C0C0
C0C0
3F00
3F00
ENDCHAR
STARTCHAR LATIN SMALL LETTER G WITH DOT ABOVE
ENCODING 289
SWIDTH 784 0
DWIDTH 12 0
BBX 10 18 0 -4
BITMAP
0C00
0C00
0000
0000
3CC0
3CC0
C300
C300
3C00
3C00
C000
C000
3F00
3F00
C0C0
C0C0
3F00
3F00
ENDCHAR
STARTCHAR LATIN CAPITAL LETTER G WITH CEDILLA
ENCODING 290
SWIDTH 784 0
DWIDTH 12 0
BBX 10 16 0 -4
BITMAP
3F00
3F00
C0C0
C0C0
C000
C000
C3C0
C3C0
C0C0
C0C0
3F00
3F00
0C00
0C00
3000
3000
ENDCHAR
STARTCHAR LATIN SMALL LETTER G WITH CEDILLA
ENCODING 291
SWIDTH 784 0
DWIDTH 12 0
BBX 12 20 0 -4
BITMAP
3000
3000
3C00
3C00
0000
0000
3CC0
3CC0
C300
C300
3C00
3C00
C000
C000
3F00
3F00
C0C0
C0C0
3F00
3F00
ENDCHAR
STARTCHAR LATIN CAPITAL LETTER H WITH CIRCUMFLEX
ENCODING 292
SWIDTH 784 0
DWIDTH 12 0
BBX 10 16 0 0
BITMAP
0C00
0C00
3300
3300
0000
0000
C0C0
C0C0
C0C0
C0C0
FFC0
FFC0
C0C0
C0C0
C0C0
C0C0
ENDCHAR
STARTCHAR LATIN SMALL LETTER H WITH CIRCUMFLEX
ENCODING 293
SWIDTH 784 0
DWIDTH 12 0
BBX 10 16 0 0
BITMAP
0300
0300
0CC0
0CC0
C000
C000
C000
C000
FF00
FF00
C0C0
C0C0
C0C0
C0C0
C0C0
C0C0
ENDCHAR
STARTCHAR LATIN CAPITAL LETTER H WITH STROKE
ENCODING 294
SWIDTH 784 0
DWIDTH 12 0
BBX 12 14 0 0
BITMAP
30C0
30C0
FFF0
FFF0
30C0
30C0
3FC0
3FC0
30C0
30C0
30C0
30C0
30C0
30C0
ENDCHAR
STARTCHAR LATIN SMALL LETTER H WITH STROKE
ENCODING 295
SWIDTH 784 0
DWIDTH 12 0
BBX 12 14 0 0
BITMAP
3000
3000
FC00
FC00
33C0
33C0
3C30
3C30
3030
3030
3030
3030
3030
3030
ENDCHAR
STARTCHAR LATIN CAPITAL LETTER I WITH TILDE
ENCODING 296
SWIDTH 784 0
DWIDTH 12 0
BBX 8 16 2 0
BITMAP
3300
3300
CC00
CC00
FC00
FC00
3000
3000
3000
3000
3000
3000
3000
3000
FC00
FC00
ENDCHAR
STARTCHAR LATIN SMALL LETTER I WITH TILDE
ENCODING 297
SWIDTH 784 0
DWIDTH 12 0
BBX 8 16 2 0
BITMAP
3300
3300
CC00
CC00
0000
0000
3C00
3C00
0C00
0C00
0C00
0C00
0C00
0C00
3F00
3F00
ENDCHAR
STARTCHAR LATIN CAPITAL LETTER I WITH MACRON
ENCODING 298
SWIDTH 784 0
DWIDTH 12 0
BBX 6 16 2 0
BITMAP
FC00
FC00
0000
0000
FC00
FC00
3000
3000
3000
3000
3000
3000
3000
3000
FC00
FC00
ENDCHAR
STARTCHAR LATIN SMALL LETTER I WITH MACRON
ENCODING 299
SWIDTH 784 0
DWIDTH 12 0
BBX 6 14 2 0
BITMAP
FC00
FC00
0000
0000
F000
F000
3000
3000
3000
3000
3000
3000
FC00
FC00
ENDCHAR
STARTCHAR LATIN CAPITAL LETTER I WITH BREVE
ENCODING 300
SWIDTH 784 0
DWIDTH 12 0
BBX 10 16 0 0
BITMAP
C0C0
C0C0
3F00
3F00
3F00
3F00
0C00
0C00
0C00
0C00
0C00
0C00
0C00
0C00
3F00
3F00
ENDCHAR
STARTCHAR LATIN SMALL LETTER I WITH BREVE
ENCODING 301
SWIDTH 784 0
DWIDTH 12 0
BBX 10 16 0 0
BITMAP
C0C0
C0C0
3F00
3F00
0000
0000
3C00
3C00
0C00
0C00
0C00
0C00
0C00
0C00
3F00
3F00
ENDCHAR
STARTCHAR LATIN CAPITAL LETTER I WITH OGONEK
ENCODING 302
SWIDTH 784 0
DWIDTH 12 0
BBX 6 18 2 -4
BITMAP
FC00
FC00
3000
3000
3000
3000
3000
3000
3000
3000
3000
3000
FC00
FC00
3000
3000
3C00
3C00
ENDCHAR
STARTCHAR LATIN SMALL LETTER I WITH OGONEK
ENCODING 303
SWIDTH 784 0
DWIDTH 12 0
BBX 6 18 2 -4
BITMAP
3000
3000
0000
0000
F000
F000
3000
3000
3000
3000
3000
3000
FC00
FC00
3000
3000
3C00
3C00
ENDCHAR
STARTCHAR LATIN CAPITAL LETTER I WITH DOT ABOVE
ENCODING 304
SWIDTH 784 0
DWIDTH 12 0
BBX 6 16 2 0
BITMAP
3000
3000
0000
0000
FC00
FC00
3000
3000
3000
3000
3000
3000
3000
3000
FC00
FC00
ENDCHAR
STARTCHAR LATIN SMALL LETTER DOTLESS I
ENCODING 305
SWIDTH 784 0
DWIDTH 12 0
BBX 6 10 2 0
BITMAP
F000
F000
3000
3000
3000
3000
3000
3000
FC00
FC00
ENDCHAR
STARTCHAR LATIN CAPITAL LIGATURE IJ
ENCODING 306
SWIDTH 784 0
DWIDTH 12 0
BBX 10 14 0 0
BITMAP
CFC0
CFC0
C0C0
C0C0
C0C0
C0C0
C0C0
C0C0
C0C0
C0C0
CCC0
CCC0
C300
C300
ENDCHAR
STARTCHAR LATIN SMALL LIGATURE IJ
ENCODING 307
SWIDTH 784 0
DWIDTH 12 0
BBX 8 18 2 -4
BITMAP
C300
C300
0000
0000
CF00
CF00
C300
C300
C300
C300
C300
C300
C300
C300
0300
0300
3C00
3C00
ENDCHAR
STARTCHAR LATIN CAPITAL LETTER J WITH CIRCUMFLEX
ENCODING 308
SWIDTH 784 0
DWIDTH 12 0
BBX 10 16 0 0
BITMAP
0300
0300
0CC0
0CC0
0FC0
0FC0
0300
0300
0300
0300
0300
0300
C300
C300
3C00
3C00
ENDCHAR
STARTCHAR LATIN SMALL LETTER J WITH CIRCUMFLEX
ENCODING 309
SWIDTH 784 0
DWIDTH 12 0
BBX 12 20 0 -4
BITMAP
0300
0300
0CC0
0CC0
0000
0000
0F00
0F00
0300
0300
0300
0300
0300
0300
C300
C300
C300
C300
3C00
3C00
ENDCHAR
STARTCHAR LATIN CAPITAL LETTER K WITH CEDILLA
ENCODING 310
SWIDTH 784 0
DWIDTH 12 0
BBX 10 18 0 -4
BITMAP
C0C0
C0C0
C300
C300
CC00
CC00
F000
F000
CC00
CC00
C300
C300
C0C0
C0C0
0C00
0C00
3C00
3C00
ENDCHAR
STARTCHAR LATIN SMALL LETTER K WITH CEDILLA
ENCODING 311
SWIDTH 784 0
DWIDTH 12 0
BBX 10 18 0 -4
BITMAP
C000
C000
C000
C000
C0C0
C0C0
C300
C300
FC00
FC00
C300
C300
C0C0
C0C0
0C00
0C00
3C00
3C00
ENDCHAR
STARTCHAR LATIN SMALL LETTER KRA
ENCODING 312
SWIDTH 784 0
DWIDTH 12 0
BBX 10 10 0 0
BITMAP
C0C0
C0C0
C300
C300
FC00
FC00
C300
C300
C0C0
C0C0
ENDCHAR
STARTCHAR LATIN CAPITAL LETTER L WITH ACUTE
ENCODING 313
SWIDTH 784 0
DWIDTH 12 0
BBX 10 16 0 0
BITMAP
0300
0300
CC00
CC00
C000
C000
C000
C000
C000
C000
C000
C000
C000
C000
FFC0
FFC0
ENDCHAR
STARTCHAR LATIN SMALL LETTER L WITH ACUTE
ENCODING 314
SWIDTH 784 0
DWIDTH 12 0
BBX 6 16 2 0
BITMAP
0C00
0C00
3000
3000
F000
F000
3000
3000
3000
3000
3000
3000
3000
3000
FC00
FC00
ENDCHAR
STARTCHAR LATIN CAPITAL LETTER L WITH CEDILLA
ENCODING 315
SWIDTH 784 0
DWIDTH 12 0
BBX 10 18 0 -4
BITMAP
C000
C000
C000
C000
C000
C000
C000
C000
C000
C000
C000
C000
FFC0
FFC0
0C00
0C00
3C00
3C00
ENDCHAR
STARTCHAR LATIN SMALL LETTER L WITH CEDILLA
ENCODING 316
SWIDTH 784 0
DWIDTH 12 0
BBX 6 18 2 -4
BITMAP
F000
F000
3000
3000
3000
3000
3000
3000
3000
3000
3000
3000
FC00
FC00
3000
3000
F000
F000
ENDCHAR
STARTCHAR LATIN CAPITAL LETTER L WITH CARON
ENCODING 317
SWIDTH 784 0
DWIDTH 12 0
BBX 10 16 0 0
BITMAP
0CC0
0CC0
C300
C300
C000
C000
C000
C000
C000
C000
C000
C000
C000
C000
FFC0
FFC0
ENDCHAR
STARTCHAR LATIN SMALL LETTER L WITH CARON
ENCODING 318
SWIDTH 784 0
DWIDTH 12 0
BBX 6 16 2 0
BITMAP
CC00
CC00
3000
3000
F000
F000
3000
3000
3000
3000
3000
3000
3000
3000
FC00
FC00
ENDCHAR
STARTCHAR LATIN CAPITAL LETTER L WITH MIDDLE DOT
ENCODING 319
SWIDTH 784 0
DWIDTH 12 0
BBX 10 14 0 0
BITMAP
C000
C000
C000
C000
CC00
CC00
C000
C000
C000
C000
C000
C000
FFC0
FFC0
ENDCHAR
STARTCHAR LATIN SMALL LETTER L WITH MIDDLE DOT
ENCODING 320
SWIDTH 784 0
DWIDTH 12 0
BBX 8 14 2 0
BITMAP
F000
F000
3000
3000
3300
3300
3000
3000
3000
3000
3000
3000
FC00
FC00
ENDCHAR
STARTCHAR LATIN CAPITAL LETTER L WITH STROKE
ENCODING 321
SWIDTH 784 0
DWIDTH 12 0
BBX 12 14 0 0
BITMAP
3000
3000
3000
3000
3C00
3C00
F000
F000
3000
3000
3000
3000
3FF0
3FF0
ENDCHAR
STARTCHAR LATIN SMALL LETTER L WITH STROKE
ENCODING 322
SWIDTH 784 0
DWIDTH 12 0
BBX 6 14 2 0
BITMAP
F000
F000
3000
3000
3C00
3C00
F000
F000
3000
3000
3000
3000
FC00
FC00
ENDCHAR
STARTCHAR LATIN CAPITAL LETTER N WITH ACUTE
ENCODING 323
SWIDTH 784 0
DWIDTH 12 0
BBX 10 16 0 0
BITMAP
0300
0300
0C00
0C00
C0C0
C0C0
F0C0
F0C0
CCC0
CCC0
C3C0
C3C0
C0C0
C0C0
C0C0
C0C0
ENDCHAR
STARTCHAR LATIN SMALL LETTER N WITH ACUTE
ENCODING 324
SWIDTH 784 0
DWIDTH 12 0
BBX 10 16 0 0
BITMAP
0300
0300
0C00
0C00
0000
0000
CF00
CF00
F0C0
F0C0
C0C0
C0C0
C0C0
C0C0
C0C0
C0C0
ENDCHAR
STARTCHAR LATIN CAPITAL LETTER N WITH CEDILLA
ENCODING 325
SWIDTH 784 0
DWIDTH 12 0
BBX 10 18 0 -4
BITMAP
C0C0
C0C0
C0C0
C0C0
F0C0
F0C0
CCC0
CCC0
C3C0
C3C0
C0C0
C0C0
C0C0
C0C0
0C00
0C00
3000
3000
ENDCHAR
STARTCHAR LATIN SMALL LETTER N WITH CEDILLA
ENCODING 326
SWIDTH 784 0
DWIDTH 12 0
BBX 10 14 0 -4
BITMAP
CF00
CF00
F0C0
F0C0
C0C0
C0C0
C0C0
C0C0
C0C0
C0C0
0C00
0C00
3000
3000
ENDCHAR
STARTCHAR LATIN CAPITAL LETTER N WITH CARON
ENCODING 327
SWIDTH 784 0
DWIDTH 12 0
BBX 10 16 0 0
BITMAP
3300
3300
0C00
0C00
C0C0
C0C0
F0C0
F0C0
CCC0
CCC0
C3C0
C3C0
C0C0
C0C0
C0C0
C0C0
ENDCHAR
STARTCHAR LATIN SMALL LETTER N WITH CARON
ENCODING 328
SWIDTH 784 0
DWIDTH 12 0
BBX 10 16 0 0
BITMAP
3300
3300
0C00
0C00
0000
0000
CF00
CF00
F0C0
F0C0
C0C0
C0C0
C0C0
C0C0
C0C0
C0C0
ENDCHAR
STARTCHAR LATIN SMALL LETTER N PRECEDED BY APOSTROPHE
ENCODING 329
SWIDTH 784 0
DWIDTH 12 0
BBX 12 16 0 0
BITMAP
F000
F000
3000
3000
C000
C000
0CC0
0CC0
0F30
0F30
0C30
0C30
0C30
0C30
0C30
0C30
ENDCHAR
STARTCHAR LATIN CAPITAL LETTER ENG
ENCODING 330
SWIDTH 784 0
DWIDTH 12 0
BBX 10 18 0 -4
BITMAP
C0C0
C0C0
C0C0
C0C0
F0C0
F0C0
CCC0
CCC0
C3C0
C3C0
C0C0
C0C0
C0C0
C0C0
00C0
00C0
0F00
0F00
ENDCHAR
STARTCHAR LATIN SMALL LETTER ENG
ENCODING 331
SWIDTH 784 0
DWIDTH 12 0
BBX 10 14 0 -4
BITMAP
CF00
CF00
F0C0
F0C0
C0C0
C0C0
C0C0
C0C0
C0C0
C0C0
00C0
00C0
0F00
0F00
ENDCHAR
STARTCHAR LATIN CAPITAL LETTER O WITH MACRON
ENCODING 332
SWIDTH 784 0
DWIDTH 12 0
BBX 10 16 0 0
BITMAP
3F00
3F00
0000
0000
3F00
3F00
C0C0
C0C0
C0C0
C0C0
C0C0
C0C0
C0C0
C0C0
3F00
3F00
ENDCHAR
STARTCHAR LATIN SMALL LETTER O WITH MACRON
ENCODING 333
SWIDTH 784 0
DWIDTH 12 0
BBX 10 14 0 0
BITMAP
3F00
3F00
0000
0000
3F00
3F00
C0C0
C0C0
C0C0
C0C0
C0C0
C0C0
3F00
3F00
ENDCHAR
STARTCHAR LATIN CAPITAL LETTER O WITH BREVE
ENCODING 334
SWIDTH 784 0
DWIDTH 12 0
BBX 10 16 0 0
BITMAP
C0C0
C0C0
3F00
3F00
3F00
3F00
C0C0
C0C0
C0C0
C0C0
C0C0
C0C0
C0C0
C0C0
3F00
3F00
ENDCHAR
STARTCHAR LATIN SMALL LETTER O WITH BREVE
ENCODING 335
SWIDTH 784 0
DWIDTH 12 0
BBX 10 16 0 0
BITMAP
C0C0
C0C0
3F00
3F00
0000
0000
3F00
3F00
C0C0
C0C0
C0C0
C0C0
C0C0
C0C0
3F00
3F00
ENDCHAR
STARTCHAR LATIN CAPITAL LETTER O WITH DOUBLE ACUTE
ENCODING 336
SWIDTH 784 0
DWIDTH 12 0
BBX 10 16 0 0
BITMAP
30C0
30C0
C300
C300
3F00
3F00
C0C0
C0C0
C0C0
C0C0
C0C0
C0C0
C0C0
C0C0
3F00
3F00
ENDCHAR
STARTCHAR LATIN SMALL LETTER O WITH DOUBLE ACUTE
ENCODING 337
SWIDTH 784 0
DWIDTH 12 0
BBX 10 16 0 0
BITMAP
30C0
30C0
C300
C300
0000
0000
3F00
3F00
C0C0
C0C0
C0C0
C0C0
C0C0
C0C0
3F00
3F00
ENDCHAR
STARTCHAR LATIN CAPITAL LIGATURE OE
ENCODING 338
SWIDTH 784 0
DWIDTH 12 0
BBX 10 14 0 0
BITMAP
3FC0
3FC0
CC00
CC00
CC00
CC00
CF00
CF00
CC00
CC00
CC00
CC00
3FC0
3FC0
ENDCHAR
STARTCHAR LATIN SMALL LIGATURE OE
ENCODING 339
SWIDTH 784 0
DWIDTH 12 0
BBX 10 10 0 0
BITMAP
3F00
3F00
CCC0
CCC0
CF00
CF00
CC00
CC00
3FC0
3FC0
ENDCHAR
STARTCHAR LATIN CAPITAL LETTER R WITH ACUTE
ENCODING 340
SWIDTH 784 0
DWIDTH 12 0
BBX 10 16 0 0
BITMAP
0300
0300
0C00
0C00
FF00
FF00
C0C0
C0C0
FF00
FF00
CC00
CC00
C300
C300
C0C0
C0C0
ENDCHAR
STARTCHAR LATIN SMALL LETTER R WITH ACUTE
ENCODING 341
SWIDTH 784 0
DWIDTH 12 0
BBX 10 16 0 0
BITMAP
0300
0300
0C00
0C00
0000
0000
CF00
CF00
F0C0
F0C0
C000
C000
C000
C000
C000
C000
ENDCHAR
STARTCHAR LATIN CAPITAL LETTER R WITH CEDILLA
ENCODING 342
SWIDTH 784 0
DWIDTH 12 0
BBX 12 18 0 -4
BITMAP
3FC0
3FC0
3030
3030
3030
3030
3FC0
3FC0
3300
3300
30C0
30C0
3030
3030
0C00
0C00
F000
F000
ENDCHAR
STARTCHAR LATIN SMALL LETTER R WITH CEDILLA
ENCODING 343
SWIDTH 784 0
DWIDTH 12 0
BBX 12 14 0 -4
BITMAP
33C0
33C0
3C30
3C30
3000
3000
3000
3000
3000
3000
0C00
0C00
F000
F000
ENDCHAR
STARTCHAR LATIN CAPITAL LETTER R WITH CARON
ENCODING 344
SWIDTH 784 0
DWIDTH 12 0
BBX 10 16 0 0
BITMAP
3300
3300
0C00
0C00
FF00
FF00
C0C0
C0C0
FF00
FF00
CC00
CC00
C300
C300
C0C0
C0C0
ENDCHAR
STARTCHAR LATIN SMALL LETTER R WITH CARON
ENCODING 345
SWIDTH 784 0
DWIDTH 12 0
BBX 10 16 0 0
BITMAP
3300
3300
0C00
0C00
0000
0000
CF00
CF00
F0C0
F0C0
C000
C000
C000
C000
C000
C000
ENDCHAR
STARTCHAR LATIN CAPITAL LETTER S WITH ACUTE
ENCODING 346
SWIDTH 784 0
DWIDTH 12 0
BBX 10 16 0 0
BITMAP
0300
0300
0C00
0C00
3FC0
3FC0
C000
C000
3F00
3F00
00C0
00C0
C0C0
C0C0
3F00
3F00
ENDCHAR
STARTCHAR LATIN SMALL LETTER S WITH ACUTE
ENCODING 347
SWIDTH 784 0
DWIDTH 12 0
BBX 10 16 0 0
BITMAP
0300
0300
0C00
0C00
0000
0000
3F00
3F00
C000
C000
3F00
3F00
00C0
00C0
FF00
FF00
ENDCHAR
STARTCHAR LATIN CAPITAL LETTER S WITH CIRCUMFLEX
ENCODING 348
SWIDTH 784 0
DWIDTH 12 0
BBX 10 16 0 0
BITMAP
0C00
0C00
3300
3300
3FC0
3FC0
C000
C000
3F00
3F00
00C0
00C0
C0C0
C0C0
3F00
3F00
ENDCHAR
STARTCHAR LATIN SMALL LETTER S WITH CIRCUMFLEX
ENCODING 349
SWIDTH 784 0
DWIDTH 12 0
BBX 10 16 0 0
BITMAP
0C00
0C00
3300
3300
0000
0000
3F00
3F00
C000
C000
3F00
3F00
00C0
00C0
FF00
FF00
ENDCHAR
STARTCHAR LATIN CAPITAL LETTER S WITH CEDILLA
ENCODING 350
SWIDTH 784 0
DWIDTH 12 0
BBX 10 18 0 -4
BITMAP
3F00
3F00
C0C0
C0C0
C000
C000
3F00
3F00
00C0
00C0
C0C0
C0C0
3F00
3F00
0C00
0C00
3000
3000
ENDCHAR
STARTCHAR LATIN SMALL LETTER S WITH CEDILLA
ENCODING 351
SWIDTH 784 0
DWIDTH 12 0
BBX 10 14 0 -4
BITMAP
3F00
3F00
C000
C000
3F00
3F00
00C0
00C0
FF00
FF00
0C00
0C00
3000
3000
ENDCHAR
STARTCHAR LATIN CAPITAL LETTER S WITH CARON
ENCODING 352
SWIDTH 784 0
DWIDTH 12 0
BBX 10 16 0 0
BITMAP
3300
3300
0C00
0C00
3F00
3F00
C000
C000
3F00
3F00
00C0
00C0
C0C0
C0C0
3F00
3F00
ENDCHAR
STARTCHAR LATIN SMALL LETTER S WITH CARON
ENCODING 353
SWIDTH 784 0
DWIDTH 12 0
BBX 10 16 0 0
BITMAP
3300
3300
0C00
0C00
0000
0000
3F00
3F00
C000
C000
3F00
3F00
00C0
00C0
FF00
FF00
ENDCHAR
STARTCHAR LATIN CAPITAL LETTER T WITH CEDILLA
ENCODING 354
SWIDTH 784 0
DWIDTH 12 0
BBX 10 18 0 -4
BITMAP
FFC0
FFC0
0C00
0C00
0C00
0C00
0C00
0C00
0C00
0C00
0C00
0C00
0C00
0C00
0300
0300
3C00
3C00
ENDCHAR
STARTCHAR LATIN SMALL LETTER T WITH CEDILLA
ENCODING 355
SWIDTH 784 0
DWIDTH 12 0
BBX 10 18 0 -4
BITMAP
3000
3000
3000
3000
FF00
FF00
3000
3000
3000
3000
30C0
30C0
0F00
0F00
0300
0300
3C00
3C00
ENDCHAR
STARTCHAR LATIN CAPITAL LETTER T WITH CARON
ENCODING 356
SWIDTH 784 0
DWIDTH 12 0
BBX 10 16 0 0
BITMAP
3300
3300
0C00
0C00
FFC0
FFC0
0C00
0C00
0C00
0C00
0C00
0C00
0C00
0C00
0C00
0C00
ENDCHAR
STARTCHAR LATIN SMALL LETTER T WITH CARON
ENCODING 357
SWIDTH 784 0
DWIDTH 12 0
BBX 10 16 0 0
BITMAP
CC00
CC00
3000
3000
3000
3000
FF00
FF00
3000
3000
3000
3000
30C0
30C0
0F00
0F00
ENDCHAR
STARTCHAR LATIN CAPITAL LETTER T WITH STROKE
ENCODING 358
SWIDTH 784 0
DWIDTH 12 0
BBX 10 14 0 0
BITMAP
FFC0
FFC0
0C00
0C00
0C00
0C00
3F00
3F00
0C00
0C00
0C00
0C00
0C00
0C00
ENDCHAR
STARTCHAR LATIN SMALL LETTER T WITH STROKE
ENCODING 359
SWIDTH 784 0
DWIDTH 12 0
BBX 10 14 0 0
BITMAP
3000
3000
FF00
FF00
3000
3000
FF00
FF00
3000
3000
30C0
30C0
0F00
0F00
ENDCHAR
STARTCHAR LATIN CAPITAL LETTER U WITH TILDE
ENCODING 360
SWIDTH 784 0
DWIDTH 12 0
BBX 10 16 0 0
BITMAP
0CC0
0CC0
3300
3300
0000
0000
C0C0
C0C0
C0C0
C0C0
C0C0
C0C0
C0C0
C0C0
3F00
3F00
ENDCHAR
STARTCHAR LATIN SMALL LETTER U WITH TILDE
ENCODING 361
SWIDTH 784 0
DWIDTH 12 0
BBX 10 16 0 0
BITMAP
0CC0
0CC0
3300
3300
0000
0000
C0C0
C0C0
C0C0
C0C0
C0C0
C0C0
C3C0
C3C0
3CC0
3CC0
ENDCHAR
STARTCHAR LATIN CAPITAL LETTER U WITH MACRON
ENCODING 362
SWIDTH 784 0
DWIDTH 12 0
BBX 10 16 0 0
BITMAP
3F00
3F00
0000
0000
C0C0
C0C0
C0C0
C0C0
C0C0
C0C0
C0C0
C0C0
C0C0
C0C0
3F00
3F00
ENDCHAR
STARTCHAR LATIN SMALL LETTER U WITH MACRON
ENCODING 363
SWIDTH 784 0
DWIDTH 12 0
BBX 10 14 0 0
BITMAP
3F00
3F00
0000
0000
C0C0
C0C0
C0C0
C0C0
C0C0
C0C0
C3C0
C3C0
3CC0
3CC0
ENDCHAR
STARTCHAR LATIN CAPITAL LETTER U WITH BREVE
ENCODING 364
SWIDTH 784 0
DWIDTH 12 0
BBX 10 16 0 0
BITMAP
C0C0
C0C0
3F00
3F00
0000
0000
C0C0
C0C0
C0C0
C0C0
C0C0
C0C0
C0C0
C0C0
3F00
3F00
ENDCHAR
STARTCHAR LATIN SMALL LETTER U WITH BREVE
ENCODING 365
SWIDTH 784 0
DWIDTH 12 0
BBX 10 16 0 0
BITMAP
C0C0
C0C0
3F00
3F00
0000
0000
C0C0
C0C0
C0C0
C0C0
C0C0
C0C0
C3C0
C3C0
3CC0
3CC0
ENDCHAR
STARTCHAR LATIN CAPITAL LETTER U WITH RING ABOVE
ENCODING 366
SWIDTH 784 0
DWIDTH 12 0
BBX 10 16 0 0
BITMAP
0C00
0C00
3300
3300
CCC0
CCC0
C0C0
C0C0
C0C0
C0C0
C0C0
C0C0
C0C0
C0C0
3F00
3F00
ENDCHAR
STARTCHAR LATIN SMALL LETTER U WITH RING ABOVE
ENCODING 367
SWIDTH 784 0
DWIDTH 12 0
BBX 10 16 0 0
BITMAP
0C00
0C00
3300
3300
0C00
0C00
C0C0
C0C0
C0C0
C0C0
C0C0
C0C0
C3C0
C3C0
3CC0
3CC0
ENDCHAR
STARTCHAR LATIN CAPITAL LETTER U WITH DOUBLE ACUTE
ENCODING 368
SWIDTH 784 0
DWIDTH 12 0
BBX 10 16 0 0
BITMAP
30C0
30C0
C300
C300
0000
0000
C0C0
C0C0
C0C0
C0C0
C0C0
C0C0
C0C0
C0C0
3F00
3F00
ENDCHAR
STARTCHAR LATIN SMALL LETTER U WITH DOUBLE ACUTE
ENCODING 369
SWIDTH 784 0
DWIDTH 12 0
BBX 10 16 0 0
BITMAP
30C0
30C0
C300
C300
0000
0000
C0C0
C0C0
C0C0
C0C0
C0C0
C0C0
C3C0
C3C0
3CC0
3CC0
ENDCHAR
STARTCHAR LATIN CAPITAL LETTER U WITH OGONEK
ENCODING 370
SWIDTH 784 0
DWIDTH 12 0
BBX 10 18 0 -4
BITMAP
C0C0
C0C0
C0C0
C0C0
C0C0
C0C0
C0C0
C0C0
C0C0
C0C0
C0C0
C0C0
3F00
3F00
0C00
0C00
0F00
0F00
ENDCHAR
STARTCHAR LATIN SMALL LETTER U WITH OGONEK
ENCODING 371
SWIDTH 784 0
DWIDTH 12 0
BBX 10 14 0 -4
BITMAP
C0C0
C0C0
C0C0
C0C0
C0C0
C0C0
C0C0
C0C0
3F00
3F00
0300
0300
03C0
03C0
ENDCHAR
STARTCHAR LATIN CAPITAL LETTER W WITH CIRCUMFLEX
ENCODING 372
SWIDTH 784 0
DWIDTH 12 0
BBX 10 16 0 0
BITMAP
0C00
0C00
3300
3300
0000
0000
C0C0
C0C0
CCC0
CCC0
CCC0
CCC0
F3C0
F3C0
C0C0
C0C0
ENDCHAR
STARTCHAR LATIN SMALL LETTER W WITH CIRCUMFLEX
ENCODING 373
SWIDTH 784 0
DWIDTH 12 0
BBX 10 16 0 0
BITMAP
0C00
0C00
3300
3300
0000
0000
C0C0
C0C0
C0C0
C0C0
CCC0
CCC0
CCC0
CCC0
3300
3300
ENDCHAR
STARTCHAR LATIN CAPITAL LETTER Y WITH CIRCUMFLEX
ENCODING 374
SWIDTH 784 0
DWIDTH 12 0
BBX 10 16 0 0
BITMAP
0C00
0C00
3300
3300
0000
0000
C0C0
C0C0
3300
3300
0C00
0C00
0C00
0C00
0C00
0C00
ENDCHAR
STARTCHAR LATIN SMALL LETTER Y WITH CIRCUMFLEX
ENCODING 375
SWIDTH 784 0
DWIDTH 12 0
BBX 12 20 0 -4
BITMAP
0C00
0C00
3300
3300
0000
0000
C0C0
C0C0
C0C0
C0C0
C3C0
C3C0
3CC0
3CC0
00C0
00C0
C0C0
C0C0
3F00
3F00
ENDCHAR
STARTCHAR LATIN CAPITAL LETTER Y WITH DIAERESIS
ENCODING 376
SWIDTH 784 0
DWIDTH 12 0
BBX 10 16 0 0
BITMAP
3300
3300
0000
0000
C0C0
C0C0
3300
3300
0C00
0C00
0C00
0C00
0C00
0C00
0C00
0C00
ENDCHAR
STARTCHAR LATIN CAPITAL LETTER Z WITH ACUTE
ENCODING 377
SWIDTH 784 0
DWIDTH 12 0
BBX 10 16 0 0
BITMAP
0300
0300
0C00
0C00
FFC0
FFC0
0300
0300
0C00
0C00
3000
3000
C000
C000
FFC0
FFC0
ENDCHAR
STARTCHAR LATIN SMALL LETTER Z WITH ACUTE
ENCODING 378
SWIDTH 784 0
DWIDTH 12 0
BBX 10 16 0 0
BITMAP
0300
0300
0C00
0C00
0000
0000
FFC0
FFC0
0300
0300
0C00
0C00
3000
3000
FFC0
FFC0
ENDCHAR
STARTCHAR LATIN CAPITAL LETTER Z WITH DOT ABOVE
ENCODING 379
SWIDTH 784 0
DWIDTH 12 0
BBX 10 16 0 0
BITMAP
0C00
0C00
0000
0000
FFC0
FFC0
0300
0300
0C00
0C00
3000
3000
C000
C000
FFC0
FFC0
ENDCHAR
STARTCHAR LATIN SMALL LETTER Z WITH DOT ABOVE
ENCODING 380
SWIDTH 784 0
DWIDTH 12 0
BBX 10 14 0 0
BITMAP
0C00
0C00
0000
0000
FFC0
FFC0
0300
0300
0C00
0C00
3000
3000
FFC0
FFC0
ENDCHAR
STARTCHAR LATIN CAPITAL LETTER Z WITH CARON
ENCODING 381
SWIDTH 784 0
DWIDTH 12 0
BBX 10 16 0 0
BITMAP
3300
3300
0C00
0C00
FFC0
FFC0
0300
0300
0C00
0C00
3000
3000
C000
C000
FFC0
FFC0
ENDCHAR
STARTCHAR LATIN SMALL LETTER Z WITH CARON
ENCODING 382
SWIDTH 784 0
DWIDTH 12 0
BBX 10 16 0 0
BITMAP
3300
3300
0C00
0C00
0000
0000
FFC0
FFC0
0300
0300
0C00
0C00
3000
3000
FFC0
FFC0
ENDCHAR
STARTCHAR LATIN SMALL LETTER LONG S
ENCODING 383
SWIDTH 784 0
DWIDTH 12 0
BBX 10 14 0 0
BITMAP
0F00
0F00
30C0
30C0
3000
3000
F000
F000
3000
3000
3000
3000
3000
3000
ENDCHAR
STARTCHAR LATIN CAPITAL LETTER SCHWA
ENCODING 399
SWIDTH 784 0
DWIDTH 12 0
BBX 10 14 0 0
BITMAP
3F00
3F00
C0C0
C0C0
00C0
00C0
FFC0
FFC0
C0C0
C0C0
C0C0
C0C0
3F00
3F00
ENDCHAR
STARTCHAR LATIN SMALL LETTER F WITH HOOK
ENCODING 402
SWIDTH 784 0
DWIDTH 12 0
BBX 10 16 0 -2
BITMAP
0300
0300
0CC0
0CC0
0C00
0C00
3F00
3F00
0C00
0C00
0C00
0C00
CC00
CC00
3000
3000
ENDCHAR
STARTCHAR LATIN CAPITAL LETTER O WITH HORN
ENCODING 416
SWIDTH 784 0
DWIDTH 12 0
BBX 12 14 0 0
BITMAP
3C30
3C30
C330
C330
C3C0
C3C0
C300
C300
C300
C300
C300
C300
3C00
3C00
ENDCHAR
STARTCHAR LATIN SMALL LETTER O WITH HORN
ENCODING 417
SWIDTH 784 0
DWIDTH 12 0
BBX 12 10 0 0
BITMAP
3C30
3C30
C3C0
C3C0
C300
C300
C300
C300
3C00
3C00
ENDCHAR
STARTCHAR LATIN CAPITAL LETTER U WITH HORN
ENCODING 431
SWIDTH 784 0
DWIDTH 12 0
BBX 12 14 0 0
BITMAP
C330
C330
C330
C330
C3C0
C3C0
C300
C300
C300
C300
C300
C300
3C00
3C00
ENDCHAR
STARTCHAR LATIN SMALL LETTER U WITH HORN
ENCODING 432
SWIDTH 784 0
DWIDTH 12 0
BBX 12 10 0 0
BITMAP
C330
C330
C3C0
C3C0
C300
C300
CF00
CF00
3300
3300
ENDCHAR
STARTCHAR LATIN CAPITAL LETTER Z WITH STROKE
ENCODING 437
SWIDTH 784 0
DWIDTH 12 0
BBX 10 14 0 0
BITMAP
FFC0
FFC0
00C0
00C0
0300
0300
FFC0
FFC0
3000
3000
C000
C000
FFC0
FFC0
ENDCHAR
STARTCHAR LATIN SMALL LETTER Z WITH STROKE
ENCODING 438
SWIDTH 784 0
DWIDTH 12 0
BBX 10 10 0 0
BITMAP
FFC0
FFC0
0300
0300
FFC0
FFC0
3000
3000
FFC0
FFC0
ENDCHAR
STARTCHAR LATIN CAPITAL LETTER O WITH CARON
ENCODING 465
SWIDTH 784 0
DWIDTH 12 0
BBX 10 16 0 0
BITMAP
3300
3300
0C00
0C00
3F00
3F00
C0C0
C0C0
C0C0
C0C0
C0C0
C0C0
C0C0
C0C0
3F00
3F00
ENDCHAR
STARTCHAR LATIN SMALL LETTER O WITH CARON
ENCODING 466
SWIDTH 784 0
DWIDTH 12 0
BBX 10 16 0 0
BITMAP
3300
3300
0C00
0C00
0000
0000
3F00
3F00
C0C0
C0C0
C0C0
C0C0
C0C0
C0C0
3F00
3F00
ENDCHAR
STARTCHAR LATIN CAPITAL LETTER G WITH CARON
ENCODING 486
SWIDTH 784 0
DWIDTH 12 0
BBX 10 16 0 0
BITMAP
3300
3300
0C00
0C00
3F00
3F00
C0C0
C0C0
C000
C000
C3C0
C3C0
C0C0
C0C0
3F00
3F00
ENDCHAR
STARTCHAR LATIN SMALL LETTER G WITH CARON
ENCODING 487
SWIDTH 784 0
DWIDTH 12 0
BBX 12 20 0 -4
BITMAP
3300
3300
0C00
0C00
0000
0000
3CC0
3CC0
C300
C300
3C00
3C00
C000
C000
3F00
3F00
C0C0
C0C0
3F00
3F00
ENDCHAR
STARTCHAR LATIN CAPITAL LETTER A WITH RING ABOVE AND ACUTE
ENCODING 506
SWIDTH 784 0
DWIDTH 12 0
BBX 10 16 0 0
BITMAP
0300
0300
0C00
0C00
0C00
0C00
3300
3300
3F00
3F00
C0C0
C0C0
FFC0
FFC0
C0C0
C0C0
ENDCHAR
STARTCHAR LATIN SMALL LETTER A WITH RING ABOVE AND ACUTE
ENCODING 507
SWIDTH 784 0
DWIDTH 12 0
BBX 10 16 0 0
BITMAP
0300
0300
0C00
0C00
0C00
0C00
3300
3300
0C00
0C00
3FC0
3FC0
C0C0
C0C0
3FC0
3FC0
ENDCHAR
STARTCHAR LATIN CAPITAL LETTER AE WITH ACUTE
ENCODING 508
SWIDTH 784 0
DWIDTH 12 0
BBX 12 16 0 0
BITMAP
00C0
00C0
0300
0300
3FF0
3FF0
C300
C300
C3F0
C3F0
FF00
FF00
C300
C300
C3F0
C3F0
ENDCHAR
STARTCHAR LATIN SMALL LETTER AE WITH ACUTE
ENCODING 509
SWIDTH 784 0
DWIDTH 12 0
BBX 12 16 0 0
BITMAP
00C0
00C0
0300
0300
0000
0000
3FC0
3FC0
0330
0330
3FF0
3FF0
C300
C300
3FF0
3FF0
ENDCHAR
STARTCHAR LATIN CAPITAL LETTER O WITH STROKE AND ACUTE
ENCODING 510
SWIDTH 784 0
DWIDTH 12 0
BBX 10 16 0 0
BITMAP
0300
0300
0C00
0C00
3F00
3F00
C3C0
C3C0
CCC0
CCC0
CCC0
CCC0
F0C0
F0C0
3F00
3F00
ENDCHAR
STARTCHAR LATIN SMALL LETTER O WITH STROKE AND ACUTE
ENCODING 511
SWIDTH 784 0
DWIDTH 12 0
BBX 10 16 0 0
BITMAP
0300
0300
0C00
0C00
0000
0000
3FC0
3FC0
C3C0
C3C0
CCC0
CCC0
F0C0
F0C0
FF00
FF00
ENDCHAR
STARTCHAR LATIN CAPITAL LETTER S WITH COMMA BELOW
ENCODING 536
SWIDTH 784 0
DWIDTH 12 0
BBX 10 18 0 -4
BITMAP
3F00
3F00
C0C0
C0C0
C000
C000
3F00
3F00
00C0
00C0
C0C0
C0C0
3F00
3F00
0C00
0C00
3000
3000
ENDCHAR
STARTCHAR LATIN SMALL LETTER S WITH COMMA BELOW
ENCODING 537
SWIDTH 784 0
DWIDTH 12 0
BBX 10 14 0 -4
BITMAP
3F00
3F00
C000
C000
3F00
3F00
00C0
00C0
FF00
FF00
0C00
0C00
3000
3000
ENDCHAR
STARTCHAR LATIN CAPITAL LETTER T WITH COMMA BELOW
ENCODING 538
SWIDTH 784 0
DWIDTH 12 0
BBX 10 18 0 -4
BITMAP
FFC0
FFC0
0C00
0C00
0C00
0C00
0C00
0C00
0C00
0C00
0C00
0C00
0C00
0C00
0300
0300
0C00
0C00
ENDCHAR
STARTCHAR LATIN SMALL LETTER T WITH COMMA BELOW
ENCODING 539
SWIDTH 784 0
DWIDTH 12 0
BBX 10 18 0 -4
BITMAP
3000
3000
3000
3000
FF00
FF00
3000
3000
3000
3000
30C0
30C0
0F00
0F00
0300
0300
0C00
0C00
ENDCHAR
STARTCHAR LATIN SMALL LETTER SCHWA
ENCODING 601
SWIDTH 784 0
DWIDTH 12 0
BBX 10 10 0 0
BITMAP
3F00
3F00
00C0
00C0
FFC0
FFC0
C0C0
C0C0
3F00
3F00
ENDCHAR
STARTCHAR MODIFIER LETTER APOSTROPHE
ENCODING 700
SWIDTH 784 0
DWIDTH 12 0
BBX 4 6 4 8
BITMAP
F000
F000
3000
3000
C000
C000
ENDCHAR
STARTCHAR MODIFIER LETTER REVERSED COMMA
ENCODING 701
SWIDTH 784 0
DWIDTH 12 0
BBX 4 6 4 8
BITMAP
F000
F000
C000
C000
3000
3000
ENDCHAR
STARTCHAR MODIFIER LETTER CIRCUMFLEX ACCENT
ENCODING 710
SWIDTH 784 0
DWIDTH 12 0
BBX 6 4 2 12
BITMAP
3000
3000
CC00
CC00
ENDCHAR
STARTCHAR CARON
ENCODING 711
SWIDTH 784 0
DWIDTH 12 0
BBX 6 4 2 12
BITMAP
CC00
CC00
3000
3000
ENDCHAR
STARTCHAR MODIFIER LETTER MACRON
ENCODING 713
SWIDTH 784 0
DWIDTH 12 0
BBX 6 2 2 14
BITMAP
FC00
FC00
ENDCHAR
STARTCHAR MODIFIER LETTER PLUS SIGN
ENCODING 726
SWIDTH 784 0
DWIDTH 12 0
BBX 6 6 2 10
BITMAP
3000
3000
FC00
FC00
3000
3000
ENDCHAR
STARTCHAR BREVE
ENCODING 728
SWIDTH 784 0
DWIDTH 12 0
BBX 10 4 0 12
BITMAP
C0C0
C0C0
3F00
3F00
ENDCHAR
STARTCHAR DOT ABOVE
ENCODING 729
SWIDTH 784 0
DWIDTH 12 0
BBX 2 2 4 14
BITMAP
C000
C000
ENDCHAR
STARTCHAR RING ABOVE
ENCODING 730
SWIDTH 784 0
DWIDTH 12 0
BBX 6 6 2 10
BITMAP
3000
3000
CC00
CC00
3000
3000
ENDCHAR
STARTCHAR OGONEK
ENCODING 731
SWIDTH 784 0
DWIDTH 12 0
BBX 4 4 4 -4
BITMAP
C000
C000
F000
F000
ENDCHAR
STARTCHAR SMALL TILDE
ENCODING 732
SWIDTH 784 0
DWIDTH 12 0
BBX 8 4 2 12
BITMAP
3300
3300
CC00
CC00
ENDCHAR
STARTCHAR DOUBLE ACUTE ACCENT
ENCODING 733
SWIDTH 784 0
DWIDTH 12 0
BBX 10 4 0 12
BITMAP
30C0
30C0
C300
C300
ENDCHAR
STARTCHAR COMBINING GRAVE ACCENT
ENCODING 768
SWIDTH 784 0
DWIDTH 12 0
BBX 4 4 4 12
BITMAP
C000
C000
3000
3000
ENDCHAR
STARTCHAR COMBINING ACUTE ACCENT
ENCODING 769
SWIDTH 784 0
DWIDTH 12 0
BBX 4 4 4 12
BITMAP
3000
3000
C000
C000
ENDCHAR
STARTCHAR COMBINING CIRCUMFLEX ACCENT
ENCODING 770
SWIDTH 784 0
DWIDTH 12 0
BBX 6 4 2 12
BITMAP
3000
3000
CC00
CC00
ENDCHAR
STARTCHAR COMBINING TILDE
ENCODING 771
SWIDTH 784 0
DWIDTH 12 0
BBX 8 4 2 12
BITMAP
3300
3300
CC00
CC00
ENDCHAR
STARTCHAR COMBINING MACRON
ENCODING 772
SWIDTH 784 0
DWIDTH 12 0
BBX 6 2 2 14
BITMAP
FC00
FC00
ENDCHAR
STARTCHAR COMBINING OVERLINE
ENCODING 773
SWIDTH 784 0
DWIDTH 12 0
BBX 10 2 0 14
BITMAP
FFC0
FFC0
ENDCHAR
STARTCHAR COMBINING BREVE
ENCODING 774
SWIDTH 784 0
DWIDTH 12 0
BBX 10 4 0 12
BITMAP
C0C0
C0C0
3F00
3F00
ENDCHAR
STARTCHAR COMBINING DOT ABOVE
ENCODING 775
SWIDTH 784 0
DWIDTH 12 0
BBX 2 2 4 14
BITMAP
C000
C000
ENDCHAR
STARTCHAR COMBINING DIAERESIS
ENCODING 776
SWIDTH 784 0
DWIDTH 12 0
BBX 6 2 2 14
BITMAP
CC00
CC00
ENDCHAR
STARTCHAR COMBINING HOOK ABOVE
ENCODING 777
SWIDTH 784 0
DWIDTH 12 0
BBX 6 6 2 10
BITMAP
F000
F000
0C00
0C00
3000
3000
ENDCHAR
STARTCHAR COMBINING RING ABOVE
ENCODING 778
SWIDTH 784 0
DWIDTH 12 0
BBX 6 6 2 10
BITMAP
3000
3000
CC00
CC00
3000
3000
ENDCHAR
STARTCHAR COMBINING DOUBLE ACUTE ACCENT
ENCODING 779
SWIDTH 784 0
DWIDTH 12 0
BBX 10 4 0 12
BITMAP
30C0
30C0
C300
C300
ENDCHAR
STARTCHAR COMBINING CARON
ENCODING 780
SWIDTH 784 0
DWIDTH 12 0
BBX 6 4 2 12
BITMAP
CC00
CC00
3000
3000
ENDCHAR
STARTCHAR COMBINING VERTICAL LINE ABOVE
ENCODING 781
SWIDTH 784 0
DWIDTH 12 0
BBX 2 4 4 12
BITMAP
C000
C000
C000
C000
ENDCHAR
STARTCHAR COMBINING DOUBLE VERTICAL LINE ABOVE
ENCODING 782
SWIDTH 784 0
DWIDTH 12 0
BBX 6 4 2 12
BITMAP
CC00
CC00
CC00
CC00
ENDCHAR
STARTCHAR COMBINING DOUBLE GRAVE ACCENT
ENCODING 783
SWIDTH 784 0
DWIDTH 12 0
BBX 10 4 0 12
BITMAP
C300
C300
30C0
30C0
ENDCHAR
STARTCHAR COMBINING CANDRABINDU
ENCODING 784
SWIDTH 784 0
DWIDTH 12 0
BBX 10 4 0 12
BITMAP
CCC0
CCC0
3F00
3F00
ENDCHAR
STARTCHAR COMBINING INVERTED BREVE
ENCODING 785
SWIDTH 784 0
DWIDTH 12 0
BBX 10 4 0 12
BITMAP
3F00
3F00
C0C0
C0C0
ENDCHAR
STARTCHAR COMBINING DOT BELOW
ENCODING 803
SWIDTH 784 0
DWIDTH 12 0
BBX 2 2 4 -4
BITMAP
C000
C000
ENDCHAR
STARTCHAR COMBINING DIAERESIS BELOW
ENCODING 804
SWIDTH 784 0
DWIDTH 12 0
BBX 6 2 2 -4
BITMAP
CC00
CC00
ENDCHAR
STARTCHAR COMBINING LONG SOLIDUS OVERLAY
ENCODING 824
SWIDTH 784 0
DWIDTH 12 0
BBX 6 12 2 0
BITMAP
0C00
0C00
0C00
0C00
3000
3000
3000
3000
C000
C000
C000
C000
ENDCHAR
STARTCHAR COMBINING GRAVE TONE MARK
ENCODING 832
SWIDTH 784 0
DWIDTH 12 0
BBX 4 4 4 12
BITMAP
C000
C000
3000
3000
ENDCHAR
STARTCHAR COMBINING ACUTE TONE MARK
ENCODING 833
SWIDTH 784 0
DWIDTH 12 0
BBX 4 4 4 12
BITMAP
3000
3000
C000
C000
ENDCHAR
STARTCHAR GREEK NUMERAL SIGN
ENCODING 884
SWIDTH 784 0
DWIDTH 12 0
BBX 4 4 4 10
BITMAP
3000
3000
C000
C000
ENDCHAR
STARTCHAR GREEK LOWER NUMERAL SIGN
ENCODING 885
SWIDTH 784 0
DWIDTH 12 0
BBX 4 4 4 -4
BITMAP
3000
3000
C000
C000
ENDCHAR
STARTCHAR GREEK YPOGEGRAMMENI
ENCODING 890
SWIDTH 784 0
DWIDTH 12 0
BBX 4 4 4 -4
BITMAP
C000
C000
F000
F000
ENDCHAR
STARTCHAR GREEK QUESTION MARK
ENCODING 894
SWIDTH 784 0
DWIDTH 12 0
BBX 6 14 2 -2
BITMAP
3000
3000
FC00
FC00
3000
3000
0000
0000
3C00
3C00
3000
3000
C000
C000
ENDCHAR
STARTCHAR GREEK TONOS
ENCODING 900
SWIDTH 784 0
DWIDTH 12 0
BBX 4 4 4 10
BITMAP
3000
3000
C000
C000
ENDCHAR
STARTCHAR GREEK DIALYTIKA TONOS
ENCODING 901
SWIDTH 784 0
DWIDTH 12 0
BBX 10 4 0 10
BITMAP
0300
0300
CCC0
CCC0
ENDCHAR
STARTCHAR GREEK CAPITAL LETTER ALPHA WITH TONOS
ENCODING 902
SWIDTH 784 0
DWIDTH 12 0
BBX 12 14 0 0
BITMAP
33C0
33C0
CC30
CC30
0C30
0C30
0C30
0C30
0FF0
0FF0
0C30
0C30
0C30
0C30
ENDCHAR
STARTCHAR GREEK ANO TELEIA
ENCODING 903
SWIDTH 784 0
DWIDTH 12 0
BBX 2 2 4 8
BITMAP
C000
C000
ENDCHAR
STARTCHAR GREEK CAPITAL LETTER EPSILON WITH TONOS
ENCODING 904
SWIDTH 784 0
DWIDTH 12 0
BBX 12 14 0 0
BITMAP
3FF0
3FF0
CC00
CC00
0C00
0C00
0FC0
0FC0
0C00
0C00
0C00
0C00
0FF0
0FF0
ENDCHAR
STARTCHAR GREEK CAPITAL LETTER ETA WITH TONOS
ENCODING 905
SWIDTH 784 0
DWIDTH 12 0
BBX 12 14 0 0
BITMAP
3C30
3C30
CC30
CC30
0C30
0C30
0FF0
0FF0
0C30
0C30
0C30
0C30
0C30
0C30
ENDCHAR
STARTCHAR GREEK CAPITAL LETTER IOTA WITH TONOS
ENCODING 906
SWIDTH 784 0
DWIDTH 12 0
BBX 12 14 0 0
BITMAP
33F0
33F0
C0C0
C0C0
00C0
00C0
00C0
00C0
00C0
00C0
00C0
00C0
03F0
03F0
ENDCHAR
STARTCHAR GREEK CAPITAL LETTER OMICRON WITH TONOS
ENCODING 908
SWIDTH 784 0
DWIDTH 12 0
BBX 12 14 0 0
BITMAP
33C0
33C0
CC30
CC30
0C30
0C30
0C30
0C30
0C30
0C30
0C30
0C30
03C0
03C0
ENDCHAR
STARTCHAR GREEK CAPITAL LETTER UPSILON WITH TONOS
ENCODING 910
SWIDTH 784 0
DWIDTH 12 0
BBX 12 14 0 0
BITMAP
3330
3330
C330
C330
0330
0330
00C0
00C0
00C0
00C0
00C0
00C0
00C0
00C0
ENDCHAR
STARTCHAR GREEK CAPITAL LETTER OMEGA WITH TONOS
ENCODING 911
SWIDTH 784 0
DWIDTH 12 0
BBX 12 14 0 0
BITMAP
33C0
33C0
CC30
CC30
0C30
0C30
0C30
0C30
0C30
0C30
03C0
03C0
0FF0
0FF0
ENDCHAR
STARTCHAR GREEK SMALL LETTER IOTA WITH DIALYTIKA AND TONOS
ENCODING 912
SWIDTH 784 0
DWIDTH 12 0
BBX 10 16 0 0
BITMAP
0300
0300
CCC0
CCC0
0000
0000
0C00
0C00
0C00
0C00
0C00
0C00
0CC0
0CC0
0300
0300
ENDCHAR
STARTCHAR GREEK CAPITAL LETTER ALPHA
ENCODING 913
SWIDTH 784 0
DWIDTH 12 0
BBX 10 14 0 0
BITMAP
0C00
0C00
3300
3300
C0C0
C0C0
C0C0
C0C0
FFC0
FFC0
C0C0
C0C0
C0C0
C0C0
ENDCHAR
STARTCHAR GREEK CAPITAL LETTER BETA
ENCODING 914
SWIDTH 784 0
DWIDTH 12 0
BBX 10 14 0 0
BITMAP
FF00
FF00
C0C0
C0C0
C0C0
C0C0
FF00
FF00
C0C0
C0C0
C0C0
C0C0
FF00
FF00
ENDCHAR
STARTCHAR GREEK CAPITAL LETTER GAMMA
ENCODING 915
SWIDTH 784 0
DWIDTH 12 0
BBX 10 14 0 0
BITMAP
FFC0
FFC0
C000
C000
C000
C000
C000
C000
C000
C000
C000
C000
C000
C000
ENDCHAR
STARTCHAR GREEK CAPITAL LETTER DELTA
ENCODING 916
SWIDTH 784 0
DWIDTH 12 0
BBX 10 14 0 0
BITMAP
0C00
0C00
3300
3300
3300
3300
3300
3300
C0C0
C0C0
C0C0
C0C0
FFC0
FFC0
ENDCHAR
STARTCHAR GREEK CAPITAL LETTER EPSILON
ENCODING 917
SWIDTH 784 0
DWIDTH 12 0
BBX 10 14 0 0
BITMAP
FFC0
FFC0
C000
C000
C000
C000
FF00
FF00
C000
C000
C000
C000
FFC0
FFC0
ENDCHAR
STARTCHAR GREEK CAPITAL LETTER ZETA
ENCODING 918
SWIDTH 784 0
DWIDTH 12 0
BBX 10 14 0 0
BITMAP
FFC0
FFC0
00C0
00C0
0300
0300
0C00
0C00
3000
3000
C000
C000
FFC0
FFC0
ENDCHAR
STARTCHAR GREEK CAPITAL LETTER ETA
ENCODING 919
SWIDTH 784 0
DWIDTH 12 0
BBX 10 14 0 0
BITMAP
C0C0
C0C0
C0C0
C0C0
C0C0
C0C0
FFC0
FFC0
C0C0
C0C0
C0C0
C0C0
C0C0
C0C0
ENDCHAR
STARTCHAR GREEK CAPITAL LETTER THETA
ENCODING 920
SWIDTH 784 0
DWIDTH 12 0
BBX 10 14 0 0
BITMAP
3F00
3F00
C0C0
C0C0
C0C0
C0C0
FFC0
FFC0
C0C0
C0C0
C0C0
C0C0
3F00
3F00
ENDCHAR
STARTCHAR GREEK CAPITAL LETTER IOTA
ENCODING 921
SWIDTH 784 0
DWIDTH 12 0
BBX 6 14 2 0
BITMAP
FC00
FC00
3000
3000
3000
3000
3000
3000
3000
3000
3000
3000
FC00
FC00
ENDCHAR
STARTCHAR GREEK CAPITAL LETTER KAPPA
ENCODING 922
SWIDTH 784 0
DWIDTH 12 0
BBX 10 14 0 0
BITMAP
C0C0
C0C0
C300
C300
CC00
CC00
F000
F000
CC00
CC00
C300
C300
C0C0
C0C0
ENDCHAR
STARTCHAR GREEK CAPITAL LETTER LAMDA
ENCODING 923
SWIDTH 784 0
DWIDTH 12 0
BBX 10 14 0 0
BITMAP
0C00
0C00
3300
3300
3300
3300
3300
3300
C0C0
C0C0
C0C0
C0C0
C0C0
C0C0
ENDCHAR
STARTCHAR GREEK CAPITAL LETTER MU
ENCODING 924
SWIDTH 784 0
DWIDTH 12 0
BBX 10 14 0 0
BITMAP
C0C0
C0C0
C0C0
C0C0
F3C0
F3C0
CCC0
CCC0
C0C0
C0C0
C0C0
C0C0
C0C0
C0C0
ENDCHAR
STARTCHAR GREEK CAPITAL LETTER NU
ENCODING 925
SWIDTH 784 0
DWIDTH 12 0
BBX 10 14 0 0
BITMAP
C0C0
C0C0
C0C0
C0C0
F0C0
F0C0
CCC0
CCC0
C3C0
C3C0
C0C0
C0C0
C0C0
C0C0
ENDCHAR
STARTCHAR GREEK CAPITAL LETTER XI
ENCODING 926
SWIDTH 784 0
DWIDTH 12 0
BBX 10 14 0 0
BITMAP
FFC0
FFC0
0000
0000
0000
0000
3F00
3F00
0000
0000
0000
0000
FFC0
FFC0
ENDCHAR
STARTCHAR GREEK CAPITAL LETTER OMICRON
ENCODING 927
SWIDTH 784 0
DWIDTH 12 0
BBX 10 14 0 0
BITMAP
3F00
3F00
C0C0
C0C0
C0C0
C0C0
C0C0
C0C0
C0C0
C0C0
C0C0
C0C0
3F00
3F00
ENDCHAR
STARTCHAR GREEK CAPITAL LETTER PI
ENCODING 928
SWIDTH 784 0
DWIDTH 12 0
BBX 10 14 0 0
BITMAP
FFC0
FFC0
C0C0
C0C0
C0C0
C0C0
C0C0
C0C0
C0C0
C0C0
C0C0
C0C0
C0C0
C0C0
ENDCHAR
STARTCHAR GREEK CAPITAL LETTER RHO
ENCODING 929
SWIDTH 784 0
DWIDTH 12 0
BBX 10 14 0 0
BITMAP
FF00
FF00
C0C0
C0C0
C0C0
C0C0
FF00
FF00
C000
C000
C000
C000
C000
C000
ENDCHAR
STARTCHAR GREEK CAPITAL LETTER SIGMA
ENCODING 931
SWIDTH 784 0
DWIDTH 12 0
BBX 10 14 0 0
BITMAP
FFC0
FFC0
C000
C000
3000
3000
0C00
0C00
3000
3000
C000
C000
FFC0
FFC0
ENDCHAR
STARTCHAR GREEK CAPITAL LETTER TAU
ENCODING 932
SWIDTH 784 0
DWIDTH 12 0
BBX 10 14 0 0
BITMAP
FFC0
FFC0
0C00
0C00
0C00
0C00
0C00
0C00
0C00
0C00
0C00
0C00
0C00
0C00
ENDCHAR
STARTCHAR GREEK CAPITAL LETTER UPSILON
ENCODING 933
SWIDTH 784 0
DWIDTH 12 0
BBX 10 14 0 0
BITMAP
C0C0
C0C0
C0C0
C0C0
3300
3300
0C00
0C00
0C00
0C00
0C00
0C00
0C00
0C00
ENDCHAR
STARTCHAR GREEK CAPITAL LETTER PHI
ENCODING 934
SWIDTH 784 0
DWIDTH 12 0
BBX 10 14 0 0
BITMAP
0C00
0C00
3F00
3F00
CCC0
CCC0
CCC0
CCC0
CCC0
CCC0
3F00
3F00
0C00
0C00
ENDCHAR
STARTCHAR GREEK CAPITAL LETTER CHI
ENCODING 935
SWIDTH 784 0
DWIDTH 12 0
BBX 10 14 0 0
BITMAP
C0C0
C0C0
C0C0
C0C0
3300
3300
0C00
0C00
3300
3300
C0C0
C0C0
C0C0
C0C0
ENDCHAR
STARTCHAR GREEK CAPITAL LETTER PSI
ENCODING 936
SWIDTH 784 0
DWIDTH 12 0
BBX 10 14 0 0
BITMAP
CCC0
CCC0
CCC0
CCC0
CCC0
CCC0
CCC0
CCC0
3F00
3F00
0C00
0C00
0C00
0C00
ENDCHAR
STARTCHAR GREEK CAPITAL LETTER OMEGA
ENCODING 937
SWIDTH 784 0
DWIDTH 12 0
BBX 10 14 0 0
BITMAP
3F00
3F00
C0C0
C0C0
C0C0
C0C0
C0C0
C0C0
C0C0
C0C0
3300
3300
F3C0
F3C0
ENDCHAR
STARTCHAR GREEK CAPITAL LETTER IOTA WITH DIALYTIKA
ENCODING 938
SWIDTH 784 0
DWIDTH 12 0
BBX 6 16 2 0
BITMAP
CC00
CC00
0000
0000
FC00
FC00
3000
3000
3000
3000
3000
3000
3000
3000
FC00
FC00
ENDCHAR
STARTCHAR GREEK CAPITAL LETTER UPSILON WITH DIALYTIKA
ENCODING 939
SWIDTH 784 0
DWIDTH 12 0
BBX 10 16 0 0
BITMAP
C0C0
C0C0
0000
0000
C0C0
C0C0
C0C0
C0C0
3300
3300
0C00
0C00
0C00
0C00
0C00
0C00
ENDCHAR
STARTCHAR GREEK SMALL LETTER ALPHA WITH TONOS
ENCODING 940
SWIDTH 784 0
DWIDTH 12 0
BBX 10 16 0 0
BITMAP
0300
0300
0C00
0C00
0000
0000
3F00
3F00
C0C0
C0C0
C0C0
C0C0
C3C0
C3C0
3CC0
3CC0
ENDCHAR
STARTCHAR GREEK SMALL LETTER EPSILON WITH TONOS
ENCODING 941
SWIDTH 784 0
DWIDTH 12 0
BBX 10 16 0 0
BITMAP
0300
0300
0C00
0C00
0000
0000
3F00
3F00
C0C0
C0C0
3C00
3C00
C0C0
C0C0
3F00
3F00
ENDCHAR
STARTCHAR GREEK SMALL LETTER ETA WITH TONOS
ENCODING 942
SWIDTH 784 0
DWIDTH 12 0
BBX 12 20 0 -4
BITMAP
0300
0300
0C00
0C00
0000
0000
CF00
CF00
F0C0
F0C0
C0C0
C0C0
C0C0
C0C0
C0C0
C0C0
00C0
00C0
00C0
00C0
ENDCHAR
STARTCHAR GREEK SMALL LETTER IOTA WITH TONOS
ENCODING 943
SWIDTH 784 0
DWIDTH 12 0
BBX 6 16 2 0
BITMAP
3000
3000
C000
C000
0000
0000
C000
C000
C000
C000
C000
C000
CC00
CC00
3000
3000
ENDCHAR
STARTCHAR GREEK SMALL LETTER UPSILON WITH DIALYTIKA AND TONOS
ENCODING 944
SWIDTH 784 0
DWIDTH 12 0
BBX 10 16 0 0
BITMAP
0300
0300
CCC0
CCC0
0000
0000
C0C0
C0C0
C0C0
C0C0
C0C0
C0C0
C0C0
C0C0
3F00
3F00
ENDCHAR
STARTCHAR GREEK SMALL LETTER ALPHA
ENCODING 945
SWIDTH 784 0
DWIDTH 12 0
BBX 10 10 0 0
BITMAP
3F00
3F00
C0C0
C0C0
C0C0
C0C0
C3C0
C3C0
3CC0
3CC0
ENDCHAR
STARTCHAR GREEK SMALL LETTER BETA
ENCODING 946
SWIDTH 784 0
DWIDTH 12 0
BBX 10 18 0 -4
BITMAP
3C00
3C00
C300
C300
C300
C300
FF00
FF00
C0C0
C0C0
C0C0
C0C0
FF00
FF00
C000
C000
C000
C000
ENDCHAR
STARTCHAR GREEK SMALL LETTER GAMMA
ENCODING 947
SWIDTH 784 0
DWIDTH 12 0
BBX 10 14 0 -4
BITMAP
C0C0
C0C0
C0C0
C0C0
3300
3300
3300
3300
0C00
0C00
0C00
0C00
0C00
0C00
ENDCHAR
STARTCHAR GREEK SMALL LETTER DELTA
ENCODING 948
SWIDTH 784 0
DWIDTH 12 0
BBX 10 14 0 0
BITMAP
3F00
3F00
C0C0
C0C0
3C00
3C00
C300
C300
C0C0
C0C0
C0C0
C0C0
3F00
3F00
ENDCHAR
STARTCHAR GREEK SMALL LETTER EPSILON
ENCODING 949
SWIDTH 784 0
DWIDTH 12 0
BBX 10 10 0 0
BITMAP
3F00
3F00
C0C0
C0C0
3C00
3C00
C0C0
C0C0
3F00
3F00
ENDCHAR
STARTCHAR GREEK SMALL LETTER ZETA
ENCODING 950
SWIDTH 784 0
DWIDTH 12 0
BBX 10 18 0 -4
BITMAP
FFC0
FFC0
0C00
0C00
3000
3000
3000
3000
C000
C000
C000
C000
3F00
3F00
00C0
00C0
0F00
0F00
ENDCHAR
STARTCHAR GREEK SMALL LETTER ETA
ENCODING 951
SWIDTH 784 0
DWIDTH 12 0
BBX 10 14 0 -4
BITMAP
CF00
CF00
F0C0
F0C0
C0C0
C0C0
C0C0
C0C0
C0C0
C0C0
00C0
00C0
00C0
00C0
ENDCHAR
STARTCHAR GREEK SMALL LETTER THETA
ENCODING 952
SWIDTH 784 0
DWIDTH 12 0
BBX 8 14 2 0
BITMAP
3C00
3C00
C300
C300
C300
C300
FF00
FF00
C300
C300
C300
C300
3C00
3C00
ENDCHAR
STARTCHAR GREEK SMALL LETTER IOTA
ENCODING 953
SWIDTH 784 0
DWIDTH 12 0
BBX 6 10 2 0
BITMAP
C000
C000
C000
C000
C000
C000
CC00
CC00
3000
3000
ENDCHAR
STARTCHAR GREEK SMALL LETTER KAPPA
ENCODING 954
SWIDTH 784 0
DWIDTH 12 0
BBX 10 10 0 0
BITMAP
C0C0
C0C0
C300
C300
FC00
FC00
C300
C300
C0C0
C0C0
ENDCHAR
STARTCHAR GREEK SMALL LETTER LAMDA
ENCODING 955
SWIDTH 784 0
DWIDTH 12 0
BBX 10 14 0 0
BITMAP
3F00
3F00
C0C0
C0C0
3CC0
3CC0
C3C0
C3C0
C0C0
C0C0
C0C0
C0C0
C0C0
C0C0
ENDCHAR
STARTCHAR GREEK SMALL LETTER MU
ENCODING 956
SWIDTH 784 0
DWIDTH 12 0
BBX 10 14 0 -4
BITMAP
C0C0
C0C0
C0C0
C0C0
C0C0
C0C0
F3C0
F3C0
CCC0
CCC0
C000
C000
C000
C000
ENDCHAR
STARTCHAR GREEK SMALL LETTER NU
ENCODING 957
SWIDTH 784 0
DWIDTH 12 0
BBX 10 10 0 0
BITMAP
C0C0
C0C0
C0C0
C0C0
3300
3300
3300
3300
0C00
0C00
ENDCHAR
STARTCHAR GREEK SMALL LETTER XI
ENCODING 958
SWIDTH 784 0
DWIDTH 12 0
BBX 10 18 0 -4
BITMAP
FFC0
FFC0
0C00
0C00
3000
3000
0F00
0F00
3000
3000
C000
C000
3F00
3F00
00C0
00C0
0F00
0F00
ENDCHAR
STARTCHAR GREEK SMALL LETTER OMICRON
ENCODING 959
SWIDTH 784 0
DWIDTH 12 0
BBX 10 10 0 0
BITMAP
3F00
3F00
C0C0
C0C0
C0C0
C0C0
C0C0
C0C0
3F00
3F00
ENDCHAR
STARTCHAR GREEK SMALL LETTER PI
ENCODING 960
SWIDTH 784 0
DWIDTH 12 0
BBX 10 10 0 0
BITMAP
FFC0
FFC0
3300
3300
3300
3300
3300
3300
3300
3300
ENDCHAR
STARTCHAR GREEK SMALL LETTER RHO
ENCODING 961
SWIDTH 784 0
DWIDTH 12 0
BBX 10 14 0 -4
BITMAP
3F00
3F00
C0C0
C0C0
C0C0
C0C0
C0C0
C0C0
FF00
FF00
C000
C000
C000
C000
ENDCHAR
STARTCHAR GREEK SMALL LETTER FINAL SIGMA
ENCODING 962
SWIDTH 784 0
DWIDTH 12 0
BBX 10 14 0 -4
BITMAP
3F00
3F00
C0C0
C0C0
C000
C000
C000
C000
3F00
3F00
00C0
00C0
0F00
0F00
ENDCHAR
STARTCHAR GREEK SMALL LETTER SIGMA
ENCODING 963
SWIDTH 784 0
DWIDTH 12 0
BBX 10 10 0 0
BITMAP
3FC0
3FC0
C300
C300
C0C0
C0C0
C0C0
C0C0
3F00
3F00
ENDCHAR
STARTCHAR GREEK SMALL LETTER TAU
ENCODING 964
SWIDTH 784 0
DWIDTH 12 0
BBX 10 10 0 0
BITMAP
FFC0
FFC0
0C00
0C00
0C00
0C00
0C00
0C00
0300
0300
ENDCHAR
STARTCHAR GREEK SMALL LETTER UPSILON
ENCODING 965
SWIDTH 784 0
DWIDTH 12 0
BBX 10 10 0 0
BITMAP
C0C0
C0C0
C0C0
C0C0
C0C0
C0C0
C0C0
C0C0
3F00
3F00
ENDCHAR
STARTCHAR GREEK SMALL LETTER PHI
ENCODING 966
SWIDTH 784 0
DWIDTH 12 0
BBX 10 14 0 -4
BITMAP
3300
3300
CCC0
CCC0
CCC0
CCC0
CCC0
CCC0
3F00
3F00
0C00
0C00
0C00
0C00
ENDCHAR
STARTCHAR GREEK SMALL LETTER CHI
ENCODING 967
SWIDTH 784 0
DWIDTH 12 0
BBX 10 14 0 -4
BITMAP
C0C0
C0C0
3300
3300
3300
3300
0C00
0C00
3300
3300
3300
3300
C0C0
C0C0
ENDCHAR
STARTCHAR GREEK SMALL LETTER PSI
ENCODING 968
SWIDTH 784 0
DWIDTH 12 0
BBX 10 14 0 -4
BITMAP
CCC0
CCC0
CCC0
CCC0
CCC0
CCC0
CCC0
CCC0
3F00
3F00
0C00
0C00
0C00
0C00
ENDCHAR
STARTCHAR GREEK SMALL LETTER OMEGA
ENCODING 969
SWIDTH 784 0
DWIDTH 12 0
BBX 10 10 0 0
BITMAP
C0C0
C0C0
CCC0
CCC0
CCC0
CCC0
CCC0
CCC0
3300
3300
ENDCHAR
STARTCHAR GREEK SMALL LETTER IOTA WITH DIALYTIKA
ENCODING 970
SWIDTH 784 0
DWIDTH 12 0
BBX 10 14 0 0
BITMAP
C0C0
C0C0
0000
0000
0C00
0C00
0C00
0C00
0C00
0C00
0CC0
0CC0
0300
0300
ENDCHAR
STARTCHAR GREEK SMALL LETTER UPSILON WITH DIALYTIKA
ENCODING 971
SWIDTH 784 0
DWIDTH 12 0
BBX 10 14 0 0
BITMAP
C0C0
C0C0
0000
0000
C0C0
C0C0
C0C0
C0C0
C0C0
C0C0
C0C0
C0C0
3F00
3F00
ENDCHAR
STARTCHAR GREEK SMALL LETTER OMICRON WITH TONOS
ENCODING 972
SWIDTH 784 0
DWIDTH 12 0
BBX 10 16 0 0
BITMAP
0300
0300
0C00
0C00
0000
0000
3F00
3F00
C0C0
C0C0
C0C0
C0C0
C0C0
C0C0
3F00
3F00
ENDCHAR
STARTCHAR GREEK SMALL LETTER UPSILON WITH TONOS
ENCODING 973
SWIDTH 784 0
DWIDTH 12 0
BBX 10 16 0 0
BITMAP
0300
0300
0C00
0C00
0000
0000
C0C0
C0C0
C0C0
C0C0
C0C0
C0C0
C0C0
C0C0
3F00
3F00
ENDCHAR
STARTCHAR GREEK SMALL LETTER OMEGA WITH TONOS
ENCODING 974
SWIDTH 784 0
DWIDTH 12 0
BBX 10 16 0 0
BITMAP
0300
0300
0C00
0C00
0000
0000
C0C0
C0C0
CCC0
CCC0
CCC0
CCC0
CCC0
CCC0
3300
3300
ENDCHAR
STARTCHAR GREEK BETA SYMBOL
ENCODING 976
SWIDTH 784 0
DWIDTH 12 0
BBX 10 14 0 0
BITMAP
3C00
3C00
C300
C300
CC00
CC00
FF00
FF00
C0C0
C0C0
C0C0
C0C0
3F00
3F00
ENDCHAR
STARTCHAR GREEK THETA SYMBOL
ENCODING 977
SWIDTH 784 0
DWIDTH 12 0
BBX 10 14 0 0
BITMAP
3C00
3C00
C300
C300
3FC0
3FC0
0300
0300
C300
C300
C300
C300
3C00
3C00
ENDCHAR
STARTCHAR GREEK UPSILON WITH HOOK SYMBOL
ENCODING 978
SWIDTH 784 0
DWIDTH 12 0
BBX 10 14 0 0
BITMAP
3300
3300
CCC0
CCC0
0C00
0C00
0C00
0C00
0C00
0C00
0C00
0C00
0C00
0C00
ENDCHAR
STARTCHAR GREEK UPSILON WITH ACUTE AND HOOK SYMBOL
ENCODING 979
SWIDTH 784 0
DWIDTH 12 0
BBX 10 14 0 0
BITMAP
3300
3300
CCC0
CCC0
0C00
0C00
CC00
CC00
CC00
CC00
0C00
0C00
0C00
0C00
ENDCHAR
STARTCHAR GREEK UPSILON WITH DIAERESIS AND HOOK SYMBOL
ENCODING 980
SWIDTH 784 0
DWIDTH 12 0
BBX 10 16 0 0
BITMAP
C0C0
C0C0
0000
0000
3300
3300
CCC0
CCC0
0C00
0C00
0C00
0C00
0C00
0C00
0C00
0C00
ENDCHAR
STARTCHAR GREEK PHI SYMBOL
ENCODING 981
SWIDTH 784 0
DWIDTH 12 0
BBX 10 18 0 -4
BITMAP
0C00
0C00
0C00
0C00
3F00
3F00
CCC0
CCC0
CCC0
CCC0
CCC0
CCC0
3F00
3F00
0C00
0C00
0C00
0C00
ENDCHAR
STARTCHAR GREEK PI SYMBOL
ENCODING 982
SWIDTH 784 0
DWIDTH 12 0
BBX 10 10 0 0
BITMAP
FFC0
FFC0
C0C0
C0C0
CCC0
CCC0
CCC0
CCC0
3300
3300
ENDCHAR
STARTCHAR GREEK KAI SYMBOL
ENCODING 983
SWIDTH 784 0
DWIDTH 12 0
BBX 10 18 0 -4
BITMAP
0300
0300
0C00
0C00
C0C0
C0C0
3300
3300
3C00
3C00
3C00
3C00
C3C0
C3C0
00C0
00C0
3F00
3F00
ENDCHAR
STARTCHAR GREEK LETTER STIGMA
ENCODING 986
SWIDTH 784 0
DWIDTH 12 0
BBX 10 16 0 -2
BITMAP
0F00
0F00
30C0
30C0
C000
C000
C000
C000
C000
C000
3F00
3F00
00C0
00C0
0300
0300
ENDCHAR
STARTCHAR GREEK SMALL LETTER STIGMA
ENCODING 987
SWIDTH 784 0
DWIDTH 12 0
BBX 10 16 0 -4
BITMAP
00C0
00C0
3F00
3F00
C000
C000
C000
C000
C000
C000
3F00
3F00
00C0
00C0
0F00
0F00
ENDCHAR
STARTCHAR GREEK LETTER DIGAMMA
ENCODING 988
SWIDTH 784 0
DWIDTH 12 0
BBX 10 14 0 0
BITMAP
FFC0
FFC0
C000
C000
C000
C000
FF00
FF00
C000
C000
C000
C000
C000
C000
ENDCHAR
STARTCHAR GREEK SMALL LETTER DIGAMMA
ENCODING 989
SWIDTH 784 0
DWIDTH 12 0
BBX 8 14 2 -4
BITMAP
FF00
FF00
C000
C000
C000
C000
FC00
FC00
C000
C000
C000
C000
C000
C000
ENDCHAR
STARTCHAR GREEK LETTER KOPPA
ENCODING 990
SWIDTH 784 0
DWIDTH 12 0
BBX 10 14 0 0
BITMAP
C000
C000
C0C0
C0C0
C3C0
C3C0
CCC0
CCC0
F0C0
F0C0
C0C0
C0C0
00C0
00C0
ENDCHAR
STARTCHAR GREEK SMALL LETTER KOPPA
ENCODING 991
SWIDTH 784 0
DWIDTH 12 0
BBX 10 18 0 -4
BITMAP
0C00
0C00
3000
3000
3000
3000
C000
C000
FFC0
FFC0
00C0
00C0
0300
0300
0300
0300
0C00
0C00
ENDCHAR
STARTCHAR GREEK LETTER SAMPI
ENCODING 992
SWIDTH 784 0
DWIDTH 12 0
BBX 10 14 0 0
BITMAP
0C00
0C00
3300
3300
3300
3300
3300
3300
C3C0
C3C0
CCC0
CCC0
CCC0
CCC0
ENDCHAR
STARTCHAR GREEK SMALL LETTER SAMPI
ENCODING 993
SWIDTH 784 0
DWIDTH 12 0
BBX 10 18 0 -4
BITMAP
F000
F000
0C00
0C00
0300
0300
0F00
0F00
33C0
33C0
0CC0
0CC0
00C0
00C0
00C0
00C0
00C0
00C0
ENDCHAR
STARTCHAR GREEK KAPPA SYMBOL
ENCODING 1008
SWIDTH 784 0
DWIDTH 12 0
BBX 10 10 0 0
BITMAP
C0C0
C0C0
3300
3300
3C00
3C00
3C00
3C00
C3C0
C3C0
ENDCHAR
STARTCHAR GREEK RHO SYMBOL
ENCODING 1009
SWIDTH 784 0
DWIDTH 12 0
BBX 10 14 0 -4
BITMAP
3F00
3F00
C0C0
C0C0
C0C0
C0C0
C0C0
C0C0
FF00
FF00
C000
C000
3F00
3F00
ENDCHAR
STARTCHAR GREEK LUNATE SIGMA SYMBOL
ENCODING 1010
SWIDTH 784 0
DWIDTH 12 0
BBX 10 10 0 0
BITMAP
3F00
3F00
C0C0
C0C0
C000
C000
C0C0
C0C0
3F00
3F00
ENDCHAR
STARTCHAR GREEK LETTER YOT
ENCODING 1011
SWIDTH 784 0
DWIDTH 12 0
BBX 8 18 2 -4
BITMAP
0300
0300
0000
0000
0F00
0F00
0300
0300
0300
0300
0300
0300
C300
C300
C300
C300
3C00
3C00
ENDCHAR
STARTCHAR GREEK CAPITAL THETA SYMBOL
ENCODING 1012
SWIDTH 784 0
DWIDTH 12 0
BBX 10 14 0 0
BITMAP
3F00
3F00
C0C0
C0C0
C0C0
C0C0
FFC0
FFC0
C0C0
C0C0
C0C0
C0C0
3F00
3F00
ENDCHAR
STARTCHAR GREEK LUNATE EPSILON SYMBOL
ENCODING 1013
SWIDTH 784 0
DWIDTH 12 0
BBX 8 10 2 0
BITMAP
3F00
3F00
C000
C000
FC00
FC00
C000
C000
3F00
3F00
ENDCHAR
STARTCHAR CYRILLIC CAPITAL LETTER IO
ENCODING 1025
SWIDTH 784 0
DWIDTH 12 0
BBX 10 16 0 0
BITMAP
3300
3300
0000
0000
FFC0
FFC0
C000
C000
FF00
FF00
C000
C000
C000
C000
FFC0
FFC0
ENDCHAR
STARTCHAR CYRILLIC CAPITAL LETTER DJE
ENCODING 1026
SWIDTH 784 0
DWIDTH 12 0
BBX 10 18 0 -4
BITMAP
FC00
FC00
3000
3000
3000
3000
3F00
3F00
30C0
30C0
30C0
30C0
30C0
30C0
00C0
00C0
0F00
0F00
ENDCHAR
STARTCHAR CYRILLIC CAPITAL LETTER GJE
ENCODING 1027
SWIDTH 784 0
DWIDTH 12 0
BBX 10 16 0 0
BITMAP
0300
0300
0C00
0C00
FFC0
FFC0
C000
C000
C000
C000
C000
C000
C000
C000
C000
C000
ENDCHAR
STARTCHAR CYRILLIC CAPITAL LETTER UKRAINIAN IE
ENCODING 1028
SWIDTH 784 0
DWIDTH 12 0
BBX 10 14 0 0
BITMAP
3F00
3F00
C0C0
C0C0
C000
C000
FC00
FC00
C000
C000
C0C0
C0C0
3F00
3F00
ENDCHAR
STARTCHAR CYRILLIC CAPITAL LETTER DZE
ENCODING 1029
SWIDTH 784 0
DWIDTH 12 0
BBX 10 14 0 0
BITMAP
3F00
3F00
C0C0
C0C0
C000
C000
3F00
3F00
00C0
00C0
C0C0
C0C0
3F00
3F00
ENDCHAR
STARTCHAR CYRILLIC CAPITAL LETTER BYELORUSSIAN-UKRAINIAN I
ENCODING 1030
SWIDTH 784 0
DWIDTH 12 0
BBX 6 14 2 0
BITMAP
FC00
FC00
3000
3000
3000
3000
3000
3000
3000
3000
3000
3000
FC00
FC00
ENDCHAR
STARTCHAR CYRILLIC CAPITAL LETTER YI
ENCODING 1031
SWIDTH 784 0
DWIDTH 12 0
BBX 6 16 2 0
BITMAP
CC00
CC00
0000
0000
FC00
FC00
3000
3000
3000
3000
3000
3000
3000
3000
FC00
FC00
ENDCHAR
STARTCHAR CYRILLIC CAPITAL LETTER JE
ENCODING 1032
SWIDTH 784 0
DWIDTH 12 0
BBX 10 14 0 0
BITMAP
0FC0
0FC0
00C0
00C0
00C0
00C0
00C0
00C0
00C0
00C0
C0C0
C0C0
3F00
3F00
ENDCHAR
STARTCHAR CYRILLIC CAPITAL LETTER LJE
ENCODING 1033
SWIDTH 784 0
DWIDTH 12 0
BBX 12 14 0 0
BITMAP
0F00
0F00
3300
3300
3300
3300
C3C0
C3C0
C330
C330
C330
C330
C3C0
C3C0
ENDCHAR
STARTCHAR CYRILLIC CAPITAL LETTER NJE
ENCODING 1034
SWIDTH 784 0
DWIDTH 12 0
BBX 10 14 0 0
BITMAP
CC00
CC00
CC00
CC00
CC00
CC00
FF00
FF00
CCC0
CCC0
CCC0
CCC0
CF00
CF00
ENDCHAR
STARTCHAR CYRILLIC CAPITAL LETTER TSHE
ENCODING 1035
SWIDTH 784 0
DWIDTH 12 0
BBX 10 14 0 0
BITMAP
FC00
FC00
3000
3000
3000
3000
3F00
3F00
30C0
30C0
30C0
30C0
30C0
30C0
ENDCHAR
STARTCHAR CYRILLIC CAPITAL LETTER KJE
ENCODING 1036
SWIDTH 784 0
DWIDTH 12 0
BBX 10 16 0 0
BITMAP
0300
0300
0C00
0C00
C0C0
C0C0
C300
C300
FC00
FC00
C300
C300
C0C0
C0C0
C0C0
C0C0
ENDCHAR
STARTCHAR CYRILLIC CAPITAL LETTER SHORT U
ENCODING 1038
SWIDTH 784 0
DWIDTH 12 0
BBX 10 16 0 0
BITMAP
3300
3300
0C00
0C00
C0C0
C0C0
C0C0
C0C0
3300
3300
0C00
0C00
3000
3000
C000
C000
ENDCHAR
STARTCHAR CYRILLIC CAPITAL LETTER DZHE
ENCODING 1039
SWIDTH 784 0
DWIDTH 12 0
BBX 10 16 0 -2
BITMAP
C0C0
C0C0
C0C0
C0C0
C0C0
C0C0
C0C0
C0C0
C0C0
C0C0
C0C0
C0C0
FFC0
FFC0
0C00
0C00
ENDCHAR
STARTCHAR CYRILLIC CAPITAL LETTER A
ENCODING 1040
SWIDTH 784 0
DWIDTH 12 0
BBX 10 14 0 0
BITMAP
0C00
0C00
3300
3300
C0C0
C0C0
C0C0
C0C0
FFC0
FFC0
C0C0
C0C0
C0C0
C0C0
ENDCHAR
STARTCHAR CYRILLIC CAPITAL LETTER BE
ENCODING 1041
SWIDTH 784 0
DWIDTH 12 0
BBX 10 14 0 0
BITMAP
FF00
FF00
C000
C000
C000
C000
FF00
FF00
C0C0
C0C0
C0C0
C0C0
FF00
FF00
ENDCHAR
STARTCHAR CYRILLIC CAPITAL LETTER VE
ENCODING 1042
SWIDTH 784 0
DWIDTH 12 0
BBX 10 14 0 0
BITMAP
FF00
FF00
C0C0
C0C0
C0C0
C0C0
FF00
FF00
C0C0
C0C0
C0C0
C0C0
FF00
FF00
ENDCHAR
STARTCHAR CYRILLIC CAPITAL LETTER GHE
ENCODING 1043
SWIDTH 784 0
DWIDTH 12 0
BBX 10 14 0 0
BITMAP
FFC0
FFC0
C000
C000
C000
C000
C000
C000
C000
C000
C000
C000
C000
C000
ENDCHAR
STARTCHAR CYRILLIC CAPITAL LETTER DE
ENCODING 1044
SWIDTH 784 0
DWIDTH 12 0
BBX 10 16 0 -2
BITMAP
03C0
03C0
0CC0
0CC0
0CC0
0CC0
30C0
30C0
30C0
30C0
30C0
30C0
FFC0
FFC0
C0C0
C0C0
ENDCHAR
STARTCHAR CYRILLIC CAPITAL LETTER IE
ENCODING 1045
SWIDTH 784 0
DWIDTH 12 0
BBX 10 14 0 0
BITMAP
FFC0
FFC0
C000
C000
C000
C000
FF00
FF00
C000
C000
C000
C000
FFC0
FFC0
ENDCHAR
STARTCHAR CYRILLIC CAPITAL LETTER ZHE
ENCODING 1046
SWIDTH 784 0
DWIDTH 12 0
BBX 10 14 0 0
BITMAP
CCC0
CCC0
CCC0
CCC0
CCC0
CCC0
3F00
3F00
CCC0
CCC0
CCC0
CCC0
CCC0
CCC0
ENDCHAR
STARTCHAR CYRILLIC CAPITAL LETTER ZE
ENCODING 1047
SWIDTH 784 0
DWIDTH 12 0
BBX 10 14 0 0
BITMAP
3F00
3F00
C0C0
C0C0
00C0
00C0
0F00
0F00
00C0
00C0
C0C0
C0C0
3F00
3F00
ENDCHAR
STARTCHAR CYRILLIC CAPITAL LETTER I
ENCODING 1048
SWIDTH 784 0
DWIDTH 12 0
BBX 10 14 0 0
BITMAP
C0C0
C0C0
C0C0
C0C0
C3C0
C3C0
CCC0
CCC0
F0C0
F0C0
C0C0
C0C0
C0C0
C0C0
ENDCHAR
STARTCHAR CYRILLIC CAPITAL LETTER SHORT I
ENCODING 1049
SWIDTH 784 0
DWIDTH 12 0
BBX 10 16 0 0
BITMAP
3300
3300
0C00
0C00
C0C0
C0C0
C3C0
C3C0
CCC0
CCC0
F0C0
F0C0
C0C0
C0C0
C0C0
C0C0
ENDCHAR
STARTCHAR CYRILLIC CAPITAL LETTER KA
ENCODING 1050
SWIDTH 784 0
DWIDTH 12 0
BBX 10 14 0 0
BITMAP
C0C0
C0C0
C300
C300
CC00
CC00
F000
F000
CC00
CC00
C300
C300
C0C0
C0C0
ENDCHAR
STARTCHAR CYRILLIC CAPITAL LETTER EL
ENCODING 1051
SWIDTH 784 0
DWIDTH 12 0
BBX 10 14 0 0
BITMAP
0FC0
0FC0
30C0
30C0
30C0
30C0
30C0
30C0
30C0
30C0
30C0
30C0
C0C0
C0C0
ENDCHAR
STARTCHAR CYRILLIC CAPITAL LETTER EM
ENCODING 1052
SWIDTH 784 0
DWIDTH 12 0
BBX 10 14 0 0
BITMAP
C0C0
C0C0
C0C0
C0C0
F3C0
F3C0
CCC0
CCC0
C0C0
C0C0
C0C0
C0C0
C0C0
C0C0
ENDCHAR
STARTCHAR CYRILLIC CAPITAL LETTER EN
ENCODING 1053
SWIDTH 784 0
DWIDTH 12 0
BBX 10 14 0 0
BITMAP
C0C0
C0C0
C0C0
C0C0
C0C0
C0C0
FFC0
FFC0
C0C0
C0C0
C0C0
C0C0
C0C0
C0C0
ENDCHAR
STARTCHAR CYRILLIC CAPITAL LETTER O
ENCODING 1054
SWIDTH 784 0
DWIDTH 12 0
BBX 10 14 0 0
BITMAP
3F00
3F00
C0C0
C0C0
C0C0
C0C0
C0C0
C0C0
C0C0
C0C0
C0C0
C0C0
3F00
3F00
ENDCHAR
STARTCHAR CYRILLIC CAPITAL LETTER PE
ENCODING 1055
SWIDTH 784 0
DWIDTH 12 0
BBX 10 14 0 0
BITMAP
FFC0
FFC0
C0C0
C0C0
C0C0
C0C0
C0C0
C0C0
C0C0
C0C0
C0C0
C0C0
C0C0
C0C0
ENDCHAR
STARTCHAR CYRILLIC CAPITAL LETTER ER
ENCODING 1056
SWIDTH 784 0
DWIDTH 12 0
BBX 10 14 0 0
BITMAP
FF00
FF00
C0C0
C0C0
C0C0
C0C0
FF00
FF00
C000
C000
C000
C000
C000
C000
ENDCHAR
STARTCHAR CYRILLIC CAPITAL LETTER ES
ENCODING 1057
SWIDTH 784 0
DWIDTH 12 0
BBX 10 14 0 0
BITMAP
3F00
3F00
C0C0
C0C0
C000
C000
C000
C000
C000
C000
C0C0
C0C0
3F00
3F00
ENDCHAR
STARTCHAR CYRILLIC CAPITAL LETTER TE
ENCODING 1058
SWIDTH 784 0
DWIDTH 12 0
BBX 10 14 0 0
BITMAP
FFC0
FFC0
0C00
0C00
0C00
0C00
0C00
0C00
0C00
0C00
0C00
0C00
0C00
0C00
ENDCHAR
STARTCHAR CYRILLIC CAPITAL LETTER U
ENCODING 1059
SWIDTH 784 0
DWIDTH 12 0
BBX 10 14 0 0
BITMAP
C0C0
C0C0
C0C0
C0C0
C0C0
C0C0
3300
3300
0C00
0C00
3000
3000
C000
C000
ENDCHAR
STARTCHAR CYRILLIC CAPITAL LETTER EF
ENCODING 1060
SWIDTH 784 0
DWIDTH 12 0
BBX 10 14 0 0
BITMAP
0C00
0C00
3F00
3F00
CCC0
CCC0
CCC0
CCC0
CCC0
CCC0
3F00
3F00
0C00
0C00
ENDCHAR
STARTCHAR CYRILLIC CAPITAL LETTER HA
ENCODING 1061
SWIDTH 784 0
DWIDTH 12 0
BBX 10 14 0 0
BITMAP
C0C0
C0C0
C0C0
C0C0
3300
3300
0C00
0C00
3300
3300
C0C0
C0C0
C0C0
C0C0
ENDCHAR
STARTCHAR CYRILLIC CAPITAL LETTER TSE
ENCODING 1062
SWIDTH 784 0
DWIDTH 12 0
BBX 10 18 0 -4
BITMAP
C300
C300
C300
C300
C300
C300
C300
C300
C300
C300
C300
C300
FFC0
FFC0
00C0
00C0
00C0
00C0
ENDCHAR
STARTCHAR CYRILLIC CAPITAL LETTER CHE
ENCODING 1063
SWIDTH 784 0
DWIDTH 12 0
BBX 10 14 0 0
BITMAP
C0C0
C0C0
C0C0
C0C0
C0C0
C0C0
3FC0
3FC0
00C0
00C0
00C0
00C0
00C0
00C0
ENDCHAR
STARTCHAR CYRILLIC CAPITAL LETTER SHA
ENCODING 1064
SWIDTH 784 0
DWIDTH 12 0
BBX 10 14 0 0
BITMAP
CCC0
CCC0
CCC0
CCC0
CCC0
CCC0
CCC0
CCC0
CCC0
CCC0
CCC0
CCC0
FFC0
FFC0
ENDCHAR
STARTCHAR CYRILLIC CAPITAL LETTER SHCHA
ENCODING 1065
SWIDTH 784 0
DWIDTH 12 0
BBX 10 18 0 -4
BITMAP
CCC0
CCC0
CCC0
CCC0
CCC0
CCC0
CCC0
CCC0
CCC0
CCC0
CCC0
CCC0
FFC0
FFC0
00C0
00C0
00C0
00C0
ENDCHAR
STARTCHAR CYRILLIC CAPITAL LETTER HARD SIGN
ENCODING 1066
SWIDTH 784 0
DWIDTH 12 0
BBX 10 14 0 0
BITMAP
F000
F000
3000
3000
3000
3000
3F00
3F00
30C0
30C0
30C0
30C0
3F00
3F00
ENDCHAR
STARTCHAR CYRILLIC CAPITAL LETTER YERU
ENCODING 1067
SWIDTH 784 0
DWIDTH 12 0
BBX 10 14 0 0
BITMAP
C0C0
C0C0
C0C0
C0C0
C0C0
C0C0
FCC0
FCC0
C3C0
C3C0
C3C0
C3C0
FCC0
FCC0
ENDCHAR
STARTCHAR CYRILLIC CAPITAL LETTER SOFT SIGN
ENCODING 1068
SWIDTH 784 0
DWIDTH 12 0
BBX 8 14 2 0
BITMAP
C000
C000
C000
C000
C000
C000
FC00
FC00
C300
C300
C300
C300
FC00
FC00
ENDCHAR
STARTCHAR CYRILLIC CAPITAL LETTER E
ENCODING 1069
SWIDTH 784 0
DWIDTH 12 0
BBX 10 14 0 0
BITMAP
3F00
3F00
C0C0
C0C0
00C0
00C0
0FC0
0FC0
00C0
00C0
C0C0
C0C0
3F00
3F00
ENDCHAR
STARTCHAR CYRILLIC CAPITAL LETTER YU
ENCODING 1070
SWIDTH 784 0
DWIDTH 12 0
BBX 10 14 0 0
BITMAP
C300
C300
CCC0
CCC0
CCC0
CCC0
FCC0
FCC0
CCC0
CCC0
CCC0
CCC0
C300
C300
ENDCHAR
STARTCHAR CYRILLIC CAPITAL LETTER YA
ENCODING 1071
SWIDTH 784 0
DWIDTH 12 0
BBX 10 14 0 0
BITMAP
3FC0
3FC0
C0C0
C0C0
C0C0
C0C0
3FC0
3FC0
0CC0
0CC0
30C0
30C0
C0C0
C0C0
ENDCHAR
STARTCHAR CYRILLIC SMALL LETTER A
ENCODING 1072
SWIDTH 784 0
DWIDTH 12 0
BBX 10 10 0 0
BITMAP
3F00
3F00
00C0
00C0
3FC0
3FC0
C0C0
C0C0
3FC0
3FC0
ENDCHAR
STARTCHAR CYRILLIC SMALL LETTER BE
ENCODING 1073
SWIDTH 784 0
DWIDTH 12 0
BBX 10 14 0 0
BITMAP
3FC0
3FC0
C000
C000
3F00
3F00
C0C0
C0C0
C0C0
C0C0
C0C0
C0C0
3F00
3F00
ENDCHAR
STARTCHAR CYRILLIC SMALL LETTER VE
ENCODING 1074
SWIDTH 784 0
DWIDTH 12 0
BBX 10 10 0 0
BITMAP
FF00
FF00
C0C0
C0C0
FF00
FF00
C0C0
C0C0
FF00
FF00
ENDCHAR
STARTCHAR CYRILLIC SMALL LETTER GHE
ENCODING 1075
SWIDTH 784 0
DWIDTH 12 0
BBX 8 10 2 0
BITMAP
FF00
FF00
C000
C000
C000
C000
C000
C000
C000
C000
ENDCHAR
STARTCHAR CYRILLIC SMALL LETTER DE
ENCODING 1076
SWIDTH 784 0
DWIDTH 12 0
BBX 10 12 0 -2
BITMAP
0F00
0F00
3300
3300
3300
3300
3300
3300
FFC0
FFC0
C0C0
C0C0
ENDCHAR
STARTCHAR CYRILLIC SMALL LETTER IE
ENCODING 1077
SWIDTH 784 0
DWIDTH 12 0
BBX 10 10 0 0
BITMAP
3F00
3F00
C0C0
C0C0
FFC0
FFC0
C000
C000
3F00
3F00
ENDCHAR
STARTCHAR CYRILLIC SMALL LETTER ZHE
ENCODING 1078
SWIDTH 784 0
DWIDTH 12 0
BBX 10 10 0 0
BITMAP
CCC0
CCC0
CCC0
CCC0
3F00
3F00
CCC0
CCC0
CCC0
CCC0
ENDCHAR
STARTCHAR CYRILLIC SMALL LETTER ZE
ENCODING 1079
SWIDTH 784 0
DWIDTH 12 0
BBX 10 10 0 0
BITMAP
3F00
3F00
C0C0
C0C0
0F00
0F00
C0C0
C0C0
3F00
3F00
ENDCHAR
STARTCHAR CYRILLIC SMALL LETTER I
ENCODING 1080
SWIDTH 784 0
DWIDTH 12 0
BBX 10 10 0 0
BITMAP
C0C0
C0C0
C3C0
C3C0
CCC0
CCC0
F0C0
F0C0
C0C0
C0C0
ENDCHAR
STARTCHAR CYRILLIC SMALL LETTER SHORT I
ENCODING 1081
SWIDTH 784 0
DWIDTH 12 0
BBX 10 14 0 0
BITMAP
3300
3300
0C00
0C00
C0C0
C0C0
C3C0
C3C0
CCC0
CCC0
F0C0
F0C0
C0C0
C0C0
ENDCHAR
STARTCHAR CYRILLIC SMALL LETTER KA
ENCODING 1082
SWIDTH 784 0
DWIDTH 12 0
BBX 10 10 0 0
BITMAP
C0C0
C0C0
C300
C300
FC00
FC00
C300
C300
C0C0
C0C0
ENDCHAR
STARTCHAR CYRILLIC SMALL LETTER EL
ENCODING 1083
SWIDTH 784 0
DWIDTH 12 0
BBX 10 10 0 0
BITMAP
0FC0
0FC0
30C0
30C0
30C0
30C0
30C0
30C0
C0C0
C0C0
ENDCHAR
STARTCHAR CYRILLIC SMALL LETTER EM
ENCODING 1084
SWIDTH 784 0
DWIDTH 12 0
BBX 10 10 0 0
BITMAP
C0C0
C0C0
F3C0
F3C0
CCC0
CCC0
C0C0
C0C0
C0C0
C0C0
ENDCHAR
STARTCHAR CYRILLIC SMALL LETTER EN
ENCODING 1085
SWIDTH 784 0
DWIDTH 12 0
BBX 10 10 0 0
BITMAP
C0C0
C0C0
C0C0
C0C0
FFC0
FFC0
C0C0
C0C0
C0C0
C0C0
ENDCHAR
STARTCHAR CYRILLIC SMALL LETTER O
ENCODING 1086
SWIDTH 784 0
DWIDTH 12 0
BBX 10 10 0 0
BITMAP
3F00
3F00
C0C0
C0C0
C0C0
C0C0
C0C0
C0C0
3F00
3F00
ENDCHAR
STARTCHAR CYRILLIC SMALL LETTER PE
ENCODING 1087
SWIDTH 784 0
DWIDTH 12 0
BBX 10 10 0 0
BITMAP
FFC0
FFC0
C0C0
C0C0
C0C0
C0C0
C0C0
C0C0
C0C0
C0C0
ENDCHAR
STARTCHAR CYRILLIC SMALL LETTER ER
ENCODING 1088
SWIDTH 784 0
DWIDTH 12 0
BBX 10 14 0 -4
BITMAP
CF00
CF00
F0C0
F0C0
C0C0
C0C0
F0C0
F0C0
CF00
CF00
C000
C000
C000
C000
ENDCHAR
STARTCHAR CYRILLIC SMALL LETTER ES
ENCODING 1089
SWIDTH 784 0
DWIDTH 12 0
BBX 10 10 0 0
BITMAP
3F00
3F00
C0C0
C0C0
C000
C000
C0C0
C0C0
3F00
3F00
ENDCHAR
STARTCHAR CYRILLIC SMALL LETTER TE
ENCODING 1090
SWIDTH 784 0
DWIDTH 12 0
BBX 10 10 0 0
BITMAP
FFC0
FFC0
0C00
0C00
0C00
0C00
0C00
0C00
0C00
0C00
ENDCHAR
STARTCHAR CYRILLIC SMALL LETTER U
ENCODING 1091
SWIDTH 784 0
DWIDTH 12 0
BBX 10 14 0 -4
BITMAP
C0C0
C0C0
C0C0
C0C0
C0C0
C0C0
3FC0
3FC0
00C0
00C0
C0C0
C0C0
3F00
3F00
ENDCHAR
STARTCHAR CYRILLIC SMALL LETTER EF
ENCODING 1092
SWIDTH 784 0
DWIDTH 12 0
BBX 10 18 0 -4
BITMAP
0C00
0C00
0C00
0C00
3F00
3F00
CCC0
CCC0
CCC0
CCC0
CCC0
CCC0
3F00
3F00
0C00
0C00
0C00
0C00
ENDCHAR
STARTCHAR CYRILLIC SMALL LETTER HA
ENCODING 1093
SWIDTH 784 0
DWIDTH 12 0
BBX 10 10 0 0
BITMAP
C0C0
C0C0
3300
3300
0C00
0C00
3300
3300
C0C0
C0C0
ENDCHAR
STARTCHAR CYRILLIC SMALL LETTER TSE
ENCODING 1094
SWIDTH 784 0
DWIDTH 12 0
BBX 10 14 0 -4
BITMAP
C300
C300
C300
C300
C300
C300
C300
C300
FFC0
FFC0
00C0
00C0
00C0
00C0
ENDCHAR
STARTCHAR CYRILLIC SMALL LETTER CHE
ENCODING 1095
SWIDTH 784 0
DWIDTH 12 0
BBX 10 10 0 0
BITMAP
C0C0
C0C0
C0C0
C0C0
3FC0
3FC0
00C0
00C0
00C0
00C0
ENDCHAR
STARTCHAR CYRILLIC SMALL LETTER SHA
ENCODING 1096
SWIDTH 784 0
DWIDTH 12 0
BBX 10 10 0 0
BITMAP
CCC0
CCC0
CCC0
CCC0
CCC0
CCC0
CCC0
CCC0
FFC0
FFC0
ENDCHAR
STARTCHAR CYRILLIC SMALL LETTER SHCHA
ENCODING 1097
SWIDTH 784 0
DWIDTH 12 0
BBX 10 14 0 -4
BITMAP
CCC0
CCC0
CCC0
CCC0
CCC0
CCC0
CCC0
CCC0
FFC0
FFC0
00C0
00C0
00C0
00C0
ENDCHAR
STARTCHAR CYRILLIC SMALL LETTER HARD SIGN
ENCODING 1098
SWIDTH 784 0
DWIDTH 12 0
BBX 10 10 0 0
BITMAP
F000
F000
3000
3000
3F00
3F00
30C0
30C0
3F00
3F00
ENDCHAR
STARTCHAR CYRILLIC SMALL LETTER YERU
ENCODING 1099
SWIDTH 784 0
DWIDTH 12 0
BBX 10 10 0 0
BITMAP
C0C0
C0C0
C0C0
C0C0
FCC0
FCC0
C3C0
C3C0
FCC0
FCC0
ENDCHAR
STARTCHAR CYRILLIC SMALL LETTER SOFT SIGN
ENCODING 1100
SWIDTH 784 0
DWIDTH 12 0
BBX 8 10 2 0
BITMAP
C000
C000
C000
C000
FC00
FC00
C300
C300
FC00
FC00
ENDCHAR
STARTCHAR CYRILLIC SMALL LETTER E
ENCODING 1101
SWIDTH 784 0
DWIDTH 12 0
BBX 10 10 0 0
BITMAP
3F00
3F00
C0C0
C0C0
0FC0
0FC0
C0C0
C0C0
3F00
3F00
ENDCHAR
STARTCHAR CYRILLIC SMALL LETTER YU
ENCODING 1102
SWIDTH 784 0
DWIDTH 12 0
BBX 10 10 0 0
BITMAP
C300
C300
CCC0
CCC0
FCC0
FCC0
CCC0
CCC0
C300
C300
ENDCHAR
STARTCHAR CYRILLIC SMALL LETTER YA
ENCODING 1103
SWIDTH 784 0
DWIDTH 12 0
BBX 10 10 0 0
BITMAP
3FC0
3FC0
C0C0
C0C0
3FC0
3FC0
C0C0
C0C0
C0C0
C0C0
ENDCHAR
STARTCHAR CYRILLIC SMALL LETTER IO
ENCODING 1105
SWIDTH 784 0
DWIDTH 12 0
BBX 10 14 0 0
BITMAP
3300
3300
0000
0000
3F00
3F00
C0C0
C0C0
FFC0
FFC0
C000
C000
3F00
3F00
ENDCHAR
STARTCHAR CYRILLIC SMALL LETTER DJE
ENCODING 1106
SWIDTH 784 0
DWIDTH 12 0
BBX 10 18 0 -4
BITMAP
3000
3000
FF00
FF00
3000
3000
3F00
3F00
30C0
30C0
30C0
30C0
30C0
30C0
00C0
00C0
0F00
0F00
ENDCHAR
STARTCHAR CYRILLIC SMALL LETTER GJE
ENCODING 1107
SWIDTH 784 0
DWIDTH 12 0
BBX 8 16 2 0
BITMAP
0C00
0C00
3000
3000
0000
0000
FF00
FF00
C000
C000
C000
C000
C000
C000
C000
C000
ENDCHAR
STARTCHAR CYRILLIC SMALL LETTER UKRAINIAN IE
ENCODING 1108
SWIDTH 784 0
DWIDTH 12 0
BBX 8 10 2 0
BITMAP
3C00
3C00
C300
C300
F000
F000
C300
C300
3C00
3C00
ENDCHAR
STARTCHAR CYRILLIC SMALL LETTER DZE
ENCODING 1109
SWIDTH 784 0
DWIDTH 12 0
BBX 10 10 0 0
BITMAP
3F00
3F00
C000
C000
3F00
3F00
00C0
00C0
FF00
FF00
ENDCHAR
STARTCHAR CYRILLIC SMALL LETTER BYELORUSSIAN-UKRAINIAN I
ENCODING 1110
SWIDTH 784 0
DWIDTH 12 0
BBX 6 14 2 0
BITMAP
3000
3000
0000
0000
F000
F000
3000
3000
3000
3000
3000
3000
FC00
FC00
ENDCHAR
STARTCHAR CYRILLIC SMALL LETTER YI
ENCODING 1111
SWIDTH 784 0
DWIDTH 12 0
BBX 6 14 2 0
BITMAP
CC00
CC00
0000
0000
F000
F000
3000
3000
3000
3000
3000
3000
FC00
FC00
ENDCHAR
STARTCHAR CYRILLIC SMALL LETTER JE
ENCODING 1112
SWIDTH 784 0
DWIDTH 12 0
BBX 8 18 2 -4
BITMAP
0300
0300
0000
0000
0F00
0F00
0300
0300
0300
0300
0300
0300
C300
C300
C300
C300
3C00
3C00
ENDCHAR
STARTCHAR CYRILLIC SMALL LETTER LJE
ENCODING 1113
SWIDTH 784 0
DWIDTH 12 0
BBX 12 10 0 0
BITMAP
0F00
0F00
3300
3300
C3C0
C3C0
C330
C330
C3C0
C3C0
ENDCHAR
STARTCHAR CYRILLIC SMALL LETTER NJE
ENCODING 1114
SWIDTH 784 0
DWIDTH 12 0
BBX 10 10 0 0
BITMAP
CC00
CC00
CC00
CC00
FF00
FF00
CCC0
CCC0
CF00
CF00
ENDCHAR
STARTCHAR CYRILLIC SMALL LETTER TSHE
ENCODING 1115
SWIDTH 784 0
DWIDTH 12 0
BBX 10 14 0 0
BITMAP
3000
3000
FF00
FF00
3000
3000
3F00
3F00
30C0
30C0
30C0
30C0
30C0
30C0
ENDCHAR
STARTCHAR CYRILLIC SMALL LETTER KJE
ENCODING 1116
SWIDTH 784 0
DWIDTH 12 0
BBX 10 14 0 0
BITMAP
0300
0300
0C00
0C00
C0C0
C0C0
C300
C300
FC00
FC00
C300
C300
C0C0
C0C0
ENDCHAR
STARTCHAR CYRILLIC SMALL LETTER SHORT U
ENCODING 1118
SWIDTH 784 0
DWIDTH 12 0
BBX 10 18 0 -4
BITMAP
3300
3300
0C00
0C00
C0C0
C0C0
C0C0
C0C0
C3C0
C3C0
3CC0
3CC0
00C0
00C0
C0C0
C0C0
3F00
3F00
ENDCHAR
STARTCHAR CYRILLIC SMALL LETTER DZHE
ENCODING 1119
SWIDTH 784 0
DWIDTH 12 0
BBX 10 12 0 -2
BITMAP
C0C0
C0C0
C0C0
C0C0
C0C0
C0C0
C0C0
C0C0
FFC0
FFC0
0C00
0C00
ENDCHAR
STARTCHAR CYRILLIC CAPITAL LETTER YAT
ENCODING 1122
SWIDTH 784 0
DWIDTH 12 0
BBX 10 14 0 0
BITMAP
3000
3000
FF00
FF00
3000
3000
3F00
3F00
30C0
30C0
30C0
30C0
3F00
3F00
ENDCHAR
STARTCHAR CYRILLIC SMALL LETTER YAT
ENCODING 1123
SWIDTH 784 0
DWIDTH 12 0
BBX 10 14 0 0
BITMAP
3000
3000
3000
3000
FF00
FF00
3000
3000
3F00
3F00
30C0
30C0
3F00
3F00
ENDCHAR
STARTCHAR CYRILLIC CAPITAL LETTER PSI
ENCODING 1136
SWIDTH 784 0
DWIDTH 12 0
BBX 10 14 0 0
BITMAP
CCC0
CCC0
CCC0
CCC0
CCC0
CCC0
3F00
3F00
0C00
0C00
0C00
0C00
0C00
0C00
ENDCHAR
STARTCHAR CYRILLIC SMALL LETTER PSI
ENCODING 1137
SWIDTH 784 0
DWIDTH 12 0
BBX 10 10 0 0
BITMAP
CCC0
CCC0
CCC0
CCC0
3F00
3F00
0C00
0C00
0C00
0C00
ENDCHAR
STARTCHAR CYRILLIC CAPITAL LETTER FITA
ENCODING 1138
SWIDTH 784 0
DWIDTH 12 0
BBX 10 14 0 0
BITMAP
3F00
3F00
C0C0
C0C0
C0C0
C0C0
FFC0
FFC0
C0C0
C0C0
C0C0
C0C0
3F00
3F00
ENDCHAR
STARTCHAR CYRILLIC SMALL LETTER FITA
ENCODING 1139
SWIDTH 784 0
DWIDTH 12 0
BBX 10 10 0 0
BITMAP
3F00
3F00
C0C0
C0C0
FFC0
FFC0
C0C0
C0C0
3F00
3F00
ENDCHAR
STARTCHAR CYRILLIC CAPITAL LETTER IZHITSA
ENCODING 1140
SWIDTH 784 0
DWIDTH 12 0
BBX 10 14 0 0
BITMAP
C0C0
C0C0
C300
C300
C300
C300
3300
3300
3300
3300
3300
3300
0C00
0C00
ENDCHAR
STARTCHAR CYRILLIC SMALL LETTER IZHITSA
ENCODING 1141
SWIDTH 784 0
DWIDTH 12 0
BBX 10 10 0 0
BITMAP
C0C0
C0C0
C300
C300
3300
3300
3300
3300
0C00
0C00
ENDCHAR
STARTCHAR CYRILLIC CAPITAL LETTER IZHITSA WITH DOUBLE GRAVE ACCENT
ENCODING 1142
SWIDTH 784 0
DWIDTH 12 0
BBX 10 16 0 0
BITMAP
3300
3300
0CC0
0CC0
C000
C000
C0C0
C0C0
3300
3300
3300
3300
3300
3300
0C00
0C00
ENDCHAR
STARTCHAR CYRILLIC SMALL LETTER IZHITSA WITH DOUBLE GRAVE ACCENT
ENCODING 1143
SWIDTH 784 0
DWIDTH 12 0
BBX 10 14 0 0
BITMAP
3300
3300
0CC0
0CC0
C000
C000
C0C0
C0C0
3300
3300
3300
3300
0C00
0C00
ENDCHAR
STARTCHAR CYRILLIC CAPITAL LETTER GHE WITH UPTURN
ENCODING 1168
SWIDTH 784 0
DWIDTH 12 0
BBX 10 16 0 0
BITMAP
00C0
00C0
FFC0
FFC0
C000
C000
C000
C000
C000
C000
C000
C000
C000
C000
C000
C000
ENDCHAR
STARTCHAR CYRILLIC SMALL LETTER GHE WITH UPTURN
ENCODING 1169
SWIDTH 784 0
DWIDTH 12 0
BBX 8 12 2 0
BITMAP
0300
0300
FF00
FF00
C000
C000
C000
C000
C000
C000
C000
C000
ENDCHAR
STARTCHAR CYRILLIC CAPITAL LETTER GHE WITH STROKE
ENCODING 1170
SWIDTH 784 0
DWIDTH 12 0
BBX 10 14 0 0
BITMAP
3FC0
3FC0
3000
3000
3000
3000
FF00
FF00
3000
3000
3000
3000
3000
3000
ENDCHAR
STARTCHAR CYRILLIC SMALL LETTER GHE WITH STROKE
ENCODING 1171
SWIDTH 784 0
DWIDTH 12 0
BBX 10 10 0 0
BITMAP
3FC0
3FC0
3000
3000
FF00
FF00
3000
3000
3000
3000
ENDCHAR
STARTCHAR CYRILLIC CAPITAL LETTER ZHE WITH DESCENDER
ENCODING 1174
SWIDTH 784 0
DWIDTH 12 0
BBX 12 18 0 -4
BITMAP
CCC0
CCC0
CCC0
CCC0
CCC0
CCC0
3F00
3F00
CCC0
CCC0
CCC0
CCC0
CCC0
CCC0
0030
0030
0030
0030
ENDCHAR
STARTCHAR CYRILLIC SMALL LETTER ZHE WITH DESCENDER
ENCODING 1175
SWIDTH 784 0
DWIDTH 12 0
BBX 12 14 0 -4
BITMAP
CCC0
CCC0
CCC0
CCC0
3F00
3F00
CCC0
CCC0
CCC0
CCC0
0030
0030
0030
0030
ENDCHAR
STARTCHAR CYRILLIC CAPITAL LETTER KA WITH DESCENDER
ENCODING 1178
SWIDTH 784 0
DWIDTH 12 0
BBX 12 18 0 -4
BITMAP
C0C0
C0C0
C300
C300
CC00
CC00
F000
F000
CC00
CC00
C300
C300
C0C0
C0C0
0030
0030
0030
0030
ENDCHAR
STARTCHAR CYRILLIC SMALL LETTER KA WITH DESCENDER
ENCODING 1179
SWIDTH 784 0
DWIDTH 12 0
BBX 12 14 0 -4
BITMAP
C0C0
C0C0
C300
C300
FC00
FC00
C300
C300
C0C0
C0C0
0030
0030
0030
0030
ENDCHAR
STARTCHAR CYRILLIC CAPITAL LETTER STRAIGHT U
ENCODING 1198
SWIDTH 784 0
DWIDTH 12 0
BBX 10 14 0 0
BITMAP
C0C0
C0C0
C0C0
C0C0
3300
3300
0C00
0C00
0C00
0C00
0C00
0C00
0C00
0C00
ENDCHAR
STARTCHAR CYRILLIC SMALL LETTER STRAIGHT U
ENCODING 1199
SWIDTH 784 0
DWIDTH 12 0
BBX 10 14 0 -4
BITMAP
C0C0
C0C0
C0C0
C0C0
3300
3300
0C00
0C00
0C00
0C00
0C00
0C00
0C00
0C00
ENDCHAR
STARTCHAR CYRILLIC CAPITAL LETTER STRAIGHT U WITH STROKE
ENCODING 1200
SWIDTH 784 0
DWIDTH 12 0
BBX 10 14 0 0
BITMAP
C0C0
C0C0
C0C0
C0C0
3300
3300
FFC0
FFC0
0C00
0C00
0C00
0C00
0C00
0C00
ENDCHAR
STARTCHAR CYRILLIC SMALL LETTER STRAIGHT U WITH STROKE
ENCODING 1201
SWIDTH 784 0
DWIDTH 12 0
BBX 10 14 0 -4
BITMAP
C0C0
C0C0
C0C0
C0C0
3300
3300
FFC0
FFC0
0C00
0C00
0C00
0C00
0C00
0C00
ENDCHAR
STARTCHAR CYRILLIC CAPITAL LETTER HA WITH DESCENDER
ENCODING 1202
SWIDTH 784 0
DWIDTH 12 0
BBX 12 18 0 -4
BITMAP
C0C0
C0C0
C0C0
C0C0
3300
3300
0C00
0C00
3300
3300
C0C0
C0C0
C0C0
C0C0
0030
0030
0030
0030
ENDCHAR
STARTCHAR CYRILLIC SMALL LETTER HA WITH DESCENDER
ENCODING 1203
SWIDTH 784 0
DWIDTH 12 0
BBX 12 14 0 -4
BITMAP
C0C0
C0C0
3300
3300
0C00
0C00
3300
3300
C0C0
C0C0
0030
0030
0030
0030
ENDCHAR
STARTCHAR CYRILLIC CAPITAL LETTER SHHA
ENCODING 1210
SWIDTH 784 0
DWIDTH 12 0
BBX 10 14 0 0
BITMAP
C000
C000
C000
C000
FF00
FF00
C0C0
C0C0
C0C0
C0C0
C0C0
C0C0
C0C0
C0C0
ENDCHAR
STARTCHAR CYRILLIC SMALL LETTER SHHA
ENCODING 1211
SWIDTH 784 0
DWIDTH 12 0
BBX 8 14 2 0
BITMAP
C000
C000
C000
C000
CC00
CC00
F300
F300
C300
C300
C300
C300
C300
C300
ENDCHAR
STARTCHAR CYRILLIC CAPITAL LETTER SCHWA
ENCODING 1240
SWIDTH 784 0
DWIDTH 12 0
BBX 10 14 0 0
BITMAP
3F00
3F00
C0C0
C0C0
00C0
00C0
FFC0
FFC0
C0C0
C0C0
C0C0
C0C0
3F00
3F00
ENDCHAR
STARTCHAR CYRILLIC SMALL LETTER SCHWA
ENCODING 1241
SWIDTH 784 0
DWIDTH 12 0
BBX 10 10 0 0
BITMAP
3F00
3F00
00C0
00C0
FFC0
FFC0
C0C0
C0C0
3F00
3F00
ENDCHAR
STARTCHAR CYRILLIC CAPITAL LETTER I WITH MACRON
ENCODING 1250
SWIDTH 784 0
DWIDTH 12 0
BBX 6 16 2 0
BITMAP
FC00
FC00
0000
0000
FC00
FC00
3000
3000
3000
3000
3000
3000
3000
3000
FC00
FC00
ENDCHAR
STARTCHAR CYRILLIC SMALL LETTER I WITH MACRON
ENCODING 1251
SWIDTH 784 0
DWIDTH 12 0
BBX 6 14 2 0
BITMAP
FC00
FC00
0000
0000
F000
F000
3000
3000
3000
3000
3000
3000
FC00
FC00
ENDCHAR
STARTCHAR CYRILLIC CAPITAL LETTER BARRED O
ENCODING 1256
SWIDTH 784 0
DWIDTH 12 0
BBX 10 14 0 0
BITMAP
3F00
3F00
C0C0
C0C0
C0C0
C0C0
FFC0
FFC0
C0C0
C0C0
C0C0
C0C0
3F00
3F00
ENDCHAR
STARTCHAR CYRILLIC SMALL LETTER BARRED O
ENCODING 1257
SWIDTH 784 0
DWIDTH 12 0
BBX 10 10 0 0
BITMAP
3F00
3F00
C0C0
C0C0
FFC0
FFC0
C0C0
C0C0
3F00
3F00
ENDCHAR
STARTCHAR CYRILLIC CAPITAL LETTER U WITH MACRON
ENCODING 1262
SWIDTH 784 0
DWIDTH 12 0
BBX 10 16 0 0
BITMAP
3F00
3F00
0000
0000
C0C0
C0C0
C0C0
C0C0
C0C0
C0C0
C0C0
C0C0
C0C0
C0C0
3F00
3F00
ENDCHAR
STARTCHAR CYRILLIC SMALL LETTER U WITH MACRON
ENCODING 1263
SWIDTH 784 0
DWIDTH 12 0
BBX 10 14 0 0
BITMAP
3F00
3F00
0000
0000
C0C0
C0C0
C0C0
C0C0
C0C0
C0C0
C3C0
C3C0
3CC0
3CC0
ENDCHAR
STARTCHAR HEBREW LETTER ALEF
ENCODING 1488
SWIDTH 784 0
DWIDTH 12 0
BBX 10 10 0 0
BITMAP
C300
C300
30C0
30C0
CF00
CF00
C300
C300
F0C0
F0C0
ENDCHAR
STARTCHAR HEBREW LETTER BET
ENCODING 1489
SWIDTH 784 0
DWIDTH 12 0
BBX 10 10 0 0
BITMAP
FF00
FF00
00C0
00C0
00C0
00C0
00C0
00C0
FFC0
FFC0
ENDCHAR
STARTCHAR HEBREW LETTER GIMEL
ENCODING 1490
SWIDTH 784 0
DWIDTH 12 0
BBX 8 10 2 0
BITMAP
3C00
3C00
0C00
0C00
0C00
0C00
0C00
0C00
F300
F300
ENDCHAR
STARTCHAR HEBREW LETTER DALET
ENCODING 1491
SWIDTH 784 0
DWIDTH 12 0
BBX 10 10 0 0
BITMAP
FFC0
FFC0
0300
0300
0300
0300
0300
0300
0300
0300
ENDCHAR
STARTCHAR HEBREW LETTER HE
ENCODING 1492
SWIDTH 784 0
DWIDTH 12 0
BBX 10 10 0 0
BITMAP
FFC0
FFC0
0300
0300
C300
C300
C300
C300
C300
C300
ENDCHAR
STARTCHAR HEBREW LETTER VAV
ENCODING 1493
SWIDTH 784 0
DWIDTH 12 0
BBX 4 10 4 0
BITMAP
F000
F000
3000
3000
3000
3000
3000
3000
3000
3000
ENDCHAR
STARTCHAR HEBREW LETTER ZAYIN
ENCODING 1494
SWIDTH 784 0
DWIDTH 12 0
BBX 6 12 2 0
BITMAP
C000
C000
3C00
3C00
3000
3000
3000
3000
3000
3000
3000
3000
ENDCHAR
STARTCHAR HEBREW LETTER HET
ENCODING 1495
SWIDTH 784 0
DWIDTH 12 0
BBX 10 10 0 0
BITMAP
FFC0
FFC0
C0C0
C0C0
C0C0
C0C0
C0C0
C0C0
C0C0
C0C0
ENDCHAR
STARTCHAR HEBREW LETTER TET
ENCODING 1496
SWIDTH 784 0
DWIDTH 12 0
BBX 10 10 0 0
BITMAP
CFC0
CFC0
CCC0
CCC0
C0C0
C0C0
C0C0
C0C0
FFC0
FFC0
ENDCHAR
STARTCHAR HEBREW LETTER YOD
ENCODING 1497
SWIDTH 784 0
DWIDTH 12 0
BBX 4 4 4 6
BITMAP
F000
F000
3000
3000
ENDCHAR
STARTCHAR HEBREW LETTER FINAL KAF
ENCODING 1498
SWIDTH 784 0
DWIDTH 12 0
BBX 6 14 2 -4
BITMAP
FC00
FC00
0C00
0C00
0C00
0C00
0C00
0C00
0C00
0C00
0C00
0C00
0C00
0C00
ENDCHAR
STARTCHAR HEBREW LETTER KAF
ENCODING 1499
SWIDTH 784 0
DWIDTH 12 0
BBX 10 10 0 0
BITMAP
FF00
FF00
00C0
00C0
00C0
00C0
00C0
00C0
FF00
FF00
ENDCHAR
STARTCHAR HEBREW LETTER LAMED
ENCODING 1500
SWIDTH 784 0
DWIDTH 12 0
BBX 10 14 0 0
BITMAP
C000
C000
C000
C000
FF00
FF00
00C0
00C0
00C0
00C0
0300
0300
0C00
0C00
ENDCHAR
STARTCHAR HEBREW LETTER FINAL MEM
ENCODING 1501
SWIDTH 784 0
DWIDTH 12 0
BBX 10 10 0 0
BITMAP
FF00
FF00
C0C0
C0C0
C0C0
C0C0
C0C0
C0C0
FFC0
FFC0
ENDCHAR
STARTCHAR HEBREW LETTER MEM
ENCODING 1502
SWIDTH 784 0
DWIDTH 12 0
BBX 10 10 0 0
BITMAP
CF00
CF00
30C0
30C0
C0C0
C0C0
C0C0
C0C0
CFC0
CFC0
ENDCHAR
STARTCHAR HEBREW LETTER FINAL NUN
ENCODING 1503
SWIDTH 784 0
DWIDTH 12 0
BBX 4 14 4 -4
BITMAP
F000
F000
3000
3000
3000
3000
3000
3000
3000
3000
3000
3000
3000
3000
ENDCHAR
STARTCHAR HEBREW LETTER NUN
ENCODING 1504
SWIDTH 784 0
DWIDTH 12 0
BBX 4 10 4 0
BITMAP
F000
F000
3000
3000
3000
3000
3000
3000
F000
F000
ENDCHAR
STARTCHAR HEBREW LETTER SAMEKH
ENCODING 1505
SWIDTH 784 0
DWIDTH 12 0
BBX 10 10 0 0
BITMAP
FFC0
FFC0
C0C0
C0C0
C0C0
C0C0
C0C0
C0C0
3F00
3F00
ENDCHAR
STARTCHAR HEBREW LETTER AYIN
ENCODING 1506
SWIDTH 784 0
DWIDTH 12 0
BBX 10 10 0 0
BITMAP
30C0
30C0
30C0
30C0
30C0
30C0
30C0
30C0
FF00
FF00
ENDCHAR
STARTCHAR HEBREW LETTER FINAL PE
ENCODING 1507
SWIDTH 784 0
DWIDTH 12 0
BBX 8 14 2 -4
BITMAP
FF00
FF00
C300
C300
F300
F300
0300
0300
0300
0300
0300
0300
0300
0300
ENDCHAR
STARTCHAR HEBREW LETTER PE
ENCODING 1508
SWIDTH 784 0
DWIDTH 12 0
BBX 10 10 0 0
BITMAP
FC00
FC00
C300
C300
F0C0
F0C0
00C0
00C0
FFC0
FFC0
ENDCHAR
STARTCHAR HEBREW LETTER FINAL TSADI
ENCODING 1509
SWIDTH 784 0
DWIDTH 12 0
BBX 6 14 2 -4
BITMAP
CC00
CC00
CC00
CC00
CC00
CC00
F000
F000
C000
C000
C000
C000
C000
C000
ENDCHAR
STARTCHAR HEBREW LETTER TSADI
ENCODING 1510
SWIDTH 784 0
DWIDTH 12 0
BBX 10 10 0 0
BITMAP
C0C0
C0C0
3300
3300
0C00
0C00
0300
0300
FFC0
FFC0
ENDCHAR
STARTCHAR HEBREW LETTER QOF
ENCODING 1511
SWIDTH 784 0
DWIDTH 12 0
BBX 10 14 0 -4
BITMAP
FFC0
FFC0
00C0
00C0
C0C0
C0C0
C0C0
C0C0
FF00
FF00
C000
C000
C000
C000
ENDCHAR
STARTCHAR HEBREW LETTER RESH
ENCODING 1512
SWIDTH 784 0
DWIDTH 12 0
BBX 10 10 0 0
BITMAP
FF00
FF00
00C0
00C0
00C0
00C0
00C0
00C0
00C0
00C0
ENDCHAR
STARTCHAR HEBREW LETTER SHIN
ENCODING 1513
SWIDTH 784 0
DWIDTH 12 0
BBX 10 10 0 0
BITMAP
CCC0
CCC0
CCC0
CCC0
F0C0
F0C0
C0C0
C0C0
FF00
FF00
ENDCHAR
STARTCHAR HEBREW LETTER TAV
ENCODING 1514
SWIDTH 784 0
DWIDTH 12 0
BBX 10 10 0 0
BITMAP
FFC0
FFC0
C0C0
C0C0
C0C0
C0C0
30C0
30C0
C0C0
C0C0
ENDCHAR
STARTCHAR RUNIC LETTER FEHU FEOH FE F
ENCODING 5792
SWIDTH 784 0
DWIDTH 12 0
BBX 6 14 4 0
BITMAP
CC00
CC00
F000
F000
CC00
CC00
F000
F000
C000
C000
C000
C000
C000
C000
ENDCHAR
STARTCHAR RUNIC LETTER URUZ UR U
ENCODING 5794
SWIDTH 784 0
DWIDTH 12 0
BBX 8 14 2 0
BITMAP
F000
F000
CC00
CC00
CC00
CC00
C300
C300
C300
C300
C300
C300
C300
C300
ENDCHAR
STARTCHAR RUNIC LETTER YR
ENCODING 5795
SWIDTH 784 0
DWIDTH 12 0
BBX 10 14 0 0
BITMAP
0C00
0C00
3300
3300
C0C0
C0C0
C0C0
C0C0
CCC0
CCC0
CCC0
CCC0
CCC0
CCC0
ENDCHAR
STARTCHAR RUNIC LETTER THURISAZ THURS THORN
ENCODING 5798
SWIDTH 784 0
DWIDTH 12 0
BBX 6 14 4 0
BITMAP
C000
C000
C000
C000
F000
F000
CC00
CC00
F000
F000
C000
C000
C000
C000
ENDCHAR
STARTCHAR RUNIC LETTER OS O
ENCODING 5801
SWIDTH 784 0
DWIDTH 12 0
BBX 10 14 0 0
BITMAP
C0C0
C0C0
F300
F300
CCC0
CCC0
F300
F300
CC00
CC00
C000
C000
C000
C000
ENDCHAR
STARTCHAR RUNIC LETTER AC A
ENCODING 5802
SWIDTH 784 0
DWIDTH 12 0
BBX 10 14 0 0
BITMAP
C0C0
C0C0
F300
F300
CC00
CC00
F000
F000
CC00
CC00
C000
C000
C000
C000
ENDCHAR
STARTCHAR RUNIC LETTER AESC
ENCODING 5803
SWIDTH 784 0
DWIDTH 12 0
BBX 6 14 4 0
BITMAP
C000
C000
F000
F000
CC00
CC00
F000
F000
CC00
CC00
C000
C000
C000
C000
ENDCHAR
STARTCHAR RUNIC LETTER LONG-BRANCH-OSS O
ENCODING 5804
SWIDTH 784 0
DWIDTH 12 0
BBX 0 0 0 0
BITMAP
ENDCHAR
STARTCHAR RUNIC LETTER RAIDO RAD REID R
ENCODING 5809
SWIDTH 784 0
DWIDTH 12 0
BBX 8 14 2 0
BITMAP
F000
F000
CC00
CC00
C300
C300
CC00
CC00
F000
F000
CC00
CC00
C000
C000
ENDCHAR
STARTCHAR RUNIC LETTER CEN
ENCODING 5811
SWIDTH 784 0
DWIDTH 12 0
BBX 8 14 2 0
BITMAP
C000
C000
C000
C000
F000
F000
CC00
CC00
CC00
CC00
C300
C300
C300
C300
ENDCHAR
STARTCHAR RUNIC LETTER GEBO GYFU G
ENCODING 5815
SWIDTH 784 0
DWIDTH 12 0
BBX 10 14 0 0
BITMAP
C0C0
C0C0
3300
3300
3300
3300
0C00
0C00
3300
3300
3300
3300
C0C0
C0C0
ENDCHAR
STARTCHAR RUNIC LETTER GAR
ENCODING 5816
SWIDTH 784 0
DWIDTH 12 0
BBX 10 14 0 0
BITMAP
C0C0
C0C0
3F00
3F00
3300
3300
CCC0
CCC0
3300
3300
3F00
3F00
C0C0
C0C0
ENDCHAR
STARTCHAR RUNIC LETTER WUNJO WYNN W
ENCODING 5817
SWIDTH 784 0
DWIDTH 12 0
BBX 8 14 2 0
BITMAP
F000
F000
CC00
CC00
C300
C300
CC00
CC00
F000
F000
C000
C000
C000
C000
ENDCHAR
STARTCHAR RUNIC LETTER HAEGL H
ENCODING 5819
SWIDTH 784 0
DWIDTH 12 0
BBX 10 14 0 0
BITMAP
C0C0
C0C0
C0C0
C0C0
F0C0
F0C0
CCC0
CCC0
F3C0
F3C0
CCC0
CCC0
C3C0
C3C0
ENDCHAR
STARTCHAR RUNIC LETTER NAUDIZ NYD NAUD N
ENCODING 5822
SWIDTH 784 0
DWIDTH 12 0
BBX 10 14 0 0
BITMAP
0C00
0C00
CC00
CC00
3C00
3C00
0F00
0F00
0CC0
0CC0
0C00
0C00
0C00
0C00
ENDCHAR
STARTCHAR RUNIC LETTER ISAZ IS ISS I
ENCODING 5825
SWIDTH 784 0
DWIDTH 12 0
BBX 2 14 4 0
BITMAP
C000
C000
C000
C000
C000
C000
C000
C000
C000
C000
C000
C000
C000
C000
ENDCHAR
STARTCHAR RUNIC LETTER GER
ENCODING 5828
SWIDTH 784 0
DWIDTH 12 0
BBX 10 14 0 0
BITMAP
0C00
0C00
0C00
0C00
3F00
3F00
CCC0
CCC0
3F00
3F00
0C00
0C00
0C00
0C00
ENDCHAR
STARTCHAR RUNIC LETTER IWAZ EOH
ENCODING 5831
SWIDTH 784 0
DWIDTH 12 0
BBX 10 14 0 0
BITMAP
0C00
0C00
0F00
0F00
0CC0
0CC0
0C00
0C00
CC00
CC00
3C00
3C00
0C00
0C00
ENDCHAR
STARTCHAR RUNIC LETTER PERTHO PEORTH P
ENCODING 5832
SWIDTH 784 0
DWIDTH 12 0
BBX 10 14 0 0
BITMAP
C0C0
C0C0
F300
F300
CC00
CC00
C000
C000
CC00
CC00
F300
F300
C0C0
C0C0
ENDCHAR
STARTCHAR RUNIC LETTER ALGIZ EOLHX
ENCODING 5833
SWIDTH 784 0
DWIDTH 12 0
BBX 10 14 0 0
BITMAP
CCC0
CCC0
CCC0
CCC0
CCC0
CCC0
3F00
3F00
0C00
0C00
0C00
0C00
0C00
0C00
ENDCHAR
STARTCHAR RUNIC LETTER SIGEL LONG-BRANCH-SOL S
ENCODING 5835
SWIDTH 784 0
DWIDTH 12 0
BBX 10 14 0 0
BITMAP
C000
C000
C0C0
C0C0
C3C0
C3C0
CCC0
CCC0
F0C0
F0C0
C0C0
C0C0
00C0
00C0
ENDCHAR
STARTCHAR RUNIC LETTER TIWAZ TIR TYR T
ENCODING 5839
SWIDTH 784 0
DWIDTH 12 0
BBX 10 14 0 0
BITMAP
0C00
0C00
3F00
3F00
CCC0
CCC0
0C00
0C00
0C00
0C00
0C00
0C00
0C00
0C00
ENDCHAR
STARTCHAR RUNIC LETTER BERKANAN BEORC BJARKAN B
ENCODING 5842
SWIDTH 784 0
DWIDTH 12 0
BBX 8 14 2 0
BITMAP
F000
F000
CC00
CC00
C300
C300
FC00
FC00
C300
C300
CC00
CC00
F000
F000
ENDCHAR
STARTCHAR RUNIC LETTER EHWAZ EH E
ENCODING 5846
SWIDTH 784 0
DWIDTH 12 0
BBX 10 14 0 0
BITMAP
C0C0
C0C0
F3C0
F3C0
CCC0
CCC0
C0C0
C0C0
C0C0
C0C0
C0C0
C0C0
C0C0
C0C0
ENDCHAR
STARTCHAR RUNIC LETTER MANNAZ MAN M
ENCODING 5847
SWIDTH 784 0
DWIDTH 12 0
BBX 10 14 0 0
BITMAP
C0C0
C0C0
F3C0
F3C0
CCC0
CCC0
F3C0
F3C0
C0C0
C0C0
C0C0
C0C0
C0C0
C0C0
ENDCHAR
STARTCHAR RUNIC LETTER LAUKAZ LAGU LOGR L
ENCODING 5850
SWIDTH 784 0
DWIDTH 12 0
BBX 6 14 4 0
BITMAP
C000
C000
F000
F000
CC00
CC00
C000
C000
C000
C000
C000
C000
C000
C000
ENDCHAR
STARTCHAR RUNIC LETTER ING
ENCODING 5853
SWIDTH 784 0
DWIDTH 12 0
BBX 10 14 0 0
BITMAP
C0C0
C0C0
3300
3300
0C00
0C00
3300
3300
0C00
0C00
3300
3300
C0C0
C0C0
ENDCHAR
STARTCHAR RUNIC LETTER DAGAZ DAEG D
ENCODING 5854
SWIDTH 784 0
DWIDTH 12 0
BBX 10 14 0 0
BITMAP
C0C0
C0C0
C0C0
C0C0
F3C0
F3C0
CCC0
CCC0
F3C0
F3C0
C0C0
C0C0
C0C0
C0C0
ENDCHAR
STARTCHAR RUNIC LETTER OTHALAN ETHEL O
ENCODING 5855
SWIDTH 784 0
DWIDTH 12 0
BBX 10 14 0 0
BITMAP
0C00
0C00
3300
3300
C0C0
C0C0
3300
3300
0C00
0C00
3300
3300
C0C0
C0C0
ENDCHAR
STARTCHAR RUNIC LETTER EAR
ENCODING 5856
SWIDTH 784 0
DWIDTH 12 0
BBX 10 14 0 0
BITMAP
CCC0
CCC0
3F00
3F00
0C00
0C00
0C00
0C00
0C00
0C00
0C00
0C00
0C00
0C00
ENDCHAR
STARTCHAR RUNIC LETTER IOR
ENCODING 5857
SWIDTH 784 0
DWIDTH 12 0
BBX 10 14 0 0
BITMAP
CCC0
CCC0
3F00
3F00
0C00
0C00
3F00
3F00
CCC0
CCC0
0C00
0C00
0C00
0C00
ENDCHAR
STARTCHAR RUNIC LETTER CWEORTH
ENCODING 5858
SWIDTH 784 0
DWIDTH 12 0
BBX 10 14 0 0
BITMAP
0CC0
0CC0
0F00
0F00
0C00
0C00
0C00
0C00
0C00
0C00
3C00
3C00
CC00
CC00
ENDCHAR
STARTCHAR RUNIC LETTER CALC
ENCODING 5859
SWIDTH 784 0
DWIDTH 12 0
BBX 10 14 0 0
BITMAP
0C00
0C00
0C00
0C00
0C00
0C00
3F00
3F00
CCC0
CCC0
CCC0
CCC0
CCC0
CCC0
ENDCHAR
STARTCHAR RUNIC LETTER STAN
ENCODING 5861
SWIDTH 784 0
DWIDTH 12 0
BBX 10 14 0 0
BITMAP
C0C0
C0C0
F3C0
F3C0
CCC0
CCC0
C0C0
C0C0
CCC0
CCC0
F3C0
F3C0
C0C0
C0C0
ENDCHAR
STARTCHAR RUNIC SINGLE PUNCTUATION
ENCODING 5867
SWIDTH 784 0
DWIDTH 12 0
BBX 2 2 4 6
BITMAP
C000
C000
ENDCHAR
STARTCHAR RUNIC MULTIPLE PUNCTUATION
ENCODING 5868
SWIDTH 784 0
DWIDTH 12 0
BBX 2 6 4 4
BITMAP
C000
C000
0000
0000
C000
C000
ENDCHAR
STARTCHAR RUNIC CROSS PUNCTUATION
ENCODING 5869
SWIDTH 784 0
DWIDTH 12 0
BBX 6 6 2 4
BITMAP
CC00
CC00
3000
3000
CC00
CC00
ENDCHAR
STARTCHAR LATIN CAPITAL LETTER B WITH DOT ABOVE
ENCODING 7682
SWIDTH 784 0
DWIDTH 12 0
BBX 10 16 0 0
BITMAP
0C00
0C00
0000
0000
FF00
FF00
C0C0
C0C0
FF00
FF00
C0C0
C0C0
C0C0
C0C0
FF00
FF00
ENDCHAR
STARTCHAR LATIN SMALL LETTER B WITH DOT ABOVE
ENCODING 7683
SWIDTH 784 0
DWIDTH 12 0
BBX 10 14 0 0
BITMAP
C300
C300
C000
C000
CF00
CF00
F0C0
F0C0
C0C0
C0C0
F0C0
F0C0
CF00
CF00
ENDCHAR
STARTCHAR LATIN CAPITAL LETTER B WITH DOT BELOW
ENCODING 7684
SWIDTH 784 0
DWIDTH 12 0
BBX 0 0 0 0
BITMAP
ENDCHAR
STARTCHAR LATIN CAPITAL LETTER D WITH DOT ABOVE
ENCODING 7690
SWIDTH 784 0
DWIDTH 12 0
BBX 10 16 0 0
BITMAP
0C00
0C00
0000
0000
FF00
FF00
C0C0
C0C0
C0C0
C0C0
C0C0
C0C0
C0C0
C0C0
FF00
FF00
ENDCHAR
STARTCHAR LATIN SMALL LETTER D WITH DOT ABOVE
ENCODING 7691
SWIDTH 784 0
DWIDTH 12 0
BBX 10 16 0 0
BITMAP
0C00
0C00
00C0
00C0
00C0
00C0
3CC0
3CC0
C3C0
C3C0
C0C0
C0C0
C3C0
C3C0
3CC0
3CC0
ENDCHAR
STARTCHAR LATIN CAPITAL LETTER F WITH DOT ABOVE
ENCODING 7710
SWIDTH 784 0
DWIDTH 12 0
BBX 10 16 0 0
BITMAP
0C00
0C00
0000
0000
FFC0
FFC0
C000
C000
FF00
FF00
C000
C000
C000
C000
C000
C000
ENDCHAR
STARTCHAR LATIN SMALL LETTER F WITH DOT ABOVE
ENCODING 7711
SWIDTH 784 0
DWIDTH 12 0
BBX 10 16 0 0
BITMAP
0C00
0C00
0000
0000
0F00
0F00
30C0
30C0
3000
3000
FF00
FF00
3000
3000
3000
3000
ENDCHAR
STARTCHAR LATIN CAPITAL LETTER M WITH DOT ABOVE
ENCODING 7744
SWIDTH 784 0
DWIDTH 12 0
BBX 10 16 0 0
BITMAP
0C00
0C00
C0C0
C0C0
C0C0
C0C0
F3C0
F3C0
CCC0
CCC0
C0C0
C0C0
C0C0
C0C0
C0C0
C0C0
ENDCHAR
STARTCHAR LATIN SMALL LETTER M WITH DOT ABOVE
ENCODING 7745
SWIDTH 784 0
DWIDTH 12 0
BBX 10 14 0 0
BITMAP
0C00
0C00
0000
0000
F300
F300
CCC0
CCC0
CCC0
CCC0
CCC0
CCC0
C0C0
C0C0
ENDCHAR
STARTCHAR LATIN CAPITAL LETTER P WITH DOT ABOVE
ENCODING 7766
SWIDTH 784 0
DWIDTH 12 0
BBX 10 16 0 0
BITMAP
0C00
0C00
0000
0000
FF00
FF00
C0C0
C0C0
C0C0
C0C0
FF00
FF00
C000
C000
C000
C000
ENDCHAR
STARTCHAR LATIN SMALL LETTER P WITH DOT ABOVE
ENCODING 7767
SWIDTH 784 0
DWIDTH 12 0
BBX 10 18 0 -4
BITMAP
0C00
0C00
0000
0000
CF00
CF00
F0C0
F0C0
C0C0
C0C0
F0C0
F0C0
CF00
CF00
C000
C000
C000
C000
ENDCHAR
STARTCHAR LATIN CAPITAL LETTER S WITH DOT ABOVE
ENCODING 7776
SWIDTH 784 0
DWIDTH 12 0
BBX 10 16 0 0
BITMAP
0C00
0C00
0000
0000
3F00
3F00
C000
C000
3F00
3F00
00C0
00C0
C0C0
C0C0
3F00
3F00
ENDCHAR
STARTCHAR LATIN SMALL LETTER S WITH DOT ABOVE
ENCODING 7777
SWIDTH 784 0
DWIDTH 12 0
BBX 10 14 0 0
BITMAP
0C00
0C00
0000
0000
3F00
3F00
C000
C000
3F00
3F00
00C0
00C0
FF00
FF00
ENDCHAR
STARTCHAR LATIN CAPITAL LETTER T WITH DOT ABOVE
ENCODING 7786
SWIDTH 784 0
DWIDTH 12 0
BBX 10 16 0 0
BITMAP
0C00
0C00
0000
0000
FFC0
FFC0
0C00
0C00
0C00
0C00
0C00
0C00
0C00
0C00
0C00
0C00
ENDCHAR
STARTCHAR LATIN SMALL LETTER T WITH DOT ABOVE
ENCODING 7787
SWIDTH 784 0
DWIDTH 12 0
BBX 10 16 0 0
BITMAP
3000
3000
0000
0000
3000
3000
FF00
FF00
3000
3000
3000
3000
30C0
30C0
0F00
0F00
ENDCHAR
STARTCHAR LATIN CAPITAL LETTER W WITH GRAVE
ENCODING 7808
SWIDTH 784 0
DWIDTH 12 0
BBX 10 16 0 0
BITMAP
3000
3000
0C00
0C00
C0C0
C0C0
C0C0
C0C0
CCC0
CCC0
CCC0
CCC0
F3C0
F3C0
C0C0
C0C0
ENDCHAR
STARTCHAR LATIN SMALL LETTER W WITH GRAVE
ENCODING 7809
SWIDTH 784 0
DWIDTH 12 0
BBX 10 14 0 0
BITMAP
3000
3000
0C00
0C00
C0C0
C0C0
C0C0
C0C0
CCC0
CCC0
CCC0
CCC0
3300
3300
ENDCHAR
STARTCHAR LATIN CAPITAL LETTER W WITH ACUTE
ENCODING 7810
SWIDTH 784 0
DWIDTH 12 0
BBX 10 16 0 0
BITMAP
0300
0300
0C00
0C00
C0C0
C0C0
C0C0
C0C0
CCC0
CCC0
CCC0
CCC0
F3C0
F3C0
C0C0
C0C0
ENDCHAR
STARTCHAR LATIN SMALL LETTER W WITH ACUTE
ENCODING 7811
SWIDTH 784 0
DWIDTH 12 0
BBX 10 14 0 0
BITMAP
0300
0300
0C00
0C00
C0C0
C0C0
C0C0
C0C0
CCC0
CCC0
CCC0
CCC0
3300
3300
ENDCHAR
STARTCHAR LATIN CAPITAL LETTER W WITH DIAERESIS
ENCODING 7812
SWIDTH 784 0
DWIDTH 12 0
BBX 10 16 0 0
BITMAP
3300
3300
0000
0000
C0C0
C0C0
C0C0
C0C0
CCC0
CCC0
CCC0
CCC0
F3C0
F3C0
C0C0
C0C0
ENDCHAR
STARTCHAR LATIN SMALL LETTER W WITH DIAERESIS
ENCODING 7813
SWIDTH 784 0
DWIDTH 12 0
BBX 10 14 0 0
BITMAP
3300
3300
0000
0000
C0C0
C0C0
C0C0
C0C0
CCC0
CCC0
CCC0
CCC0
3300
3300
ENDCHAR
STARTCHAR LATIN CAPITAL LETTER Y WITH GRAVE
ENCODING 7922
SWIDTH 784 0
DWIDTH 12 0
BBX 10 16 0 0
BITMAP
3000
3000
0C00
0C00
C0C0
C0C0
3300
3300
0C00
0C00
0C00
0C00
0C00
0C00
0C00
0C00
ENDCHAR
STARTCHAR LATIN SMALL LETTER Y WITH GRAVE
ENCODING 7923
SWIDTH 784 0
DWIDTH 12 0
BBX 12 20 0 -4
BITMAP
3000
3000
0C00
0C00
0000
0000
C0C0
C0C0
C0C0
C0C0
C3C0
C3C0
3CC0
3CC0
00C0
00C0
C0C0
C0C0
3F00
3F00
ENDCHAR
STARTCHAR GREEK SMALL LETTER ALPHA WITH PSILI
ENCODING 7936
SWIDTH 784 0
DWIDTH 12 0
BBX 10 16 0 0
BITMAP
0F00
0F00
0300
0300
0C00
0C00
3F00
3F00
C0C0
C0C0
C0C0
C0C0
C3C0
C3C0
3CC0
3CC0
ENDCHAR
STARTCHAR GREEK SMALL LETTER ALPHA WITH DASIA
ENCODING 7937
SWIDTH 784 0
DWIDTH 12 0
BBX 10 16 0 0
BITMAP
0F00
0F00
0C00
0C00
0300
0300
3F00
3F00
C0C0
C0C0
C0C0
C0C0
C3C0
C3C0
3CC0
3CC0
ENDCHAR
STARTCHAR GREEK SMALL LETTER ALPHA WITH PSILI AND VARIA
ENCODING 7938
SWIDTH 784 0
DWIDTH 12 0
BBX 10 16 0 0
BITMAP
3F00
3F00
0CC0
0CC0
3000
3000
3F00
3F00
C0C0
C0C0
C0C0
C0C0
C3C0
C3C0
3CC0
3CC0
ENDCHAR
STARTCHAR GREEK SMALL LETTER ALPHA WITH DASIA AND VARIA
ENCODING 7939
SWIDTH 784 0
DWIDTH 12 0
BBX 10 16 0 0
BITMAP
3F00
3F00
30C0
30C0
0C00
0C00
3F00
3F00
C0C0
C0C0
C0C0
C0C0
C3C0
C3C0
3CC0
3CC0
ENDCHAR
STARTCHAR GREEK SMALL LETTER ALPHA WITH PSILI AND OXIA
ENCODING 7940
SWIDTH 784 0
DWIDTH 12 0
BBX 10 16 0 0
BITMAP
3CC0
3CC0
0F00
0F00
3000
3000
3F00
3F00
C0C0
C0C0
C0C0
C0C0
C3C0
C3C0
3CC0
3CC0
ENDCHAR
STARTCHAR GREEK SMALL LETTER ALPHA WITH DASIA AND OXIA
ENCODING 7941
SWIDTH 784 0
DWIDTH 12 0
BBX 10 16 0 0
BITMAP
3CC0
3CC0
3300
3300
0C00
0C00
3F00
3F00
C0C0
C0C0
C0C0
C0C0
C3C0
C3C0
3CC0
3CC0
ENDCHAR
STARTCHAR GREEK SMALL LETTER ALPHA WITH PSILI AND PERISPOMENI
ENCODING 7942
SWIDTH 784 0
DWIDTH 12 0
BBX 10 16 0 0
BITMAP
3FC0
3FC0
0300
0300
0C00
0C00
3F00
3F00
C0C0
C0C0
C0C0
C0C0
C3C0
C3C0
3CC0
3CC0
ENDCHAR
STARTCHAR GREEK SMALL LETTER ALPHA WITH DASIA AND PERISPOMENI
ENCODING 7943
SWIDTH 784 0
DWIDTH 12 0
BBX 10 16 0 0
BITMAP
3FC0
3FC0
0C00
0C00
0300
0300
3F00
3F00
C0C0
C0C0
C0C0
C0C0
C3C0
C3C0
3CC0
3CC0
ENDCHAR
STARTCHAR GREEK CAPITAL LETTER ALPHA WITH PSILI
ENCODING 7944
SWIDTH 784 0
DWIDTH 12 0
BBX 12 14 0 0
BITMAP
F3C0
F3C0
3C30
3C30
CC30
CC30
0C30
0C30
0FF0
0FF0
0C30
0C30
0C30
0C30
ENDCHAR
STARTCHAR GREEK CAPITAL LETTER ALPHA WITH DASIA
ENCODING 7945
SWIDTH 784 0
DWIDTH 12 0
BBX 12 14 0 0
BITMAP
F3C0
F3C0
CC30
CC30
3C30
3C30
0C30
0C30
0FF0
0FF0
0C30
0C30
0C30
0C30
ENDCHAR
STARTCHAR GREEK CAPITAL LETTER ALPHA WITH PSILI AND VARIA
ENCODING 7946
SWIDTH 784 0
DWIDTH 12 0
BBX 12 14 0 0
BITMAP
F3C0
F3C0
3C30
3C30
CC30
CC30
CC30
CC30
3FF0
3FF0
0C30
0C30
0C30
0C30
ENDCHAR
STARTCHAR GREEK CAPITAL LETTER ALPHA WITH DASIA AND VARIA
ENCODING 7947
SWIDTH 784 0
DWIDTH 12 0
BBX 12 14 0 0
BITMAP
F3C0
F3C0
CC30
CC30
3C30
3C30
CC30
CC30
3FF0
3FF0
0C30
0C30
0C30
0C30
ENDCHAR
STARTCHAR GREEK CAPITAL LETTER ALPHA WITH PSILI AND OXIA
ENCODING 7948
SWIDTH 784 0
DWIDTH 12 0
BBX 12 14 0 0
BITMAP
F3C0
F3C0
3C30
3C30
CC30
CC30
3C30
3C30
CFF0
CFF0
0C30
0C30
0C30
0C30
ENDCHAR
STARTCHAR GREEK CAPITAL LETTER ALPHA WITH DASIA AND OXIA
ENCODING 7949
SWIDTH 784 0
DWIDTH 12 0
BBX 12 14 0 0
BITMAP
F3C0
F3C0
CC30
CC30
3C30
3C30
3C30
3C30
CFF0
CFF0
0C30
0C30
0C30
0C30
ENDCHAR
STARTCHAR GREEK CAPITAL LETTER ALPHA WITH PSILI AND PERISPOMENI
ENCODING 7950
SWIDTH 784 0
DWIDTH 12 0
BBX 12 14 0 0
BITMAP
F3C0
F3C0
0C30
0C30
FC30
FC30
3C30
3C30
CFF0
CFF0
0C30
0C30
0C30
0C30
ENDCHAR
STARTCHAR GREEK CAPITAL LETTER ALPHA WITH DASIA AND PERISPOMENI
ENCODING 7951
SWIDTH 784 0
DWIDTH 12 0
BBX 12 14 0 0
BITMAP
F3C0
F3C0
0C30
0C30
FC30
FC30
CC30
CC30
3FF0
3FF0
0C30
0C30
0C30
0C30
ENDCHAR
STARTCHAR GREEK SMALL LETTER EPSILON WITH PSILI
ENCODING 7952
SWIDTH 784 0
DWIDTH 12 0
BBX 10 16 0 0
BITMAP
0F00
0F00
0300
0300
0C00
0C00
3F00
3F00
C0C0
C0C0
3C00
3C00
C0C0
C0C0
3F00
3F00
ENDCHAR
STARTCHAR GREEK SMALL LETTER EPSILON WITH DASIA
ENCODING 7953
SWIDTH 784 0
DWIDTH 12 0
BBX 10 16 0 0
BITMAP
0F00
0F00
0C00
0C00
0300
0300
3F00
3F00
C0C0
C0C0
3C00
3C00
C0C0
C0C0
3F00
3F00
ENDCHAR
STARTCHAR GREEK SMALL LETTER EPSILON WITH PSILI AND VARIA
ENCODING 7954
SWIDTH 784 0
DWIDTH 12 0
BBX 10 16 0 0
BITMAP
3F00
3F00
0CC0
0CC0
3000
3000
3F00
3F00
C0C0
C0C0
3C00
3C00
C0C0
C0C0
3F00
3F00
ENDCHAR
STARTCHAR GREEK SMALL LETTER EPSILON WITH DASIA AND VARIA
ENCODING 7955
SWIDTH 784 0
DWIDTH 12 0
BBX 10 16 0 0
BITMAP
3F00
3F00
30C0
30C0
0C00
0C00
3F00
3F00
C0C0
C0C0
3C00
3C00
C0C0
C0C0
3F00
3F00
ENDCHAR
STARTCHAR GREEK SMALL LETTER EPSILON WITH PSILI AND OXIA
ENCODING 7956
SWIDTH 784 0
DWIDTH 12 0
BBX 10 16 0 0
BITMAP
3CC0
3CC0
0F00
0F00
3000
3000
3F00
3F00
C0C0
C0C0
3C00
3C00
C0C0
C0C0
3F00
3F00
ENDCHAR
STARTCHAR GREEK SMALL LETTER EPSILON WITH DASIA AND OXIA
ENCODING 7957
SWIDTH 784 0
DWIDTH 12 0
BBX 10 16 0 0
BITMAP
3CC0
3CC0
3300
3300
0C00
0C00
3F00
3F00
C0C0
C0C0
3C00
3C00
C0C0
C0C0
3F00
3F00
ENDCHAR
STARTCHAR GREEK CAPITAL LETTER EPSILON WITH PSILI
ENCODING 7960
SWIDTH 784 0
DWIDTH 12 0
BBX 12 14 0 0
BITMAP
FFF0
FFF0
3C00
3C00
CC00
CC00
0FC0
0FC0
0C00
0C00
0C00
0C00
0FF0
0FF0
ENDCHAR
STARTCHAR GREEK CAPITAL LETTER EPSILON WITH DASIA
ENCODING 7961
SWIDTH 784 0
DWIDTH 12 0
BBX 12 14 0 0
BITMAP
FFF0
FFF0
CC00
CC00
3C00
3C00
0FC0
0FC0
0C00
0C00
0C00
0C00
0FF0
0FF0
ENDCHAR
STARTCHAR GREEK CAPITAL LETTER EPSILON WITH PSILI AND VARIA
ENCODING 7962
SWIDTH 784 0
DWIDTH 12 0
BBX 12 14 0 0
BITMAP
FFF0
FFF0
3C00
3C00
CC00
CC00
CFC0
CFC0
3C00
3C00
0C00
0C00
0FF0
0FF0
ENDCHAR
STARTCHAR GREEK CAPITAL LETTER EPSILON WITH DASIA AND VARIA
ENCODING 7963
SWIDTH 784 0
DWIDTH 12 0
BBX 12 14 0 0
BITMAP
FFF0
FFF0
CC00
CC00
3C00
3C00
CFC0
CFC0
3C00
3C00
0C00
0C00
0FF0
0FF0
ENDCHAR
STARTCHAR GREEK CAPITAL LETTER EPSILON WITH PSILI AND OXIA
ENCODING 7964
SWIDTH 784 0
DWIDTH 12 0
BBX 12 14 0 0
BITMAP
FFF0
FFF0
3C00
3C00
CC00
CC00
3FC0
3FC0
CC00
CC00
0C00
0C00
0FF0
0FF0
ENDCHAR
STARTCHAR GREEK CAPITAL LETTER EPSILON WITH DASIA AND OXIA
ENCODING 7965
SWIDTH 784 0
DWIDTH 12 0
BBX 12 14 0 0
BITMAP
FFF0
FFF0
CC00
CC00
3C00
3C00
3FC0
3FC0
CC00
CC00
0C00
0C00
0FF0
0FF0
ENDCHAR
STARTCHAR GREEK SMALL LETTER ETA WITH PSILI
ENCODING 7968
SWIDTH 784 0
DWIDTH 12 0
BBX 12 20 0 -4
BITMAP
0F00
0F00
0300
0300
0C00
0C00
CF00
CF00
F0C0
F0C0
C0C0
C0C0
C0C0
C0C0
C0C0
C0C0
00C0
00C0
00C0
00C0
ENDCHAR
STARTCHAR GREEK SMALL LETTER ETA WITH DASIA
ENCODING 7969
SWIDTH 784 0
DWIDTH 12 0
BBX 12 20 0 -4
BITMAP
0F00
0F00
0C00
0C00
0300
0300
CF00
CF00
F0C0
F0C0
C0C0
C0C0
C0C0
C0C0
C0C0
C0C0
00C0
00C0
00C0
00C0
ENDCHAR
STARTCHAR GREEK SMALL LETTER ETA WITH PSILI AND VARIA
ENCODING 7970
SWIDTH 784 0
DWIDTH 12 0
BBX 12 20 0 -4
BITMAP
3F00
3F00
0CC0
0CC0
3000
3000
CF00
CF00
F0C0
F0C0
C0C0
C0C0
C0C0
C0C0
C0C0
C0C0
00C0
00C0
00C0
00C0
ENDCHAR
STARTCHAR GREEK SMALL LETTER ETA WITH DASIA AND VARIA
ENCODING 7971
SWIDTH 784 0
DWIDTH 12 0
BBX 12 20 0 -4
BITMAP
3F00
3F00
30C0
30C0
0C00
0C00
CF00
CF00
F0C0
F0C0
C0C0
C0C0
C0C0
C0C0
C0C0
C0C0
00C0
00C0
00C0
00C0
ENDCHAR
STARTCHAR GREEK SMALL LETTER ETA WITH PSILI AND OXIA
ENCODING 7972
SWIDTH 784 0
DWIDTH 12 0
BBX 12 20 0 -4
BITMAP
3CC0
3CC0
0F00
0F00
3000
3000
CF00
CF00
F0C0
F0C0
C0C0
C0C0
C0C0
C0C0
C0C0
C0C0
00C0
00C0
00C0
00C0
ENDCHAR
STARTCHAR GREEK SMALL LETTER ETA WITH DASIA AND OXIA
ENCODING 7973
SWIDTH 784 0
DWIDTH 12 0
BBX 12 20 0 -4
BITMAP
3CC0
3CC0
3300
3300
0C00
0C00
CF00
CF00
F0C0
F0C0
C0C0
C0C0
C0C0
C0C0
C0C0
C0C0
00C0
00C0
00C0
00C0
ENDCHAR
STARTCHAR GREEK SMALL LETTER ETA WITH PSILI AND PERISPOMENI
ENCODING 7974
SWIDTH 784 0
DWIDTH 12 0
BBX 12 20 0 -4
BITMAP
3FC0
3FC0
0300
0300
0C00
0C00
CF00
CF00
F0C0
F0C0
C0C0
C0C0
C0C0
C0C0
C0C0
C0C0
00C0
00C0
00C0
00C0
ENDCHAR
STARTCHAR GREEK SMALL LETTER ETA WITH DASIA AND PERISPOMENI
ENCODING 7975
SWIDTH 784 0
DWIDTH 12 0
BBX 12 20 0 -4
BITMAP
3FC0
3FC0
0C00
0C00
0300
0300
CF00
CF00
F0C0
F0C0
C0C0
C0C0
C0C0
C0C0
C0C0
C0C0
00C0
00C0
00C0
00C0
ENDCHAR
STARTCHAR GREEK CAPITAL LETTER ETA WITH PSILI
ENCODING 7976
SWIDTH 784 0
DWIDTH 12 0
BBX 12 14 0 0
BITMAP
FC30
FC30
3C30
3C30
CC30
CC30
0FF0
0FF0
0C30
0C30
0C30
0C30
0C30
0C30
ENDCHAR
STARTCHAR GREEK CAPITAL LETTER ETA WITH DASIA
ENCODING 7977
SWIDTH 784 0
DWIDTH 12 0
BBX 12 14 0 0
BITMAP
FC30
FC30
CC30
CC30
3C30
3C30
0FF0
0FF0
0C30
0C30
0C30
0C30
0C30
0C30
ENDCHAR
STARTCHAR GREEK CAPITAL LETTER ETA WITH PSILI AND VARIA
ENCODING 7978
SWIDTH 784 0
DWIDTH 12 0
BBX 12 14 0 0
BITMAP
FC30
FC30
3C30
3C30
CC30
CC30
CFF0
CFF0
3C30
3C30
0C30
0C30
0C30
0C30
ENDCHAR
STARTCHAR GREEK CAPITAL LETTER ETA WITH DASIA AND VARIA
ENCODING 7979
SWIDTH 784 0
DWIDTH 12 0
BBX 12 14 0 0
BITMAP
FC30
FC30
CC30
CC30
3C30
3C30
CFF0
CFF0
3C30
3C30
0C30
0C30
0C30
0C30
ENDCHAR
STARTCHAR GREEK CAPITAL LETTER ETA WITH PSILI AND OXIA
ENCODING 7980
SWIDTH 784 0
DWIDTH 12 0
BBX 12 14 0 0
BITMAP
FC30
FC30
3C30
3C30
CC30
CC30
3FF0
3FF0
CC30
CC30
0C30
0C30
0C30
0C30
ENDCHAR
STARTCHAR GREEK CAPITAL LETTER ETA WITH DASIA AND OXIA
ENCODING 7981
SWIDTH 784 0
DWIDTH 12 0
BBX 12 14 0 0
BITMAP
FC30
FC30
CC30
CC30
3C30
3C30
3FF0
3FF0
CC30
CC30
0C30
0C30
0C30
0C30
ENDCHAR
STARTCHAR GREEK CAPITAL LETTER ETA WITH PSILI AND PERISPOMENI
ENCODING 7982
SWIDTH 784 0
DWIDTH 12 0
BBX 12 14 0 0
BITMAP
FC30
FC30
0C30
0C30
FC30
FC30
3FF0
3FF0
CC30
CC30
0C30
0C30
0C30
0C30
ENDCHAR
STARTCHAR GREEK CAPITAL LETTER ETA WITH DASIA AND PERISPOMENI
ENCODING 7983
SWIDTH 784 0
DWIDTH 12 0
BBX 12 14 0 0
BITMAP
FC30
FC30
0C30
0C30
FC30
FC30
CFF0
CFF0
3C30
3C30
0C30
0C30
0C30
0C30
ENDCHAR
STARTCHAR GREEK SMALL LETTER IOTA WITH PSILI
ENCODING 7984
SWIDTH 784 0
DWIDTH 12 0
BBX 6 16 2 0
BITMAP
F000
F000
3000
3000
C000
C000
C000
C000
C000
C000
C000
C000
CC00
CC00
3000
3000
ENDCHAR
STARTCHAR GREEK SMALL LETTER IOTA WITH DASIA
ENCODING 7985
SWIDTH 784 0
DWIDTH 12 0
BBX 6 16 2 0
BITMAP
F000
F000
C000
C000
3000
3000
C000
C000
C000
C000
C000
C000
CC00
CC00
3000
3000
ENDCHAR
STARTCHAR GREEK SMALL LETTER IOTA WITH PSILI AND VARIA
ENCODING 7986
SWIDTH 784 0
DWIDTH 12 0
BBX 8 16 2 0
BITMAP
FC00
FC00
3300
3300
C000
C000
3000
3000
3000
3000
3000
3000
3300
3300
0C00
0C00
ENDCHAR
STARTCHAR GREEK SMALL LETTER IOTA WITH DASIA AND VARIA
ENCODING 7987
SWIDTH 784 0
DWIDTH 12 0
BBX 8 16 2 0
BITMAP
FC00
FC00
C300
C300
3000
3000
3000
3000
3000
3000
3000
3000
3300
3300
0C00
0C00
ENDCHAR
STARTCHAR GREEK SMALL LETTER IOTA WITH PSILI AND OXIA
ENCODING 7988
SWIDTH 784 0
DWIDTH 12 0
BBX 8 16 2 0
BITMAP
F300
F300
3C00
3C00
C000
C000
3000
3000
3000
3000
3000
3000
3300
3300
0C00
0C00
ENDCHAR
STARTCHAR GREEK SMALL LETTER IOTA WITH DASIA AND OXIA
ENCODING 7989
SWIDTH 784 0
DWIDTH 12 0
BBX 8 16 2 0
BITMAP
F300
F300
CC00
CC00
3000
3000
3000
3000
3000
3000
3000
3000
3300
3300
0C00
0C00
ENDCHAR
STARTCHAR GREEK SMALL LETTER IOTA WITH PSILI AND PERISPOMENI
ENCODING 7990
SWIDTH 784 0
DWIDTH 12 0
BBX 8 16 2 0
BITMAP
FF00
FF00
0C00
0C00
3000
3000
3000
3000
3000
3000
3000
3000
3300
3300
0C00
0C00
ENDCHAR
STARTCHAR GREEK SMALL LETTER IOTA WITH DASIA AND PERISPOMENI
ENCODING 7991
SWIDTH 784 0
DWIDTH 12 0
BBX 8 16 2 0
BITMAP
FF00
FF00
3000
3000
0C00
0C00
3000
3000
3000
3000
3000
3000
3300
3300
0C00
0C00
ENDCHAR
STARTCHAR GREEK CAPITAL LETTER IOTA WITH PSILI
ENCODING 7992
SWIDTH 784 0
DWIDTH 12 0
BBX 12 14 0 0
BITMAP
F3F0
F3F0
30C0
30C0
C0C0
C0C0
00C0
00C0
00C0
00C0
00C0
00C0
03F0
03F0
ENDCHAR
STARTCHAR GREEK CAPITAL LETTER IOTA WITH DASIA
ENCODING 7993
SWIDTH 784 0
DWIDTH 12 0
BBX 12 14 0 0
BITMAP
F3F0
F3F0
C0C0
C0C0
30C0
30C0
00C0
00C0
00C0
00C0
00C0
00C0
03F0
03F0
ENDCHAR
STARTCHAR GREEK CAPITAL LETTER IOTA WITH PSILI AND VARIA
ENCODING 7994
SWIDTH 784 0
DWIDTH 12 0
BBX 12 14 0 0
BITMAP
F3F0
F3F0
30C0
30C0
C0C0
C0C0
C0C0
C0C0
30C0
30C0
00C0
00C0
03F0
03F0
ENDCHAR
STARTCHAR GREEK CAPITAL LETTER IOTA WITH DASIA AND VARIA
ENCODING 7995
SWIDTH 784 0
DWIDTH 12 0
BBX 12 14 0 0
BITMAP
F3F0
F3F0
C0C0
C0C0
30C0
30C0
C0C0
C0C0
30C0
30C0
00C0
00C0
03F0
03F0
ENDCHAR
STARTCHAR GREEK CAPITAL LETTER IOTA WITH PSILI AND OXIA
ENCODING 7996
SWIDTH 784 0
DWIDTH 12 0
BBX 12 14 0 0
BITMAP
F3F0
F3F0
30C0
30C0
C0C0
C0C0
30C0
30C0
C0C0
C0C0
00C0
00C0
03F0
03F0
ENDCHAR
STARTCHAR GREEK CAPITAL LETTER IOTA WITH DASIA AND OXIA
ENCODING 7997
SWIDTH 784 0
DWIDTH 12 0
BBX 12 14 0 0
BITMAP
F3F0
F3F0
C0C0
C0C0
30C0
30C0
30C0
30C0
C0C0
C0C0
00C0
00C0
03F0
03F0
ENDCHAR
STARTCHAR GREEK CAPITAL LETTER IOTA WITH PSILI AND PERISPOMENI
ENCODING 7998
SWIDTH 784 0
DWIDTH 12 0
BBX 12 14 0 0
BITMAP
F3F0
F3F0
00C0
00C0
F0C0
F0C0
30C0
30C0
C0C0
C0C0
00C0
00C0
03F0
03F0
ENDCHAR
STARTCHAR GREEK CAPITAL LETTER IOTA WITH DASIA AND PERISPOMENI
ENCODING 7999
SWIDTH 784 0
DWIDTH 12 0
BBX 12 14 0 0
BITMAP
F3F0
F3F0
00C0
00C0
F0C0
F0C0
C0C0
C0C0
30C0
30C0
00C0
00C0
03F0
03F0
ENDCHAR
STARTCHAR GREEK SMALL LETTER OMICRON WITH PSILI
ENCODING 8000
SWIDTH 784 0
DWIDTH 12 0
BBX 10 16 0 0
BITMAP
0F00
0F00
0300
0300
0C00
0C00
3F00
3F00
C0C0
C0C0
C0C0
C0C0
C0C0
C0C0
3F00
3F00
ENDCHAR
STARTCHAR GREEK SMALL LETTER OMICRON WITH DASIA
ENCODING 8001
SWIDTH 784 0
DWIDTH 12 0
BBX 10 16 0 0
BITMAP
0F00
0F00
0C00
0C00
0300
0300
3F00
3F00
C0C0
C0C0
C0C0
C0C0
C0C0
C0C0
3F00
3F00
ENDCHAR
STARTCHAR GREEK SMALL LETTER OMICRON WITH PSILI AND VARIA
ENCODING 8002
SWIDTH 784 0
DWIDTH 12 0
BBX 10 16 0 0
BITMAP
3F00
3F00
0CC0
0CC0
3000
3000
3F00
3F00
C0C0
C0C0
C0C0
C0C0
C0C0
C0C0
3F00
3F00
ENDCHAR
STARTCHAR GREEK SMALL LETTER OMICRON WITH DASIA AND VARIA
ENCODING 8003
SWIDTH 784 0
DWIDTH 12 0
BBX 10 16 0 0
BITMAP
3F00
3F00
30C0
30C0
0C00
0C00
3F00
3F00
C0C0
C0C0
C0C0
C0C0
C0C0
C0C0
3F00
3F00
ENDCHAR
STARTCHAR GREEK SMALL LETTER OMICRON WITH PSILI AND OXIA
ENCODING 8004
SWIDTH 784 0
DWIDTH 12 0
BBX 10 16 0 0
BITMAP
3CC0
3CC0
0F00
0F00
3000
3000
3F00
3F00
C0C0
C0C0
C0C0
C0C0
C0C0
C0C0
3F00
3F00
ENDCHAR
STARTCHAR GREEK SMALL LETTER OMICRON WITH DASIA AND OXIA
ENCODING 8005
SWIDTH 784 0
DWIDTH 12 0
BBX 10 16 0 0
BITMAP
3CC0
3CC0
3300
3300
0C00
0C00
3F00
3F00
C0C0
C0C0
C0C0
C0C0
C0C0
C0C0
3F00
3F00
ENDCHAR
STARTCHAR GREEK CAPITAL LETTER OMICRON WITH PSILI
ENCODING 8008
SWIDTH 784 0
DWIDTH 12 0
BBX 12 14 0 0
BITMAP
F3C0
F3C0
3C30
3C30
CC30
CC30
0C30
0C30
0C30
0C30
0C30
0C30
03C0
03C0
ENDCHAR
STARTCHAR GREEK CAPITAL LETTER OMICRON WITH DASIA
ENCODING 8009
SWIDTH 784 0
DWIDTH 12 0
BBX 12 14 0 0
BITMAP
F3C0
F3C0
CC30
CC30
3C30
3C30
0C30
0C30
0C30
0C30
0C30
0C30
03C0
03C0
ENDCHAR
STARTCHAR GREEK CAPITAL LETTER OMICRON WITH PSILI AND VARIA
ENCODING 8010
SWIDTH 784 0
DWIDTH 12 0
BBX 12 14 0 0
BITMAP
F3C0
F3C0
3C30
3C30
CC30
CC30
CC30
CC30
3C30
3C30
0C30
0C30
03C0
03C0
ENDCHAR
STARTCHAR GREEK CAPITAL LETTER OMICRON WITH DASIA AND VARIA
ENCODING 8011
SWIDTH 784 0
DWIDTH 12 0
BBX 12 14 0 0
BITMAP
F3C0
F3C0
CC30
CC30
3C30
3C30
CC30
CC30
3C30
3C30
0C30
0C30
03C0
03C0
ENDCHAR
STARTCHAR GREEK CAPITAL LETTER OMICRON WITH PSILI AND OXIA
ENCODING 8012
SWIDTH 784 0
DWIDTH 12 0
BBX 12 14 0 0
BITMAP
F3C0
F3C0
3C30
3C30
CC30
CC30
3C30
3C30
CC30
CC30
0C30
0C30
03C0
03C0
ENDCHAR
STARTCHAR GREEK CAPITAL LETTER OMICRON WITH DASIA AND OXIA
ENCODING 8013
SWIDTH 784 0
DWIDTH 12 0
BBX 12 14 0 0
BITMAP
F3C0
F3C0
CC30
CC30
3C30
3C30
3C30
3C30
CC30
CC30
0C30
0C30
03C0
03C0
ENDCHAR
STARTCHAR GREEK SMALL LETTER UPSILON WITH PSILI
ENCODING 8016
SWIDTH 784 0
DWIDTH 12 0
BBX 10 16 0 0
BITMAP
0F00
0F00
0300
0300
0C00
0C00
C0C0
C0C0
C0C0
C0C0
C0C0
C0C0
C0C0
C0C0
3F00
3F00
ENDCHAR
STARTCHAR GREEK SMALL LETTER UPSILON WITH DASIA
ENCODING 8017
SWIDTH 784 0
DWIDTH 12 0
BBX 10 16 0 0
BITMAP
0F00
0F00
0C00
0C00
0300
0300
C0C0
C0C0
C0C0
C0C0
C0C0
C0C0
C0C0
C0C0
3F00
3F00
ENDCHAR
STARTCHAR GREEK SMALL LETTER UPSILON WITH PSILI AND VARIA
ENCODING 8018
SWIDTH 784 0
DWIDTH 12 0
BBX 10 16 0 0
BITMAP
3F00
3F00
0CC0
0CC0
3000
3000
C0C0
C0C0
C0C0
C0C0
C0C0
C0C0
C0C0
C0C0
3F00
3F00
ENDCHAR
STARTCHAR GREEK SMALL LETTER UPSILON WITH DASIA AND VARIA
ENCODING 8019
SWIDTH 784 0
DWIDTH 12 0
BBX 10 16 0 0
BITMAP
3F00
3F00
30C0
30C0
0C00
0C00
C0C0
C0C0
C0C0
C0C0
C0C0
C0C0
C0C0
C0C0
3F00
3F00
ENDCHAR
STARTCHAR GREEK SMALL LETTER UPSILON WITH PSILI AND OXIA
ENCODING 8020
SWIDTH 784 0
DWIDTH 12 0
BBX 10 16 0 0
BITMAP
3CC0
3CC0
0F00
0F00
3000
3000
C0C0
C0C0
C0C0
C0C0
C0C0
C0C0
C0C0
C0C0
3F00
3F00
ENDCHAR
STARTCHAR GREEK SMALL LETTER UPSILON WITH DASIA AND OXIA
ENCODING 8021
SWIDTH 784 0
DWIDTH 12 0
BBX 10 16 0 0
BITMAP
3CC0
3CC0
3300
3300
0C00
0C00
C0C0
C0C0
C0C0
C0C0
C0C0
C0C0
C0C0
C0C0
3F00
3F00
ENDCHAR
STARTCHAR GREEK SMALL LETTER UPSILON WITH PSILI AND PERISPOMENI
ENCODING 8022
SWIDTH 784 0
DWIDTH 12 0
BBX 10 16 0 0
BITMAP
3FC0
3FC0
0300
0300
0C00
0C00
C0C0
C0C0
C0C0
C0C0
C0C0
C0C0
C0C0
C0C0
3F00
3F00
ENDCHAR
STARTCHAR GREEK SMALL LETTER UPSILON WITH DASIA AND PERISPOMENI
ENCODING 8023
SWIDTH 784 0
DWIDTH 12 0
BBX 10 16 0 0
BITMAP
3FC0
3FC0
0C00
0C00
0300
0300
C0C0
C0C0
C0C0
C0C0
C0C0
C0C0
C0C0
C0C0
3F00
3F00
ENDCHAR
STARTCHAR GREEK CAPITAL LETTER UPSILON WITH DASIA
ENCODING 8025
SWIDTH 784 0
DWIDTH 12 0
BBX 12 14 0 0
BITMAP
F330
F330
C330
C330
3330
3330
00C0
00C0
00C0
00C0
00C0
00C0
00C0
00C0
ENDCHAR
STARTCHAR GREEK CAPITAL LETTER UPSILON WITH DASIA AND VARIA
ENCODING 8027
SWIDTH 784 0
DWIDTH 12 0
BBX 12 14 0 0
BITMAP
F330
F330
C330
C330
3330
3330
C0C0
C0C0
30C0
30C0
00C0
00C0
00C0
00C0
ENDCHAR
STARTCHAR GREEK CAPITAL LETTER UPSILON WITH DASIA AND OXIA
ENCODING 8029
SWIDTH 784 0
DWIDTH 12 0
BBX 12 14 0 0
BITMAP
F330
F330
C330
C330
3330
3330
30C0
30C0
C0C0
C0C0
00C0
00C0
00C0
00C0
ENDCHAR
STARTCHAR GREEK CAPITAL LETTER UPSILON WITH DASIA AND PERISPOMENI
ENCODING 8031
SWIDTH 784 0
DWIDTH 12 0
BBX 12 14 0 0
BITMAP
F330
F330
0330
0330
F330
F330
C0C0
C0C0
30C0
30C0
00C0
00C0
00C0
00C0
ENDCHAR
STARTCHAR GREEK SMALL LETTER OMEGA WITH PSILI
ENCODING 8032
SWIDTH 784 0
DWIDTH 12 0
BBX 10 16 0 0
BITMAP
0F00
0F00
0300
0300
0C00
0C00
C0C0
C0C0
CCC0
CCC0
CCC0
CCC0
CCC0
CCC0
3300
3300
ENDCHAR
STARTCHAR GREEK SMALL LETTER OMEGA WITH DASIA
ENCODING 8033
SWIDTH 784 0
DWIDTH 12 0
BBX 10 16 0 0
BITMAP
0F00
0F00
0C00
0C00
0300
0300
C0C0
C0C0
CCC0
CCC0
CCC0
CCC0
CCC0
CCC0
3300
3300
ENDCHAR
STARTCHAR GREEK SMALL LETTER OMEGA WITH PSILI AND VARIA
ENCODING 8034
SWIDTH 784 0
DWIDTH 12 0
BBX 10 16 0 0
BITMAP
3F00
3F00
0CC0
0CC0
3000
3000
C0C0
C0C0
CCC0
CCC0
CCC0
CCC0
CCC0
CCC0
3300
3300
ENDCHAR
STARTCHAR GREEK SMALL LETTER OMEGA WITH DASIA AND VARIA
ENCODING 8035
SWIDTH 784 0
DWIDTH 12 0
BBX 10 16 0 0
BITMAP
3F00
3F00
30C0
30C0
0C00
0C00
C0C0
C0C0
CCC0
CCC0
CCC0
CCC0
CCC0
CCC0
3300
3300
ENDCHAR
STARTCHAR GREEK SMALL LETTER OMEGA WITH PSILI AND OXIA
ENCODING 8036
SWIDTH 784 0
DWIDTH 12 0
BBX 10 16 0 0
BITMAP
3CC0
3CC0
0F00
0F00
3000
3000
C0C0
C0C0
CCC0
CCC0
CCC0
CCC0
CCC0
CCC0
3300
3300
ENDCHAR
STARTCHAR GREEK SMALL LETTER OMEGA WITH DASIA AND OXIA
ENCODING 8037
SWIDTH 784 0
DWIDTH 12 0
BBX 10 16 0 0
BITMAP
3CC0
3CC0
3300
3300
0C00
0C00
C0C0
C0C0
CCC0
CCC0
CCC0
CCC0
CCC0
CCC0
3300
3300
ENDCHAR
STARTCHAR GREEK SMALL LETTER OMEGA WITH PSILI AND PERISPOMENI
ENCODING 8038
SWIDTH 784 0
DWIDTH 12 0
BBX 10 16 0 0
BITMAP
3FC0
3FC0
0300
0300
0C00
0C00
C0C0
C0C0
CCC0
CCC0
CCC0
CCC0
CCC0
CCC0
3300
3300
ENDCHAR
STARTCHAR GREEK SMALL LETTER OMEGA WITH DASIA AND PERISPOMENI
ENCODING 8039
SWIDTH 784 0
DWIDTH 12 0
BBX 10 16 0 0
BITMAP
3FC0
3FC0
0C00
0C00
0300
0300
C0C0
C0C0
CCC0
CCC0
CCC0
CCC0
CCC0
CCC0
3300
3300
ENDCHAR
STARTCHAR GREEK CAPITAL LETTER OMEGA WITH PSILI
ENCODING 8040
SWIDTH 784 0
DWIDTH 12 0
BBX 12 14 0 0
BITMAP
F3C0
F3C0
3C30
3C30
CC30
CC30
0C30
0C30
0C30
0C30
03C0
03C0
0FF0
0FF0
ENDCHAR
STARTCHAR GREEK CAPITAL LETTER OMEGA WITH DASIA
ENCODING 8041
SWIDTH 784 0
DWIDTH 12 0
BBX 12 14 0 0
BITMAP
F3C0
F3C0
CC30
CC30
3C30
3C30
0C30
0C30
0C30
0C30
03C0
03C0
0FF0
0FF0
ENDCHAR
STARTCHAR GREEK CAPITAL LETTER OMEGA WITH PSILI AND VARIA
ENCODING 8042
SWIDTH 784 0
DWIDTH 12 0
BBX 12 14 0 0
BITMAP
F3C0
F3C0
3C30
3C30
CC30
CC30
CC30
CC30
3C30
3C30
03C0
03C0
0FF0
0FF0
ENDCHAR
STARTCHAR GREEK CAPITAL LETTER OMEGA WITH DASIA AND VARIA
ENCODING 8043
SWIDTH 784 0
DWIDTH 12 0
BBX 12 14 0 0
BITMAP
F3C0
F3C0
CC30
CC30
3C30
3C30
CC30
CC30
3C30
3C30
03C0
03C0
0FF0
0FF0
ENDCHAR
STARTCHAR GREEK CAPITAL LETTER OMEGA WITH PSILI AND OXIA
ENCODING 8044
SWIDTH 784 0
DWIDTH 12 0
BBX 12 14 0 0
BITMAP
F3C0
F3C0
3C30
3C30
CC30
CC30
3C30
3C30
CC30
CC30
03C0
03C0
0FF0
0FF0
ENDCHAR
STARTCHAR GREEK CAPITAL LETTER OMEGA WITH DASIA AND OXIA
ENCODING 8045
SWIDTH 784 0
DWIDTH 12 0
BBX 12 14 0 0
BITMAP
F3C0
F3C0
CC30
CC30
3C30
3C30
3C30
3C30
CC30
CC30
03C0
03C0
0FF0
0FF0
ENDCHAR
STARTCHAR GREEK CAPITAL LETTER OMEGA WITH PSILI AND PERISPOMENI
ENCODING 8046
SWIDTH 784 0
DWIDTH 12 0
BBX 12 14 0 0
BITMAP
F3C0
F3C0
0C30
0C30
FC30
FC30
3C30
3C30
CC30
CC30
03C0
03C0
0FF0
0FF0
ENDCHAR
STARTCHAR GREEK CAPITAL LETTER OMEGA WITH DASIA AND PERISPOMENI
ENCODING 8047
SWIDTH 784 0
DWIDTH 12 0
BBX 12 14 0 0
BITMAP
F3C0
F3C0
0C30
0C30
FC30
FC30
CC30
CC30
3C30
3C30
03C0
03C0
0FF0
0FF0
ENDCHAR
STARTCHAR GREEK SMALL LETTER ALPHA WITH VARIA
ENCODING 8048
SWIDTH 784 0
DWIDTH 12 0
BBX 10 16 0 0
BITMAP
3000
3000
0C00
0C00
0000
0000
3F00
3F00
C0C0
C0C0
C0C0
C0C0
C3C0
C3C0
3CC0
3CC0
ENDCHAR
STARTCHAR GREEK SMALL LETTER ALPHA WITH OXIA
ENCODING 8049
SWIDTH 784 0
DWIDTH 12 0
BBX 10 16 0 0
BITMAP
0300
0300
0C00
0C00
0000
0000
3F00
3F00
C0C0
C0C0
C0C0
C0C0
C3C0
C3C0
3CC0
3CC0
ENDCHAR
STARTCHAR GREEK SMALL LETTER EPSILON WITH VARIA
ENCODING 8050
SWIDTH 784 0
DWIDTH 12 0
BBX 10 16 0 0
BITMAP
3000
3000
0C00
0C00
0000
0000
3F00
3F00
C0C0
C0C0
3C00
3C00
C0C0
C0C0
3F00
3F00
ENDCHAR
STARTCHAR GREEK SMALL LETTER EPSILON WITH OXIA
ENCODING 8051
SWIDTH 784 0
DWIDTH 12 0
BBX 10 16 0 0
BITMAP
0300
0300
0C00
0C00
0000
0000
3F00
3F00
C0C0
C0C0
3C00
3C00
C0C0
C0C0
3F00
3F00
ENDCHAR
STARTCHAR GREEK SMALL LETTER ETA WITH VARIA
ENCODING 8052
SWIDTH 784 0
DWIDTH 12 0
BBX 12 20 0 -4
BITMAP
3000
3000
0C00
0C00
0000
0000
CF00
CF00
F0C0
F0C0
C0C0
C0C0
C0C0
C0C0
C0C0
C0C0
00C0
00C0
00C0
00C0
ENDCHAR
STARTCHAR GREEK SMALL LETTER ETA WITH OXIA
ENCODING 8053
SWIDTH 784 0
DWIDTH 12 0
BBX 12 20 0 -4
BITMAP
0300
0300
0C00
0C00
0000
0000
CF00
CF00
F0C0
F0C0
C0C0
C0C0
C0C0
C0C0
C0C0
C0C0
00C0
00C0
00C0
00C0
ENDCHAR
STARTCHAR GREEK SMALL LETTER IOTA WITH VARIA
ENCODING 8054
SWIDTH 784 0
DWIDTH 12 0
BBX 8 16 2 0
BITMAP
C000
C000
3000
3000
0000
0000
3000
3000
3000
3000
3000
3000
3300
3300
0C00
0C00
ENDCHAR
STARTCHAR GREEK SMALL LETTER IOTA WITH OXIA
ENCODING 8055
SWIDTH 784 0
DWIDTH 12 0
BBX 6 16 2 0
BITMAP
3000
3000
C000
C000
0000
0000
C000
C000
C000
C000
C000
C000
CC00
CC00
3000
3000
ENDCHAR
STARTCHAR GREEK SMALL LETTER OMICRON WITH VARIA
ENCODING 8056
SWIDTH 784 0
DWIDTH 12 0
BBX 10 16 0 0
BITMAP
3000
3000
0C00
0C00
0000
0000
3F00
3F00
C0C0
C0C0
C0C0
C0C0
C0C0
C0C0
3F00
3F00
ENDCHAR
STARTCHAR GREEK SMALL LETTER OMICRON WITH OXIA
ENCODING 8057
SWIDTH 784 0
DWIDTH 12 0
BBX 10 16 0 0
BITMAP
0300
0300
0C00
0C00
0000
0000
3F00
3F00
C0C0
C0C0
C0C0
C0C0
C0C0
C0C0
3F00
3F00
ENDCHAR
STARTCHAR GREEK SMALL LETTER UPSILON WITH VARIA
ENCODING 8058
SWIDTH 784 0
DWIDTH 12 0
BBX 10 16 0 0
BITMAP
3000
3000
0C00
0C00
0000
0000
C0C0
C0C0
C0C0
C0C0
C0C0
C0C0
C0C0
C0C0
3F00
3F00
ENDCHAR
STARTCHAR GREEK SMALL LETTER UPSILON WITH OXIA
ENCODING 8059
SWIDTH 784 0
DWIDTH 12 0
BBX 10 16 0 0
BITMAP
0300
0300
0C00
0C00
0000
0000
C0C0
C0C0
C0C0
C0C0
C0C0
C0C0
C0C0
C0C0
3F00
3F00
ENDCHAR
STARTCHAR GREEK SMALL LETTER OMEGA WITH VARIA
ENCODING 8060
SWIDTH 784 0
DWIDTH 12 0
BBX 10 16 0 0
BITMAP
3000
3000
0C00
0C00
0000
0000
C0C0
C0C0
CCC0
CCC0
CCC0
CCC0
CCC0
CCC0
3300
3300
ENDCHAR
STARTCHAR GREEK SMALL LETTER OMEGA WITH OXIA
ENCODING 8061
SWIDTH 784 0
DWIDTH 12 0
BBX 10 16 0 0
BITMAP
0300
0300
0C00
0C00
0000
0000
C0C0
C0C0
CCC0
CCC0
CCC0
CCC0
CCC0
CCC0
3300
3300
ENDCHAR
STARTCHAR GREEK SMALL LETTER ALPHA WITH PSILI AND YPOGEGRAMMENI
ENCODING 8064
SWIDTH 784 0
DWIDTH 12 0
BBX 12 20 0 -4
BITMAP
0F00
0F00
0300
0300
0C00
0C00
3F00
3F00
C0C0
C0C0
C0C0
C0C0
C3C0
C3C0
3CC0
3CC0
0000
0000
0C00
0C00
ENDCHAR
STARTCHAR GREEK SMALL LETTER ALPHA WITH DASIA AND YPOGEGRAMMENI
ENCODING 8065
SWIDTH 784 0
DWIDTH 12 0
BBX 12 20 0 -4
BITMAP
0F00
0F00
0C00
0C00
0300
0300
3F00
3F00
C0C0
C0C0
C0C0
C0C0
C3C0
C3C0
3CC0
3CC0
0000
0000
0C00
0C00
ENDCHAR
STARTCHAR GREEK SMALL LETTER ALPHA WITH PSILI AND VARIA AND YPOGEGRAMMENI
ENCODING 8066
SWIDTH 784 0
DWIDTH 12 0
BBX 12 20 0 -4
BITMAP
3F00
3F00
0CC0
0CC0
3000
3000
3F00
3F00
C0C0
C0C0
C0C0
C0C0
C3C0
C3C0
3CC0
3CC0
0000
0000
0C00
0C00
ENDCHAR
STARTCHAR GREEK SMALL LETTER ALPHA WITH DASIA AND VARIA AND YPOGEGRAMMENI
ENCODING 8067
SWIDTH 784 0
DWIDTH 12 0
BBX 12 20 0 -4
BITMAP
3F00
3F00
30C0
30C0
0C00
0C00
3F00
3F00
C0C0
C0C0
C0C0
C0C0
C3C0
C3C0
3CC0
3CC0
0000
0000
0C00
0C00
ENDCHAR
STARTCHAR GREEK SMALL LETTER ALPHA WITH PSILI AND OXIA AND YPOGEGRAMMENI
ENCODING 8068
SWIDTH 784 0
DWIDTH 12 0
BBX 12 20 0 -4
BITMAP
3CC0
3CC0
0F00
0F00
3000
3000
3F00
3F00
C0C0
C0C0
C0C0
C0C0
C3C0
C3C0
3CC0
3CC0
0000
0000
0C00
0C00
ENDCHAR
STARTCHAR GREEK SMALL LETTER ALPHA WITH DASIA AND OXIA AND YPOGEGRAMMENI
ENCODING 8069
SWIDTH 784 0
DWIDTH 12 0
BBX 12 20 0 -4
BITMAP
3CC0
3CC0
3300
3300
0C00
0C00
3F00
3F00
C0C0
C0C0
C0C0
C0C0
C3C0
C3C0
3CC0
3CC0
0000
0000
0C00
0C00
ENDCHAR
STARTCHAR GREEK SMALL LETTER ALPHA WITH PSILI AND PERISPOMENI AND YPOGEGRAMMENI
ENCODING 8070
SWIDTH 784 0
DWIDTH 12 0
BBX 12 20 0 -4
BITMAP
3FC0
3FC0
0300
0300
0C00
0C00
3F00
3F00
C0C0
C0C0
C0C0
C0C0
C3C0
C3C0
3CC0
3CC0
0000
0000
0C00
0C00
ENDCHAR
STARTCHAR GREEK SMALL LETTER ALPHA WITH DASIA AND PERISPOMENI AND YPOGEGRAMMENI
ENCODING 8071
SWIDTH 784 0
DWIDTH 12 0
BBX 12 20 0 -4
BITMAP
3FC0
3FC0
0C00
0C00
0300
0300
3F00
3F00
C0C0
C0C0
C0C0
C0C0
C3C0
C3C0
3CC0
3CC0
0000
0000
0C00
0C00
ENDCHAR
STARTCHAR GREEK CAPITAL LETTER ALPHA WITH PSILI AND PROSGEGRAMMENI
ENCODING 8072
SWIDTH 784 0
DWIDTH 12 0
BBX 12 18 0 -4
BITMAP
F3C0
F3C0
3C30
3C30
CC30
CC30
0C30
0C30
0FF0
0FF0
0C30
0C30
0C30
0C30
0000
0000
0300
0300
ENDCHAR
STARTCHAR GREEK CAPITAL LETTER ALPHA WITH DASIA AND PROSGEGRAMMENI
ENCODING 8073
SWIDTH 784 0
DWIDTH 12 0
BBX 12 18 0 -4
BITMAP
F3C0
F3C0
CC30
CC30
3C30
3C30
0C30
0C30
0FF0
0FF0
0C30
0C30
0C30
0C30
0000
0000
0300
0300
ENDCHAR
STARTCHAR GREEK CAPITAL LETTER ALPHA WITH PSILI AND VARIA AND PROSGEGRAMMENI
ENCODING 8074
SWIDTH 784 0
DWIDTH 12 0
BBX 12 18 0 -4
BITMAP
F3C0
F3C0
3C30
3C30
CC30
CC30
CC30
CC30
3FF0
3FF0
0C30
0C30
0C30
0C30
0000
0000
0300
0300
ENDCHAR
STARTCHAR GREEK CAPITAL LETTER ALPHA WITH DASIA AND VARIA AND PROSGEGRAMMENI
ENCODING 8075
SWIDTH 784 0
DWIDTH 12 0
BBX 12 18 0 -4
BITMAP
F3C0
F3C0
CC30
CC30
3C30
3C30
CC30
CC30
3FF0
3FF0
0C30
0C30
0C30
0C30
0000
0000
0300
0300
ENDCHAR
STARTCHAR GREEK CAPITAL LETTER ALPHA WITH PSILI AND OXIA AND PROSGEGRAMMENI
ENCODING 8076
SWIDTH 784 0
DWIDTH 12 0
BBX 12 18 0 -4
BITMAP
F3C0
F3C0
3C30
3C30
CC30
CC30
3C30
3C30
CFF0
CFF0
0C30
0C30
0C30
0C30
0000
0000
0300
0300
ENDCHAR
STARTCHAR GREEK CAPITAL LETTER ALPHA WITH DASIA AND OXIA AND PROSGEGRAMMENI
ENCODING 8077
SWIDTH 784 0
DWIDTH 12 0
BBX 12 18 0 -4
BITMAP
F3C0
F3C0
CC30
CC30
3C30
3C30
3C30
3C30
CFF0
CFF0
0C30
0C30
0C30
0C30
0000
0000
0300
0300
ENDCHAR
STARTCHAR GREEK CAPITAL LETTER ALPHA WITH PSILI AND PERISPOMENI AND PROSGEGRAMMENI
ENCODING 8078
SWIDTH 784 0
DWIDTH 12 0
BBX 12 18 0 -4
BITMAP
F3C0
F3C0
0C30
0C30
FC30
FC30
3C30
3C30
CFF0
CFF0
0C30
0C30
0C30
0C30
0000
0000
0300
0300
ENDCHAR
STARTCHAR GREEK CAPITAL LETTER ALPHA WITH DASIA AND PERISPOMENI AND PROSGEGRAMMENI
ENCODING 8079
SWIDTH 784 0
DWIDTH 12 0
BBX 12 18 0 -4
BITMAP
F3C0
F3C0
0C30
0C30
FC30
FC30
CC30
CC30
3FF0
3FF0
0C30
0C30
0C30
0C30
0000
0000
0300
0300
ENDCHAR
STARTCHAR GREEK SMALL LETTER ETA WITH PSILI AND YPOGEGRAMMENI
ENCODING 8080
SWIDTH 784 0
DWIDTH 12 0
BBX 12 20 0 -4
BITMAP
0F00
0F00
0300
0300
0C00
0C00
CF00
CF00
F0C0
F0C0
C0C0
C0C0
C0C0
C0C0
C0C0
C0C0
00C0
00C0
C0C0
C0C0
ENDCHAR
STARTCHAR GREEK SMALL LETTER ETA WITH DASIA AND YPOGEGRAMMENI
ENCODING 8081
SWIDTH 784 0
DWIDTH 12 0
BBX 12 20 0 -4
BITMAP
0F00
0F00
0C00
0C00
0300
0300
CF00
CF00
F0C0
F0C0
C0C0
C0C0
C0C0
C0C0
C0C0
C0C0
00C0
00C0
C0C0
C0C0
ENDCHAR
STARTCHAR GREEK SMALL LETTER ETA WITH PSILI AND VARIA AND YPOGEGRAMMENI
ENCODING 8082
SWIDTH 784 0
DWIDTH 12 0
BBX 12 20 0 -4
BITMAP
3F00
3F00
0CC0
0CC0
3000
3000
CF00
CF00
F0C0
F0C0
C0C0
C0C0
C0C0
C0C0
C0C0
C0C0
00C0
00C0
C0C0
C0C0
ENDCHAR
STARTCHAR GREEK SMALL LETTER ETA WITH DASIA AND VARIA AND YPOGEGRAMMENI
ENCODING 8083
SWIDTH 784 0
DWIDTH 12 0
BBX 12 20 0 -4
BITMAP
3F00
3F00
30C0
30C0
0C00
0C00
CF00
CF00
F0C0
F0C0
C0C0
C0C0
C0C0
C0C0
C0C0
C0C0
00C0
00C0
C0C0
C0C0
ENDCHAR
STARTCHAR GREEK SMALL LETTER ETA WITH PSILI AND OXIA AND YPOGEGRAMMENI
ENCODING 8084
SWIDTH 784 0
DWIDTH 12 0
BBX 12 20 0 -4
BITMAP
3CC0
3CC0
0F00
0F00
3000
3000
CF00
CF00
F0C0
F0C0
C0C0
C0C0
C0C0
C0C0
C0C0
C0C0
00C0
00C0
C0C0
C0C0
ENDCHAR
STARTCHAR GREEK SMALL LETTER ETA WITH DASIA AND OXIA AND YPOGEGRAMMENI
ENCODING 8085
SWIDTH 784 0
DWIDTH 12 0
BBX 12 20 0 -4
BITMAP
3CC0
3CC0
3300
3300
0C00
0C00
CF00
CF00
F0C0
F0C0
C0C0
C0C0
C0C0
C0C0
C0C0
C0C0
00C0
00C0
C0C0
C0C0
ENDCHAR
STARTCHAR GREEK SMALL LETTER ETA WITH PSILI AND PERISPOMENI AND YPOGEGRAMMENI
ENCODING 8086
SWIDTH 784 0
DWIDTH 12 0
BBX 12 20 0 -4
BITMAP
3FC0
3FC0
0300
0300
0C00
0C00
CF00
CF00
F0C0
F0C0
C0C0
C0C0
C0C0
C0C0
C0C0
C0C0
00C0
00C0
C0C0
C0C0
ENDCHAR
STARTCHAR GREEK SMALL LETTER ETA WITH DASIA AND PERISPOMENI AND YPOGEGRAMMENI
ENCODING 8087
SWIDTH 784 0
DWIDTH 12 0
BBX 12 20 0 -4
BITMAP
3FC0
3FC0
0C00
0C00
0300
0300
CF00
CF00
F0C0
F0C0
C0C0
C0C0
C0C0
C0C0
C0C0
C0C0
00C0
00C0
C0C0
C0C0
ENDCHAR
STARTCHAR GREEK CAPITAL LETTER ETA WITH PSILI AND PROSGEGRAMMENI
ENCODING 8088
SWIDTH 784 0
DWIDTH 12 0
BBX 12 18 0 -4
BITMAP
FC30
FC30
3C30
3C30
CC30
CC30
0FF0
0FF0
0C30
0C30
0C30
0C30
0C30
0C30
0000
0000
0300
0300
ENDCHAR
STARTCHAR GREEK CAPITAL LETTER ETA WITH DASIA AND PROSGEGRAMMENI
ENCODING 8089
SWIDTH 784 0
DWIDTH 12 0
BBX 12 18 0 -4
BITMAP
FC30
FC30
CC30
CC30
3C30
3C30
0FF0
0FF0
0C30
0C30
0C30
0C30
0C30
0C30
0000
0000
0300
0300
ENDCHAR
STARTCHAR GREEK CAPITAL LETTER ETA WITH PSILI AND VARIA AND PROSGEGRAMMENI
ENCODING 8090
SWIDTH 784 0
DWIDTH 12 0
BBX 12 18 0 -4
BITMAP
FC30
FC30
3C30
3C30
CC30
CC30
CFF0
CFF0
3C30
3C30
0C30
0C30
0C30
0C30
0000
0000
0300
0300
ENDCHAR
STARTCHAR GREEK CAPITAL LETTER ETA WITH DASIA AND VARIA AND PROSGEGRAMMENI
ENCODING 8091
SWIDTH 784 0
DWIDTH 12 0
BBX 12 18 0 -4
BITMAP
FC30
FC30
CC30
CC30
3C30
3C30
CFF0
CFF0
3C30
3C30
0C30
0C30
0C30
0C30
0000
0000
0300
0300
ENDCHAR
STARTCHAR GREEK CAPITAL LETTER ETA WITH PSILI AND OXIA AND PROSGEGRAMMENI
ENCODING 8092
SWIDTH 784 0
DWIDTH 12 0
BBX 12 18 0 -4
BITMAP
FC30
FC30
3C30
3C30
CC30
CC30
3FF0
3FF0
CC30
CC30
0C30
0C30
0C30
0C30
0000
0000
0300
0300
ENDCHAR
STARTCHAR GREEK CAPITAL LETTER ETA WITH DASIA AND OXIA AND PROSGEGRAMMENI
ENCODING 8093
SWIDTH 784 0
DWIDTH 12 0
BBX 12 18 0 -4
BITMAP
FC30
FC30
CC30
CC30
3C30
3C30
3FF0
3FF0
CC30
CC30
0C30
0C30
0C30
0C30
0000
0000
0300
0300
ENDCHAR
STARTCHAR GREEK CAPITAL LETTER ETA WITH PSILI AND PERISPOMENI AND PROSGEGRAMMENI
ENCODING 8094
SWIDTH 784 0
DWIDTH 12 0
BBX 12 18 0 -4
BITMAP
FC30
FC30
0C30
0C30
FC30
FC30
3FF0
3FF0
CC30
CC30
0C30
0C30
0C30
0C30
0000
0000
0300
0300
ENDCHAR
STARTCHAR GREEK CAPITAL LETTER ETA WITH DASIA AND PERISPOMENI AND PROSGEGRAMMENI
ENCODING 8095
SWIDTH 784 0
DWIDTH 12 0
BBX 12 18 0 -4
BITMAP
FC30
FC30
0C30
0C30
FC30
FC30
CFF0
CFF0
3C30
3C30
0C30
0C30
0C30
0C30
0000
0000
0300
0300
ENDCHAR
STARTCHAR GREEK SMALL LETTER OMEGA WITH PSILI AND YPOGEGRAMMENI
ENCODING 8096
SWIDTH 784 0
DWIDTH 12 0
BBX 12 20 0 -4
BITMAP
0F00
0F00
0300
0300
0C00
0C00
C0C0
C0C0
CCC0
CCC0
CCC0
CCC0
CCC0
CCC0
3300
3300
0000
0000
0C00
0C00
ENDCHAR
STARTCHAR GREEK SMALL LETTER OMEGA WITH DASIA AND YPOGEGRAMMENI
ENCODING 8097
SWIDTH 784 0
DWIDTH 12 0
BBX 12 20 0 -4
BITMAP
0F00
0F00
0C00
0C00
0300
0300
C0C0
C0C0
CCC0
CCC0
CCC0
CCC0
CCC0
CCC0
3300
3300
0000
0000
0C00
0C00
ENDCHAR
STARTCHAR GREEK SMALL LETTER OMEGA WITH PSILI AND VARIA AND YPOGEGRAMMENI
ENCODING 8098
SWIDTH 784 0
DWIDTH 12 0
BBX 12 20 0 -4
BITMAP
3F00
3F00
0CC0
0CC0
3000
3000
C0C0
C0C0
CCC0
CCC0
CCC0
CCC0
CCC0
CCC0
3300
3300
0000
0000
0C00
0C00
ENDCHAR
STARTCHAR GREEK SMALL LETTER OMEGA WITH DASIA AND VARIA AND YPOGEGRAMMENI
ENCODING 8099
SWIDTH 784 0
DWIDTH 12 0
BBX 12 20 0 -4
BITMAP
3F00
3F00
30C0
30C0
0C00
0C00
C0C0
C0C0
CCC0
CCC0
CCC0
CCC0
CCC0
CCC0
3300
3300
0000
0000
0C00
0C00
ENDCHAR
STARTCHAR GREEK SMALL LETTER OMEGA WITH PSILI AND OXIA AND YPOGEGRAMMENI
ENCODING 8100
SWIDTH 784 0
DWIDTH 12 0
BBX 12 20 0 -4
BITMAP
3CC0
3CC0
0F00
0F00
3000
3000
C0C0
C0C0
CCC0
CCC0
CCC0
CCC0
CCC0
CCC0
3300
3300
0000
0000
0C00
0C00
ENDCHAR
STARTCHAR GREEK SMALL LETTER OMEGA WITH DASIA AND OXIA AND YPOGEGRAMMENI
ENCODING 8101
SWIDTH 784 0
DWIDTH 12 0
BBX 12 20 0 -4
BITMAP
3CC0
3CC0
3300
3300
0C00
0C00
C0C0
C0C0
CCC0
CCC0
CCC0
CCC0
CCC0
CCC0
3300
3300
0000
0000
0C00
0C00
ENDCHAR
STARTCHAR GREEK SMALL LETTER OMEGA WITH PSILI AND PERISPOMENI AND YPOGEGRAMMENI
ENCODING 8102
SWIDTH 784 0
DWIDTH 12 0
BBX 12 20 0 -4
BITMAP
3FC0
3FC0
0300
0300
0C00
0C00
C0C0
C0C0
CCC0
CCC0
CCC0
CCC0
CCC0
CCC0
3300
3300
0000
0000
0C00
0C00
ENDCHAR
STARTCHAR GREEK SMALL LETTER OMEGA WITH DASIA AND PERISPOMENI AND YPOGEGRAMMENI
ENCODING 8103
SWIDTH 784 0
DWIDTH 12 0
BBX 12 20 0 -4
BITMAP
3FC0
3FC0
0C00
0C00
0300
0300
C0C0
C0C0
CCC0
CCC0
CCC0
CCC0
CCC0
CCC0
3300
3300
0000
0000
0C00
0C00
ENDCHAR
STARTCHAR GREEK CAPITAL LETTER OMEGA WITH PSILI AND PROSGEGRAMMENI
ENCODING 8104
SWIDTH 784 0
DWIDTH 12 0
BBX 12 18 0 -4
BITMAP
F3C0
F3C0
3C30
3C30
CC30
CC30
0C30
0C30
0C30
0C30
03C0
03C0
0FF0
0FF0
0000
0000
0300
0300
ENDCHAR
STARTCHAR GREEK CAPITAL LETTER OMEGA WITH DASIA AND PROSGEGRAMMENI
ENCODING 8105
SWIDTH 784 0
DWIDTH 12 0
BBX 12 18 0 -4
BITMAP
F3C0
F3C0
CC30
CC30
3C30
3C30
0C30
0C30
0C30
0C30
03C0
03C0
0FF0
0FF0
0000
0000
0300
0300
ENDCHAR
STARTCHAR GREEK CAPITAL LETTER OMEGA WITH PSILI AND VARIA AND PROSGEGRAMMENI
ENCODING 8106
SWIDTH 784 0
DWIDTH 12 0
BBX 12 18 0 -4
BITMAP
F3C0
F3C0
3C30
3C30
CC30
CC30
CC30
CC30
3C30
3C30
03C0
03C0
0FF0
0FF0
0000
0000
0300
0300
ENDCHAR
STARTCHAR GREEK CAPITAL LETTER OMEGA WITH DASIA AND VARIA AND PROSGEGRAMMENI
ENCODING 8107
SWIDTH 784 0
DWIDTH 12 0
BBX 12 18 0 -4
BITMAP
F3C0
F3C0
CC30
CC30
3C30
3C30
CC30
CC30
3C30
3C30
03C0
03C0
0FF0
0FF0
0000
0000
0300
0300
ENDCHAR
STARTCHAR GREEK CAPITAL LETTER OMEGA WITH PSILI AND OXIA AND PROSGEGRAMMENI
ENCODING 8108
SWIDTH 784 0
DWIDTH 12 0
BBX 12 18 0 -4
BITMAP
F3C0
F3C0
3C30
3C30
CC30
CC30
3C30
3C30
CC30
CC30
03C0
03C0
0FF0
0FF0
0000
0000
0300
0300
ENDCHAR
STARTCHAR GREEK CAPITAL LETTER OMEGA WITH DASIA AND OXIA AND PROSGEGRAMMENI
ENCODING 8109
SWIDTH 784 0
DWIDTH 12 0
BBX 12 18 0 -4
BITMAP
F3C0
F3C0
CC30
CC30
3C30
3C30
3C30
3C30
CC30
CC30
03C0
03C0
0FF0
0FF0
0000
0000
0300
0300
ENDCHAR
STARTCHAR GREEK CAPITAL LETTER OMEGA WITH PSILI AND PERISPOMENI AND PROSGEGRAMMENI
ENCODING 8110
SWIDTH 784 0
DWIDTH 12 0
BBX 12 18 0 -4
BITMAP
F3C0
F3C0
0C30
0C30
FC30
FC30
3C30
3C30
CC30
CC30
03C0
03C0
0FF0
0FF0
0000
0000
0300
0300
ENDCHAR
STARTCHAR GREEK CAPITAL LETTER OMEGA WITH DASIA AND PERISPOMENI AND PROSGEGRAMMENI
ENCODING 8111
SWIDTH 784 0
DWIDTH 12 0
BBX 12 18 0 -4
BITMAP
F3C0
F3C0
0C30
0C30
FC30
FC30
CC30
CC30
3C30
3C30
03C0
03C0
0FF0
0FF0
0000
0000
0300
0300
ENDCHAR
STARTCHAR GREEK SMALL LETTER ALPHA WITH VRACHY
ENCODING 8112
SWIDTH 784 0
DWIDTH 12 0
BBX 10 16 0 0
BITMAP
C0C0
C0C0
3F00
3F00
0000
0000
3F00
3F00
C0C0
C0C0
C0C0
C0C0
C3C0
C3C0
3CC0
3CC0
ENDCHAR
STARTCHAR GREEK SMALL LETTER ALPHA WITH MACRON
ENCODING 8113
SWIDTH 784 0
DWIDTH 12 0
BBX 10 14 0 0
BITMAP
FFC0
FFC0
0000
0000
3F00
3F00
C0C0
C0C0
C0C0
C0C0
C3C0
C3C0
3CC0
3CC0
ENDCHAR
STARTCHAR GREEK SMALL LETTER ALPHA WITH VARIA AND YPOGEGRAMMENI
ENCODING 8114
SWIDTH 784 0
DWIDTH 12 0
BBX 12 20 0 -4
BITMAP
3000
3000
0C00
0C00
0000
0000
3F00
3F00
C0C0
C0C0
C0C0
C0C0
C3C0
C3C0
3CC0
3CC0
0000
0000
0C00
0C00
ENDCHAR
STARTCHAR GREEK SMALL LETTER ALPHA WITH YPOGEGRAMMENI
ENCODING 8115
SWIDTH 784 0
DWIDTH 12 0
BBX 10 14 0 -4
BITMAP
3F00
3F00
C0C0
C0C0
C0C0
C0C0
C3C0
C3C0
3CC0
3CC0
0000
0000
0C00
0C00
ENDCHAR
STARTCHAR GREEK SMALL LETTER ALPHA WITH OXIA AND YPOGEGRAMMENI
ENCODING 8116
SWIDTH 784 0
DWIDTH 12 0
BBX 12 20 0 -4
BITMAP
0300
0300
0C00
0C00
0000
0000
3F00
3F00
C0C0
C0C0
C0C0
C0C0
C3C0
C3C0
3CC0
3CC0
0000
0000
0C00
0C00
ENDCHAR
STARTCHAR GREEK SMALL LETTER ALPHA WITH PERISPOMENI
ENCODING 8118
SWIDTH 784 0
DWIDTH 12 0
BBX 10 14 0 0
BITMAP
3FC0
3FC0
0000
0000
3F00
3F00
C0C0
C0C0
C0C0
C0C0
C3C0
C3C0
3CC0
3CC0
ENDCHAR
STARTCHAR GREEK SMALL LETTER ALPHA WITH PERISPOMENI AND YPOGEGRAMMENI
ENCODING 8119
SWIDTH 784 0
DWIDTH 12 0
BBX 10 18 0 -4
BITMAP
3FC0
3FC0
0000
0000
3F00
3F00
C0C0
C0C0
C0C0
C0C0
C3C0
C3C0
3CC0
3CC0
0000
0000
0C00
0C00
ENDCHAR
STARTCHAR GREEK CAPITAL LETTER ALPHA WITH VRACHY
ENCODING 8120
SWIDTH 784 0
DWIDTH 12 0
BBX 10 16 0 0
BITMAP
C0C0
C0C0
3F00
3F00
3F00
3F00
C0C0
C0C0
C0C0
C0C0
FFC0
FFC0
C0C0
C0C0
C0C0
C0C0
ENDCHAR
STARTCHAR GREEK CAPITAL LETTER ALPHA WITH MACRON
ENCODING 8121
SWIDTH 784 0
DWIDTH 12 0
BBX 10 16 0 0
BITMAP
FFC0
FFC0
0000
0000
3F00
3F00
C0C0
C0C0
C0C0
C0C0
FFC0
FFC0
C0C0
C0C0
C0C0
C0C0
ENDCHAR
STARTCHAR GREEK CAPITAL LETTER ALPHA WITH VARIA
ENCODING 8122
SWIDTH 784 0
DWIDTH 12 0
BBX 12 14 0 0
BITMAP
C3C0
C3C0
3C30
3C30
0C30
0C30
0C30
0C30
0FF0
0FF0
0C30
0C30
0C30
0C30
ENDCHAR
STARTCHAR GREEK CAPITAL LETTER ALPHA WITH OXIA
ENCODING 8123
SWIDTH 784 0
DWIDTH 12 0
BBX 12 14 0 0
BITMAP
33C0
33C0
CC30
CC30
0C30
0C30
0C30
0C30
0FF0
0FF0
0C30
0C30
0C30
0C30
ENDCHAR
STARTCHAR GREEK CAPITAL LETTER ALPHA WITH PROSGEGRAMMENI
ENCODING 8124
SWIDTH 784 0
DWIDTH 12 0
BBX 10 18 0 -4
BITMAP
0C00
0C00
3300
3300
C0C0
C0C0
C0C0
C0C0
FFC0
FFC0
C0C0
C0C0
C0C0
C0C0
0C00
0C00
0F00
0F00
ENDCHAR
STARTCHAR GREEK KORONIS
ENCODING 8125
SWIDTH 784 0
DWIDTH 12 0
BBX 4 6 4 8
BITMAP
F000
F000
3000
3000
C000
C000
ENDCHAR
STARTCHAR GREEK PROSGEGRAMMENI
ENCODING 8126
SWIDTH 784 0
DWIDTH 12 0
BBX 4 6 4 0
BITMAP
C000
C000
C000
C000
3000
3000
ENDCHAR
STARTCHAR GREEK PSILI
ENCODING 8127
SWIDTH 784 0
DWIDTH 12 0
BBX 4 6 4 8
BITMAP
F000
F000
3000
3000
C000
C000
ENDCHAR
STARTCHAR GREEK PERISPOMENI
ENCODING 8128
SWIDTH 784 0
DWIDTH 12 0
BBX 8 2 2 12
BITMAP
FF00
FF00
ENDCHAR
STARTCHAR GREEK DIALYTIKA AND PERISPOMENI
ENCODING 8129
SWIDTH 784 0
DWIDTH 12 0
BBX 10 6 0 8
BITMAP
FFC0
FFC0
0000
0000
C0C0
C0C0
ENDCHAR
STARTCHAR GREEK SMALL LETTER ETA WITH VARIA AND YPOGEGRAMMENI
ENCODING 8130
SWIDTH 784 0
DWIDTH 12 0
BBX 12 20 0 -4
BITMAP
3000
3000
0C00
0C00
0000
0000
CF00
CF00
F0C0
F0C0
C0C0
C0C0
C0C0
C0C0
C0C0
C0C0
00C0
00C0
C0C0
C0C0
ENDCHAR
STARTCHAR GREEK SMALL LETTER ETA WITH YPOGEGRAMMENI
ENCODING 8131
SWIDTH 784 0
DWIDTH 12 0
BBX 10 14 0 -4
BITMAP
CF00
CF00
F0C0
F0C0
C0C0
C0C0
C0C0
C0C0
C0C0
C0C0
00C0
00C0
C0C0
C0C0
ENDCHAR
STARTCHAR GREEK SMALL LETTER ETA WITH OXIA AND YPOGEGRAMMENI
ENCODING 8132
SWIDTH 784 0
DWIDTH 12 0
BBX 12 20 0 -4
BITMAP
0300
0300
0C00
0C00
0000
0000
CF00
CF00
F0C0
F0C0
C0C0
C0C0
C0C0
C0C0
C0C0
C0C0
00C0
00C0
C0C0
C0C0
ENDCHAR
STARTCHAR GREEK SMALL LETTER ETA WITH PERISPOMENI
ENCODING 8134
SWIDTH 784 0
DWIDTH 12 0
BBX 10 18 0 -4
BITMAP
3FC0
3FC0
0000
0000
CF00
CF00
F0C0
F0C0
C0C0
C0C0
C0C0
C0C0
C0C0
C0C0
00C0
00C0
00C0
00C0
ENDCHAR
STARTCHAR GREEK SMALL LETTER ETA WITH PERISPOMENI AND YPOGEGRAMMENI
ENCODING 8135
SWIDTH 784 0
DWIDTH 12 0
BBX 10 18 0 -4
BITMAP
3FC0
3FC0
0000
0000
CF00
CF00
F0C0
F0C0
C0C0
C0C0
C0C0
C0C0
C0C0
C0C0
00C0
00C0
C0C0
C0C0
ENDCHAR
STARTCHAR GREEK CAPITAL LETTER EPSILON WITH VARIA
ENCODING 8136
SWIDTH 784 0
DWIDTH 12 0
BBX 12 14 0 0
BITMAP
CFF0
CFF0
3C00
3C00
0C00
0C00
0FC0
0FC0
0C00
0C00
0C00
0C00
0FF0
0FF0
ENDCHAR
STARTCHAR GREEK CAPITAL LETTER EPSILON WITH OXIA
ENCODING 8137
SWIDTH 784 0
DWIDTH 12 0
BBX 12 14 0 0
BITMAP
3FF0
3FF0
CC00
CC00
0C00
0C00
0FC0
0FC0
0C00
0C00
0C00
0C00
0FF0
0FF0
ENDCHAR
STARTCHAR GREEK CAPITAL LETTER ETA WITH VARIA
ENCODING 8138
SWIDTH 784 0
DWIDTH 12 0
BBX 12 14 0 0
BITMAP
CC30
CC30
3C30
3C30
0C30
0C30
0FF0
0FF0
0C30
0C30
0C30
0C30
0C30
0C30
ENDCHAR
STARTCHAR GREEK CAPITAL LETTER ETA WITH OXIA
ENCODING 8139
SWIDTH 784 0
DWIDTH 12 0
BBX 12 14 0 0
BITMAP
3C30
3C30
CC30
CC30
0C30
0C30
0FF0
0FF0
0C30
0C30
0C30
0C30
0C30
0C30
ENDCHAR
STARTCHAR GREEK CAPITAL LETTER ETA WITH PROSGEGRAMMENI
ENCODING 8140
SWIDTH 784 0
DWIDTH 12 0
BBX 10 18 0 -4
BITMAP
C0C0
C0C0
C0C0
C0C0
C0C0
C0C0
FFC0
FFC0
C0C0
C0C0
C0C0
C0C0
C0C0
C0C0
0C00
0C00
0F00
0F00
ENDCHAR
STARTCHAR GREEK PSILI AND VARIA
ENCODING 8141
SWIDTH 784 0
DWIDTH 12 0
BBX 8 6 2 8
BITMAP
FC00
FC00
3300
3300
C000
C000
ENDCHAR
STARTCHAR GREEK PSILI AND OXIA
ENCODING 8142
SWIDTH 784 0
DWIDTH 12 0
BBX 8 6 2 8
BITMAP
F300
F300
3C00
3C00
C000
C000
ENDCHAR
STARTCHAR GREEK PSILI AND PERISPOMENI
ENCODING 8143
SWIDTH 784 0
DWIDTH 12 0
BBX 8 6 2 8
BITMAP
FF00
FF00
0C00
0C00
3000
3000
ENDCHAR
STARTCHAR GREEK SMALL LETTER IOTA WITH VRACHY
ENCODING 8144
SWIDTH 784 0
DWIDTH 12 0
BBX 10 16 0 0
BITMAP
C0C0
C0C0
3F00
3F00
0000
0000
0C00
0C00
0C00
0C00
0C00
0C00
0CC0
0CC0
0300
0300
ENDCHAR
STARTCHAR GREEK SMALL LETTER IOTA WITH MACRON
ENCODING 8145
SWIDTH 784 0
DWIDTH 12 0
BBX 10 14 0 0
BITMAP
FFC0
FFC0
0000
0000
0C00
0C00
0C00
0C00
0C00
0C00
0CC0
0CC0
0300
0300
ENDCHAR
STARTCHAR GREEK SMALL LETTER IOTA WITH DIALYTIKA AND VARIA
ENCODING 8146
SWIDTH 784 0
DWIDTH 12 0
BBX 10 16 0 0
BITMAP
3000
3000
CCC0
CCC0
0000
0000
0C00
0C00
0C00
0C00
0C00
0C00
0CC0
0CC0
0300
0300
ENDCHAR
STARTCHAR GREEK SMALL LETTER IOTA WITH DIALYTIKA AND OXIA
ENCODING 8147
SWIDTH 784 0
DWIDTH 12 0
BBX 10 16 0 0
BITMAP
0300
0300
CCC0
CCC0
0000
0000
0C00
0C00
0C00
0C00
0C00
0C00
0CC0
0CC0
0300
0300
ENDCHAR
STARTCHAR GREEK SMALL LETTER IOTA WITH PERISPOMENI
ENCODING 8150
SWIDTH 784 0
DWIDTH 12 0
BBX 8 14 2 0
BITMAP
FF00
FF00
0000
0000
3000
3000
3000
3000
3000
3000
3300
3300
0C00
0C00
ENDCHAR
STARTCHAR GREEK SMALL LETTER IOTA WITH DIALYTIKA AND PERISPOMENI
ENCODING 8151
SWIDTH 784 0
DWIDTH 12 0
BBX 10 16 0 0
BITMAP
FFC0
FFC0
0000
0000
C0C0
C0C0
0C00
0C00
0C00
0C00
0C00
0C00
0CC0
0CC0
0300
0300
ENDCHAR
STARTCHAR GREEK CAPITAL LETTER IOTA WITH VRACHY
ENCODING 8152
SWIDTH 784 0
DWIDTH 12 0
BBX 10 16 0 0
BITMAP
C0C0
C0C0
3F00
3F00
3F00
3F00
0C00
0C00
0C00
0C00
0C00
0C00
0C00
0C00
3F00
3F00
ENDCHAR
STARTCHAR GREEK CAPITAL LETTER IOTA WITH MACRON
ENCODING 8153
SWIDTH 784 0
DWIDTH 12 0
BBX 10 16 0 0
BITMAP
FFC0
FFC0
0000
0000
3F00
3F00
0C00
0C00
0C00
0C00
0C00
0C00
0C00
0C00
3F00
3F00
ENDCHAR
STARTCHAR GREEK CAPITAL LETTER IOTA WITH VARIA
ENCODING 8154
SWIDTH 784 0
DWIDTH 12 0
BBX 12 14 0 0
BITMAP
C3F0
C3F0
30C0
30C0
00C0
00C0
00C0
00C0
00C0
00C0
00C0
00C0
03F0
03F0
ENDCHAR
STARTCHAR GREEK CAPITAL LETTER IOTA WITH OXIA
ENCODING 8155
SWIDTH 784 0
DWIDTH 12 0
BBX 12 14 0 0
BITMAP
33F0
33F0
C0C0
C0C0
00C0
00C0
00C0
00C0
00C0
00C0
00C0
00C0
03F0
03F0
ENDCHAR
STARTCHAR GREEK DASIA AND VARIA
ENCODING 8157
SWIDTH 784 0
DWIDTH 12 0
BBX 8 6 2 8
BITMAP
F300
F300
3C00
3C00
C000
C000
ENDCHAR
STARTCHAR GREEK DASIA AND OXIA
ENCODING 8158
SWIDTH 784 0
DWIDTH 12 0
BBX 8 6 2 8
BITMAP
F300
F300
CC00
CC00
3000
3000
ENDCHAR
STARTCHAR GREEK DASIA AND PERISPOMENI
ENCODING 8159
SWIDTH 784 0
DWIDTH 12 0
BBX 8 6 2 8
BITMAP
FF00
FF00
3000
3000
0C00
0C00
ENDCHAR
STARTCHAR GREEK SMALL LETTER UPSILON WITH VRACHY
ENCODING 8160
SWIDTH 784 0
DWIDTH 12 0
BBX 10 16 0 0
BITMAP
C0C0
C0C0
3F00
3F00
0000
0000
C0C0
C0C0
C0C0
C0C0
C0C0
C0C0
C0C0
C0C0
3F00
3F00
ENDCHAR
STARTCHAR GREEK SMALL LETTER UPSILON WITH MACRON
ENCODING 8161
SWIDTH 784 0
DWIDTH 12 0
BBX 10 14 0 0
BITMAP
FFC0
FFC0
0000
0000
C0C0
C0C0
C0C0
C0C0
C0C0
C0C0
C0C0
C0C0
3F00
3F00
ENDCHAR
STARTCHAR GREEK SMALL LETTER UPSILON WITH DIALYTIKA AND VARIA
ENCODING 8162
SWIDTH 784 0
DWIDTH 12 0
BBX 10 16 0 0
BITMAP
3000
3000
CCC0
CCC0
0000
0000
C0C0
C0C0
C0C0
C0C0
C0C0
C0C0
C0C0
C0C0
3F00
3F00
ENDCHAR
STARTCHAR GREEK SMALL LETTER UPSILON WITH DIALYTIKA AND OXIA
ENCODING 8163
SWIDTH 784 0
DWIDTH 12 0
BBX 10 16 0 0
BITMAP
0300
0300
CCC0
CCC0
0000
0000
C0C0
C0C0
C0C0
C0C0
C0C0
C0C0
C0C0
C0C0
3F00
3F00
ENDCHAR
STARTCHAR GREEK SMALL LETTER RHO WITH PSILI
ENCODING 8164
SWIDTH 784 0
DWIDTH 12 0
BBX 12 20 0 -4
BITMAP
0F00
0F00
0300
0300
0C00
0C00
3F00
3F00
C0C0
C0C0
C0C0
C0C0
C0C0
C0C0
FF00
FF00
C000
C000
C000
C000
ENDCHAR
STARTCHAR GREEK SMALL LETTER RHO WITH DASIA
ENCODING 8165
SWIDTH 784 0
DWIDTH 12 0
BBX 12 20 0 -4
BITMAP
0F00
0F00
0C00
0C00
0300
0300
3F00
3F00
C0C0
C0C0
C0C0
C0C0
C0C0
C0C0
FF00
FF00
C000
C000
C000
C000
ENDCHAR
STARTCHAR GREEK SMALL LETTER UPSILON WITH PERISPOMENI
ENCODING 8166
SWIDTH 784 0
DWIDTH 12 0
BBX 10 14 0 0
BITMAP
3FC0
3FC0
0000
0000
C0C0
C0C0
C0C0
C0C0
C0C0
C0C0
C0C0
C0C0
3F00
3F00
ENDCHAR
STARTCHAR GREEK SMALL LETTER UPSILON WITH DIALYTIKA AND PERISPOMENI
ENCODING 8167
SWIDTH 784 0
DWIDTH 12 0
BBX 10 16 0 0
BITMAP
FFC0
FFC0
0000
0000
C0C0
C0C0
0000
0000
C0C0
C0C0
C0C0
C0C0
C0C0
C0C0
3F00
3F00
ENDCHAR
STARTCHAR GREEK CAPITAL LETTER UPSILON WITH VRACHY
ENCODING 8168
SWIDTH 784 0
DWIDTH 12 0
BBX 10 16 0 0
BITMAP
C0C0
C0C0
3F00
3F00
C0C0
C0C0
C0C0
C0C0
3300
3300
0C00
0C00
0C00
0C00
0C00
0C00
ENDCHAR
STARTCHAR GREEK CAPITAL LETTER UPSILON WITH MACRON
ENCODING 8169
SWIDTH 784 0
DWIDTH 12 0
BBX 10 16 0 0
BITMAP
FFC0
FFC0
0000
0000
C0C0
C0C0
C0C0
C0C0
3300
3300
0C00
0C00
0C00
0C00
0C00
0C00
ENDCHAR
STARTCHAR GREEK CAPITAL LETTER UPSILON WITH VARIA
ENCODING 8170
SWIDTH 784 0
DWIDTH 12 0
BBX 12 14 0 0
BITMAP
C330
C330
3330
3330
0330
0330
00C0
00C0
00C0
00C0
00C0
00C0
00C0
00C0
ENDCHAR
STARTCHAR GREEK CAPITAL LETTER UPSILON WITH OXIA
ENCODING 8171
SWIDTH 784 0
DWIDTH 12 0
BBX 12 14 0 0
BITMAP
3330
3330
C330
C330
0330
0330
00C0
00C0
00C0
00C0
00C0
00C0
00C0
00C0
ENDCHAR
STARTCHAR GREEK CAPITAL LETTER RHO WITH DASIA
ENCODING 8172
SWIDTH 784 0
DWIDTH 12 0
BBX 12 14 0 0
BITMAP
FFC0
FFC0
CC30
CC30
3C30
3C30
0FC0
0FC0
0C00
0C00
0C00
0C00
0C00
0C00
ENDCHAR
STARTCHAR GREEK DIALYTIKA AND VARIA
ENCODING 8173
SWIDTH 784 0
DWIDTH 12 0
BBX 10 4 0 10
BITMAP
3000
3000
CCC0
CCC0
ENDCHAR
STARTCHAR GREEK DIALYTIKA AND OXIA
ENCODING 8174
SWIDTH 784 0
DWIDTH 12 0
BBX 10 4 0 10
BITMAP
0300
0300
CCC0
CCC0
ENDCHAR
STARTCHAR GREEK VARIA
ENCODING 8175
SWIDTH 784 0
DWIDTH 12 0
BBX 4 4 4 10
BITMAP
C000
C000
3000
3000
ENDCHAR
STARTCHAR GREEK SMALL LETTER OMEGA WITH VARIA AND YPOGEGRAMMENI
ENCODING 8178
SWIDTH 784 0
DWIDTH 12 0
BBX 12 20 0 -4
BITMAP
3000
3000
0C00
0C00
0000
0000
C0C0
C0C0
CCC0
CCC0
CCC0
CCC0
CCC0
CCC0
3300
3300
0000
0000
0C00
0C00
ENDCHAR
STARTCHAR GREEK SMALL LETTER OMEGA WITH YPOGEGRAMMENI
ENCODING 8179
SWIDTH 784 0
DWIDTH 12 0
BBX 10 14 0 -4
BITMAP
C0C0
C0C0
CCC0
CCC0
CCC0
CCC0
CCC0
CCC0
3300
3300
0000
0000
0C00
0C00
ENDCHAR
STARTCHAR GREEK SMALL LETTER OMEGA WITH OXIA AND YPOGEGRAMMENI
ENCODING 8180
SWIDTH 784 0
DWIDTH 12 0
BBX 12 20 0 -4
BITMAP
0300
0300
0C00
0C00
0000
0000
C0C0
C0C0
CCC0
CCC0
CCC0
CCC0
CCC0
CCC0
3300
3300
0000
0000
0C00
0C00
ENDCHAR
STARTCHAR GREEK SMALL LETTER OMEGA WITH PERISPOMENI
ENCODING 8182
SWIDTH 784 0
DWIDTH 12 0
BBX 10 14 0 0
BITMAP
3FC0
3FC0
0000
0000
C0C0
C0C0
CCC0
CCC0
CCC0
CCC0
CCC0
CCC0
3300
3300
ENDCHAR
STARTCHAR GREEK SMALL LETTER OMEGA WITH PERISPOMENI AND YPOGEGRAMMENI
ENCODING 8183
SWIDTH 784 0
DWIDTH 12 0
BBX 10 18 0 -4
BITMAP
3FC0
3FC0
0000
0000
C0C0
C0C0
CCC0
CCC0
CCC0
CCC0
CCC0
CCC0
3300
3300
0000
0000
0C00
0C00
ENDCHAR
STARTCHAR GREEK CAPITAL LETTER OMICRON WITH VARIA
ENCODING 8184
SWIDTH 784 0
DWIDTH 12 0
BBX 12 14 0 0
BITMAP
C3C0
C3C0
3C30
3C30
0C30
0C30
0C30
0C30
0C30
0C30
0C30
0C30
03C0
03C0
ENDCHAR
STARTCHAR GREEK CAPITAL LETTER OMICRON WITH OXIA
ENCODING 8185
SWIDTH 784 0
DWIDTH 12 0
BBX 12 14 0 0
BITMAP
33C0
33C0
CC30
CC30
0C30
0C30
0C30
0C30
0C30
0C30
0C30
0C30
03C0
03C0
ENDCHAR
STARTCHAR GREEK CAPITAL LETTER OMEGA WITH VARIA
ENCODING 8186
SWIDTH 784 0
DWIDTH 12 0
BBX 12 14 0 0
BITMAP
C3C0
C3C0
3C30
3C30
0C30
0C30
0C30
0C30
0C30
0C30
03C0
03C0
0FF0
0FF0
ENDCHAR
STARTCHAR GREEK CAPITAL LETTER OMEGA WITH OXIA
ENCODING 8187
SWIDTH 784 0
DWIDTH 12 0
BBX 12 14 0 0
BITMAP
33C0
33C0
CC30
CC30
0C30
0C30
0C30
0C30
0C30
0C30
03C0
03C0
0FF0
0FF0
ENDCHAR
STARTCHAR GREEK CAPITAL LETTER OMEGA WITH PROSGEGRAMMENI
ENCODING 8188
SWIDTH 784 0
DWIDTH 12 0
BBX 10 18 0 -4
BITMAP
3F00
3F00
C0C0
C0C0
C0C0
C0C0
C0C0
C0C0
C0C0
C0C0
3300
3300
F3C0
F3C0
0C00
0C00
0F00
0F00
ENDCHAR
STARTCHAR GREEK OXIA
ENCODING 8189
SWIDTH 784 0
DWIDTH 12 0
BBX 4 4 4 10
BITMAP
3000
3000
C000
C000
ENDCHAR
STARTCHAR GREEK DASIA
ENCODING 8190
SWIDTH 784 0
DWIDTH 12 0
BBX 4 6 4 8
BITMAP
F000
F000
C000
C000
3000
3000
ENDCHAR
STARTCHAR HYPHEN
ENCODING 8208
SWIDTH 784 0
DWIDTH 12 0
BBX 8 2 2 6
BITMAP
FF00
FF00
ENDCHAR
STARTCHAR NON-BREAKING HYPHEN
ENCODING 8209
SWIDTH 784 0
DWIDTH 12 0
BBX 8 2 2 6
BITMAP
FF00
FF00
ENDCHAR
STARTCHAR FIGURE DASH
ENCODING 8210
SWIDTH 784 0
DWIDTH 12 0
BBX 10 2 0 6
BITMAP
FFC0
FFC0
ENDCHAR
STARTCHAR EN DASH
ENCODING 8211
SWIDTH 784 0
DWIDTH 12 0
BBX 10 2 0 6
BITMAP
FFC0
FFC0
ENDCHAR
STARTCHAR EM DASH
ENCODING 8212
SWIDTH 784 0
DWIDTH 12 0
BBX 12 2 0 6
BITMAP
FFF0
FFF0
ENDCHAR
STARTCHAR HORIZONTAL BAR
ENCODING 8213
SWIDTH 784 0
DWIDTH 12 0
BBX 12 2 0 6
BITMAP
FFF0
FFF0
ENDCHAR
STARTCHAR DOUBLE VERTICAL LINE
ENCODING 8214
SWIDTH 784 0
DWIDTH 12 0
BBX 6 16 2 0
BITMAP
CC00
CC00
CC00
CC00
CC00
CC00
CC00
CC00
CC00
CC00
CC00
CC00
CC00
CC00
CC00
CC00
ENDCHAR
STARTCHAR DOUBLE LOW LINE
ENCODING 8215
SWIDTH 784 0
DWIDTH 12 0
BBX 12 6 0 -4
BITMAP
FFF0
FFF0
0000
0000
FFF0
FFF0
ENDCHAR
STARTCHAR LEFT SINGLE QUOTATION MARK
ENCODING 8216
SWIDTH 784 0
DWIDTH 12 0
BBX 4 6 4 8
BITMAP
3000
3000
C000
C000
F000
F000
ENDCHAR
STARTCHAR RIGHT SINGLE QUOTATION MARK
ENCODING 8217
SWIDTH 784 0
DWIDTH 12 0
BBX 4 6 4 8
BITMAP
F000
F000
3000
3000
C000
C000
ENDCHAR
STARTCHAR SINGLE LOW-9 QUOTATION MARK
ENCODING 8218
SWIDTH 784 0
DWIDTH 12 0
BBX 4 6 4 -2
BITMAP
F000
F000
3000
3000
C000
C000
ENDCHAR
STARTCHAR SINGLE HIGH-REVERSED-9 QUOTATION MARK
ENCODING 8219
SWIDTH 784 0
DWIDTH 12 0
BBX 4 6 4 8
BITMAP
F000
F000
C000
C000
3000
3000
ENDCHAR
STARTCHAR LEFT DOUBLE QUOTATION MARK
ENCODING 8220
SWIDTH 784 0
DWIDTH 12 0
BBX 10 6 0 8
BITMAP
30C0
30C0
C300
C300
F3C0
F3C0
ENDCHAR
STARTCHAR RIGHT DOUBLE QUOTATION MARK
ENCODING 8221
SWIDTH 784 0
DWIDTH 12 0
BBX 10 6 0 8
BITMAP
F3C0
F3C0
30C0
30C0
C300
C300
ENDCHAR
STARTCHAR DOUBLE LOW-9 QUOTATION MARK
ENCODING 8222
SWIDTH 784 0
DWIDTH 12 0
BBX 10 6 0 -2
BITMAP
F3C0
F3C0
30C0
30C0
C300
C300
ENDCHAR
STARTCHAR DOUBLE HIGH-REVERSED-9 QUOTATION MARK
ENCODING 8223
SWIDTH 784 0
DWIDTH 12 0
BBX 10 6 0 8
BITMAP
F3C0
F3C0
C300
C300
30C0
30C0
ENDCHAR
STARTCHAR DAGGER
ENCODING 8224
SWIDTH 784 0
DWIDTH 12 0
BBX 10 14 0 0
BITMAP
0C00
0C00
0C00
0C00
FFC0
FFC0
0C00
0C00
0C00
0C00
0C00
0C00
0C00
0C00
ENDCHAR
STARTCHAR DOUBLE DAGGER
ENCODING 8225
SWIDTH 784 0
DWIDTH 12 0
BBX 10 14 0 0
BITMAP
0C00
0C00
0C00
0C00
FFC0
FFC0
0C00
0C00
FFC0
FFC0
0C00
0C00
0C00
0C00
ENDCHAR
STARTCHAR BULLET
ENCODING 8226
SWIDTH 784 0
DWIDTH 12 0
BBX 8 8 2 2
BITMAP
3C00
3C00
FF00
FF00
FF00
FF00
3C00
3C00
ENDCHAR
STARTCHAR TRIANGULAR BULLET
ENCODING 8227
SWIDTH 784 0
DWIDTH 12 0
BBX 10 6 0 4
BITMAP
0C00
0C00
3F00
3F00
FFC0
FFC0
ENDCHAR
STARTCHAR ONE DOT LEADER
ENCODING 8228
SWIDTH 784 0
DWIDTH 12 0
BBX 2 2 4 0
BITMAP
C000
C000
ENDCHAR
STARTCHAR TWO DOT LEADER
ENCODING 8229
SWIDTH 784 0
DWIDTH 12 0
BBX 10 2 0 0
BITMAP
C0C0
C0C0
ENDCHAR
STARTCHAR HORIZONTAL ELLIPSIS
ENCODING 8230
SWIDTH 784 0
DWIDTH 12 0
BBX 10 2 0 0
BITMAP
CCC0
CCC0
ENDCHAR
STARTCHAR HYPHENATION POINT
ENCODING 8231
SWIDTH 784 0
DWIDTH 12 0
BBX 4 2 4 6
BITMAP
F000
F000
ENDCHAR
STARTCHAR PER MILLE SIGN
ENCODING 8240
SWIDTH 784 0
DWIDTH 12 0
BBX 12 14 0 0
BITMAP
30C0
30C0
CCC0
CCC0
3300
3300
0C00
0C00
3CC0
3CC0
F330
F330
CCC0
CCC0
ENDCHAR
STARTCHAR PRIME
ENCODING 8242
SWIDTH 784 0
DWIDTH 12 0
BBX 4 6 4 10
BITMAP
3000
3000
3000
3000
C000
C000
ENDCHAR
STARTCHAR DOUBLE PRIME
ENCODING 8243
SWIDTH 784 0
DWIDTH 12 0
BBX 8 6 2 10
BITMAP
3300
3300
3300
3300
CC00
CC00
ENDCHAR
STARTCHAR TRIPLE PRIME
ENCODING 8244
SWIDTH 784 0
DWIDTH 12 0
BBX 12 6 0 10
BITMAP
3330
3330
3330
3330
CCC0
CCC0
ENDCHAR
STARTCHAR REVERSED PRIME
ENCODING 8245
SWIDTH 784 0
DWIDTH 12 0
BBX 4 6 4 10
BITMAP
C000
C000
C000
C000
3000
3000
ENDCHAR
STARTCHAR REVERSED DOUBLE PRIME
ENCODING 8246
SWIDTH 784 0
DWIDTH 12 0
BBX 8 6 2 10
BITMAP
CC00
CC00
CC00
CC00
3300
3300
ENDCHAR
STARTCHAR REVERSED TRIPLE PRIME
ENCODING 8247
SWIDTH 784 0
DWIDTH 12 0
BBX 12 6 0 10
BITMAP
CCC0
CCC0
CCC0
CCC0
3330
3330
ENDCHAR
STARTCHAR SINGLE LEFT-POINTING ANGLE QUOTATION MARK
ENCODING 8249
SWIDTH 784 0
DWIDTH 12 0
BBX 6 10 2 0
BITMAP
0C00
0C00
3000
3000
C000
C000
3000
3000
0C00
0C00
ENDCHAR
STARTCHAR SINGLE RIGHT-POINTING ANGLE QUOTATION MARK
ENCODING 8250
SWIDTH 784 0
DWIDTH 12 0
BBX 6 10 2 0
BITMAP
C000
C000
3000
3000
0C00
0C00
3000
3000
C000
C000
ENDCHAR
STARTCHAR DOUBLE EXCLAMATION MARK
ENCODING 8252
SWIDTH 784 0
DWIDTH 12 0
BBX 6 14 2 0
BITMAP
CC00
CC00
CC00
CC00
CC00
CC00
CC00
CC00
CC00
CC00
0000
0000
CC00
CC00
ENDCHAR
STARTCHAR OVERLINE
ENCODING 8254
SWIDTH 784 0
DWIDTH 12 0
BBX 12 2 0 14
BITMAP
FFF0
FFF0
ENDCHAR
STARTCHAR FRACTION SLASH
ENCODING 8260
SWIDTH 784 0
DWIDTH 12 0
BBX 10 14 0 0
BITMAP
00C0
00C0
00C0
00C0
0300
0300
0C00
0C00
3000
3000
C000
C000
C000
C000
ENDCHAR
STARTCHAR SUPERSCRIPT ZERO
ENCODING 8304
SWIDTH 784 0
DWIDTH 12 0
BBX 8 10 2 6
BITMAP
3C00
3C00
C300
C300
C300
C300
C300
C300
3C00
3C00
ENDCHAR
STARTCHAR SUPERSCRIPT LATIN SMALL LETTER I
ENCODING 8305
SWIDTH 784 0
DWIDTH 12 0
BBX 6 10 2 6
BITMAP
3000
3000
0000
0000
F000
F000
3000
3000
FC00
FC00
ENDCHAR
STARTCHAR SUPERSCRIPT FOUR
ENCODING 8308
SWIDTH 784 0
DWIDTH 12 0
BBX 8 10 2 6
BITMAP
0C00
0C00
3C00
3C00
CC00
CC00
FF00
FF00
0C00
0C00
ENDCHAR
STARTCHAR SUPERSCRIPT FIVE
ENCODING 8309
SWIDTH 784 0
DWIDTH 12 0
BBX 8 10 2 6
BITMAP
FF00
FF00
C000
C000
FC00
FC00
0300
0300
FC00
FC00
ENDCHAR
STARTCHAR SUPERSCRIPT SIX
ENCODING 8310
SWIDTH 784 0
DWIDTH 12 0
BBX 8 10 2 6
BITMAP
3F00
3F00
C000
C000
FC00
FC00
C300
C300
3C00
3C00
ENDCHAR
STARTCHAR SUPERSCRIPT SEVEN
ENCODING 8311
SWIDTH 784 0
DWIDTH 12 0
BBX 8 10 2 6
BITMAP
FF00
FF00
0300
0300
0C00
0C00
3000
3000
3000
3000
ENDCHAR
STARTCHAR SUPERSCRIPT EIGHT
ENCODING 8312
SWIDTH 784 0
DWIDTH 12 0
BBX 8 10 2 6
BITMAP
3C00
3C00
C300
C300
3C00
3C00
C300
C300
3C00
3C00
ENDCHAR
STARTCHAR SUPERSCRIPT NINE
ENCODING 8313
SWIDTH 784 0
DWIDTH 12 0
BBX 8 10 2 6
BITMAP
3C00
3C00
C300
C300
3F00
3F00
0300
0300
3C00
3C00
ENDCHAR
STARTCHAR SUPERSCRIPT PLUS SIGN
ENCODING 8314
SWIDTH 784 0
DWIDTH 12 0
BBX 6 6 2 8
BITMAP
3000
3000
FC00
FC00
3000
3000
ENDCHAR
STARTCHAR SUPERSCRIPT MINUS
ENCODING 8315
SWIDTH 784 0
DWIDTH 12 0
BBX 6 2 2 10
BITMAP
FC00
FC00
ENDCHAR
STARTCHAR SUPERSCRIPT EQUALS SIGN
ENCODING 8316
SWIDTH 784 0
DWIDTH 12 0
BBX 8 6 2 8
BITMAP
FF00
FF00
0000
0000
FF00
FF00
ENDCHAR
STARTCHAR SUPERSCRIPT LEFT PARENTHESIS
ENCODING 8317
SWIDTH 784 0
DWIDTH 12 0
BBX 4 10 4 6
BITMAP
3000
3000
C000
C000
C000
C000
C000
C000
3000
3000
ENDCHAR
STARTCHAR SUPERSCRIPT RIGHT PARENTHESIS
ENCODING 8318
SWIDTH 784 0
DWIDTH 12 0
BBX 4 10 4 6
BITMAP
C000
C000
3000
3000
3000
3000
3000
3000
C000
C000
ENDCHAR
STARTCHAR SUPERSCRIPT LATIN SMALL LETTER N
ENCODING 8319
SWIDTH 784 0
DWIDTH 12 0
BBX 8 8 2 6
BITMAP
CC00
CC00
F300
F300
C300
C300
C300
C300
ENDCHAR
STARTCHAR SUBSCRIPT ZERO
ENCODING 8320
SWIDTH 784 0
DWIDTH 12 0
BBX 8 10 2 -4
BITMAP
3C00
3C00
C300
C300
C300
C300
C300
C300
3C00
3C00
ENDCHAR
STARTCHAR SUBSCRIPT ONE
ENCODING 8321
SWIDTH 784 0
DWIDTH 12 0
BBX 6 10 2 -4
BITMAP
3000
3000
F000
F000
3000
3000
3000
3000
FC00
FC00
ENDCHAR
STARTCHAR SUBSCRIPT TWO
ENCODING 8322
SWIDTH 784 0
DWIDTH 12 0
BBX 8 10 2 -4
BITMAP
3C00
3C00
C300
C300
0C00
0C00
3000
3000
FF00
FF00
ENDCHAR
STARTCHAR SUBSCRIPT THREE
ENCODING 8323
SWIDTH 784 0
DWIDTH 12 0
BBX 8 10 2 -4
BITMAP
FC00
FC00
0300
0300
3C00
3C00
0300
0300
FC00
FC00
ENDCHAR
STARTCHAR SUBSCRIPT FOUR
ENCODING 8324
SWIDTH 784 0
DWIDTH 12 0
BBX 8 10 2 -4
BITMAP
0C00
0C00
3C00
3C00
CC00
CC00
FF00
FF00
0C00
0C00
ENDCHAR
STARTCHAR SUBSCRIPT FIVE
ENCODING 8325
SWIDTH 784 0
DWIDTH 12 0
BBX 8 10 2 -4
BITMAP
FF00
FF00
C000
C000
FC00
FC00
0300
0300
FC00
FC00
ENDCHAR
STARTCHAR SUBSCRIPT SIX
ENCODING 8326
SWIDTH 784 0
DWIDTH 12 0
BBX 8 10 2 -4
BITMAP
3F00
3F00
C000
C000
FC00
FC00
C300
C300
3C00
3C00
ENDCHAR
STARTCHAR SUBSCRIPT SEVEN
ENCODING 8327
SWIDTH 784 0
DWIDTH 12 0
BBX 8 10 2 -4
BITMAP
FF00
FF00
0300
0300
0C00
0C00
3000
3000
3000
3000
ENDCHAR
STARTCHAR SUBSCRIPT EIGHT
ENCODING 8328
SWIDTH 784 0
DWIDTH 12 0
BBX 8 10 2 -4
BITMAP
3C00
3C00
C300
C300
3C00
3C00
C300
C300
3C00
3C00
ENDCHAR
STARTCHAR SUBSCRIPT NINE
ENCODING 8329
SWIDTH 784 0
DWIDTH 12 0
BBX 8 10 2 -4
BITMAP
3C00
3C00
C300
C300
3F00
3F00
0300
0300
3C00
3C00
ENDCHAR
STARTCHAR SUBSCRIPT PLUS SIGN
ENCODING 8330
SWIDTH 784 0
DWIDTH 12 0
BBX 6 6 2 -2
BITMAP
3000
3000
FC00
FC00
3000
3000
ENDCHAR
STARTCHAR SUBSCRIPT MINUS
ENCODING 8331
SWIDTH 784 0
DWIDTH 12 0
BBX 6 2 2 0
BITMAP
FC00
FC00
ENDCHAR
STARTCHAR SUBSCRIPT EQUALS SIGN
ENCODING 8332
SWIDTH 784 0
DWIDTH 12 0
BBX 8 6 2 -2
BITMAP
FF00
FF00
0000
0000
FF00
FF00
ENDCHAR
STARTCHAR SUBSCRIPT LEFT PARENTHESIS
ENCODING 8333
SWIDTH 784 0
DWIDTH 12 0
BBX 4 10 4 -4
BITMAP
3000
3000
C000
C000
C000
C000
C000
C000
3000
3000
ENDCHAR
STARTCHAR SUBSCRIPT RIGHT PARENTHESIS
ENCODING 8334
SWIDTH 784 0
DWIDTH 12 0
BBX 4 10 4 -4
BITMAP
C000
C000
3000
3000
3000
3000
3000
3000
C000
C000
ENDCHAR
STARTCHAR FRENCH FRANC SIGN
ENCODING 8355
SWIDTH 784 0
DWIDTH 12 0
BBX 10 14 0 0
BITMAP
FFC0
FFC0
C000
C000
C000
C000
FCC0
FCC0
CF00
CF00
CC00
CC00
CC00
CC00
ENDCHAR
STARTCHAR LIRA SIGN
ENCODING 8356
SWIDTH 784 0
DWIDTH 12 0
BBX 10 14 0 0
BITMAP
0F00
0F00
30C0
30C0
FC00
FC00
3000
3000
FC00
FC00
30C0
30C0
CF00
CF00
ENDCHAR
STARTCHAR PESETA SIGN
ENCODING 8359
SWIDTH 784 0
DWIDTH 12 0
BBX 12 14 0 0
BITMAP
3F00
3F00
30C0
30C0
FFF0
FFF0
30C0
30C0
3F00
3F00
3000
3000
3000
3000
ENDCHAR
STARTCHAR DONG SIGN
ENCODING 8363
SWIDTH 784 0
DWIDTH 12 0
BBX 12 18 0 -4
BITMAP
00C0
00C0
0FF0
0FF0
3CC0
3CC0
C3C0
C3C0
C0C0
C0C0
C3C0
C3C0
3CC0
3CC0
0000
0000
FFC0
FFC0
ENDCHAR
STARTCHAR EURO SIGN
ENCODING 8364
SWIDTH 784 0
DWIDTH 12 0
BBX 10 14 0 0
BITMAP
0F00
0F00
30C0
30C0
FC00
FC00
3000
3000
FC00
FC00
30C0
30C0
0F00
0F00
ENDCHAR
STARTCHAR DRACHMA SIGN
ENCODING 8367
SWIDTH 784 0
DWIDTH 12 0
BBX 10 14 0 0
BITMAP
3000
3000
3F00
3F00
F0C0
F0C0
30C0
30C0
30C0
30C0
FCC0
FCC0
F300
F300
ENDCHAR
STARTCHAR COMBINING LEFT HARPOON ABOVE
ENCODING 8400
SWIDTH 784 0
DWIDTH 12 0
BBX 10 4 0 12
BITMAP
3000
3000
FFC0
FFC0
ENDCHAR
STARTCHAR COMBINING RIGHT HARPOON ABOVE
ENCODING 8401
SWIDTH 784 0
DWIDTH 12 0
BBX 10 4 0 12
BITMAP
0300
0300
FFC0
FFC0
ENDCHAR
STARTCHAR COMBINING LONG VERTICAL LINE OVERLAY
ENCODING 8402
SWIDTH 784 0
DWIDTH 12 0
BBX 2 22 4 -4
BITMAP
C000
C000
C000
C000
C000
C000
C000
C000
C000
C000
C000
C000
C000
C000
C000
C000
C000
C000
C000
C000
C000
C000
ENDCHAR
STARTCHAR COMBINING SHORT VERTICAL LINE OVERLAY
ENCODING 8403
SWIDTH 784 0
DWIDTH 12 0
BBX 2 12 4 0
BITMAP
C000
C000
C000
C000
C000
C000
C000
C000
C000
C000
C000
C000
ENDCHAR
STARTCHAR COMBINING ANTICLOCKWISE ARROW ABOVE
ENCODING 8404
SWIDTH 784 0
DWIDTH 12 0
BBX 10 6 0 10
BITMAP
CF00
CF00
F0C0
F0C0
FC00
FC00
ENDCHAR
STARTCHAR COMBINING CLOCKWISE ARROW ABOVE
ENCODING 8405
SWIDTH 784 0
DWIDTH 12 0
BBX 10 6 0 10
BITMAP
3CC0
3CC0
C3C0
C3C0
0FC0
0FC0
ENDCHAR
STARTCHAR COMBINING LEFT ARROW ABOVE
ENCODING 8406
SWIDTH 784 0
DWIDTH 12 0
BBX 10 6 0 10
BITMAP
3000
3000
FFC0
FFC0
3000
3000
ENDCHAR
STARTCHAR COMBINING RIGHT ARROW ABOVE
ENCODING 8407
SWIDTH 784 0
DWIDTH 12 0
BBX 10 6 0 10
BITMAP
0300
0300
FFC0
FFC0
0300
0300
ENDCHAR
STARTCHAR DOUBLE-STRUCK CAPITAL C
ENCODING 8450
SWIDTH 784 0
DWIDTH 12 0
BBX 10 14 0 0
BITMAP
3F00
3F00
CCC0
CCC0
CC00
CC00
CC00
CC00
CC00
CC00
CCC0
CCC0
3F00
3F00
ENDCHAR
STARTCHAR CARE OF
ENCODING 8453
SWIDTH 784 0
DWIDTH 12 0
BBX 10 18 0 -2
BITMAP
3C00
3C00
C000
C000
C000
C000
3C00
3C00
0000
0000
0F00
0F00
30C0
30C0
30C0
30C0
0F00
0F00
ENDCHAR
STARTCHAR SCRIPT SMALL L
ENCODING 8467
SWIDTH 784 0
DWIDTH 12 0
BBX 8 14 2 0
BITMAP
0C00
0C00
3300
3300
3300
3300
3300
3300
3C00
3C00
3000
3000
CF00
CF00
ENDCHAR
STARTCHAR DOUBLE-STRUCK CAPITAL N
ENCODING 8469
SWIDTH 784 0
DWIDTH 12 0
BBX 10 14 0 0
BITMAP
C0C0
C0C0
F0C0
F0C0
F0C0
F0C0
FCC0
FCC0
F3C0
F3C0
F3C0
F3C0
F0C0
F0C0
ENDCHAR
STARTCHAR NUMERO SIGN
ENCODING 8470
SWIDTH 784 0
DWIDTH 12 0
BBX 12 14 0 0
BITMAP
C300
C300
C300
C300
F3C0
F3C0
CF30
CF30
C330
C330
C3C0
C3C0
C3F0
C3F0
ENDCHAR
STARTCHAR DOUBLE-STRUCK CAPITAL Q
ENCODING 8474
SWIDTH 784 0
DWIDTH 12 0
BBX 10 16 0 -2
BITMAP
3F00
3F00
CCC0
CCC0
CCC0
CCC0
CCC0
CCC0
CCC0
CCC0
CCC0
CCC0
3F00
3F00
03C0
03C0
ENDCHAR
STARTCHAR DOUBLE-STRUCK CAPITAL R
ENCODING 8477
SWIDTH 784 0
DWIDTH 12 0
BBX 10 14 0 0
BITMAP
FF00
FF00
CCC0
CCC0
CCC0
CCC0
CF00
CF00
CCC0
CCC0
CCC0
CCC0
CCC0
CCC0
ENDCHAR
STARTCHAR TRADE MARK SIGN
ENCODING 8482
SWIDTH 784 0
DWIDTH 12 0
BBX 12 8 0 8
BITMAP
FFF0
FFF0
33F0
33F0
3330
3330
3330
3330
ENDCHAR
STARTCHAR DOUBLE-STRUCK CAPITAL Z
ENCODING 8484
SWIDTH 784 0
DWIDTH 12 0
BBX 10 14 0 0
BITMAP
FFC0
FFC0
0CC0
0CC0
0CC0
0CC0
3300
3300
CC00
CC00
CC00
CC00
FFC0
FFC0
ENDCHAR
STARTCHAR OHM SIGN
ENCODING 8486
SWIDTH 784 0
DWIDTH 12 0
BBX 10 14 0 0
BITMAP
3F00
3F00
C0C0
C0C0
C0C0
C0C0
C0C0
C0C0
C0C0
C0C0
3300
3300
F3C0
F3C0
ENDCHAR
STARTCHAR INVERTED OHM SIGN
ENCODING 8487
SWIDTH 784 0
DWIDTH 12 0
BBX 10 14 0 0
BITMAP
F3C0
F3C0
3300
3300
C0C0
C0C0
C0C0
C0C0
C0C0
C0C0
C0C0
C0C0
3F00
3F00
ENDCHAR
STARTCHAR ESTIMATED SYMBOL
ENCODING 8494
SWIDTH 784 0
DWIDTH 12 0
BBX 10 10 0 0
BITMAP
3F00
3F00
F3C0
F3C0
FFC0
FFC0
F000
F000
3F00
3F00
ENDCHAR
STARTCHAR VULGAR FRACTION ONE EIGHTH
ENCODING 8539
SWIDTH 784 0
DWIDTH 12 0
BBX 12 20 0 -4
BITMAP
3000
3000
F000
F000
3000
3000
3000
3000
FC00
FC00
00C0
00C0
0330
0330
00C0
00C0
0330
0330
00C0
00C0
ENDCHAR
STARTCHAR VULGAR FRACTION THREE EIGHTHS
ENCODING 8540
SWIDTH 784 0
DWIDTH 12 0
BBX 12 20 0 -4
BITMAP
F000
F000
0C00
0C00
3000
3000
0C00
0C00
F000
F000
0300
0300
0CC0
0CC0
0300
0300
0CC0
0CC0
0300
0300
ENDCHAR
STARTCHAR VULGAR FRACTION FIVE EIGHTHS
ENCODING 8541
SWIDTH 784 0
DWIDTH 12 0
BBX 12 20 0 -4
BITMAP
FC00
FC00
C000
C000
F000
F000
0C00
0C00
F000
F000
0300
0300
0CC0
0CC0
0300
0300
0CC0
0CC0
0300
0300
ENDCHAR
STARTCHAR VULGAR FRACTION SEVEN EIGHTHS
ENCODING 8542
SWIDTH 784 0
DWIDTH 12 0
BBX 12 20 0 -4
BITMAP
FC00
FC00
0C00
0C00
0C00
0C00
3000
3000
3000
3000
0300
0300
0CC0
0CC0
0300
0300
0CC0
0CC0
0300
0300
ENDCHAR
STARTCHAR LEFTWARDS ARROW
ENCODING 8592
SWIDTH 784 0
DWIDTH 12 0
BBX 12 10 0 0
BITMAP
0C00
0C00
3000
3000
FFF0
FFF0
3000
3000
0C00
0C00
ENDCHAR
STARTCHAR UPWARDS ARROW
ENCODING 8593
SWIDTH 784 0
DWIDTH 12 0
BBX 10 14 0 0
BITMAP
0C00
0C00
3F00
3F00
CCC0
CCC0
0C00
0C00
0C00
0C00
0C00
0C00
0C00
0C00
ENDCHAR
STARTCHAR RIGHTWARDS ARROW
ENCODING 8594
SWIDTH 784 0
DWIDTH 12 0
BBX 12 10 0 0
BITMAP
0300
0300
00C0
00C0
FFF0
FFF0
00C0
00C0
0300
0300
ENDCHAR
STARTCHAR DOWNWARDS ARROW
ENCODING 8595
SWIDTH 784 0
DWIDTH 12 0
BBX 10 14 0 0
BITMAP
0C00
0C00
0C00
0C00
0C00
0C00
0C00
0C00
CCC0
CCC0
3F00
3F00
0C00
0C00
ENDCHAR
STARTCHAR LEFT RIGHT ARROW
ENCODING 8596
SWIDTH 784 0
DWIDTH 12 0
BBX 12 6 0 2
BITMAP
30C0
30C0
FFF0
FFF0
30C0
30C0
ENDCHAR
STARTCHAR UP DOWN ARROW
ENCODING 8597
SWIDTH 784 0
DWIDTH 12 0
BBX 10 16 0 -2
BITMAP
0C00
0C00
3F00
3F00
CCC0
CCC0
0C00
0C00
0C00
0C00
CCC0
CCC0
3F00
3F00
0C00
0C00
ENDCHAR
STARTCHAR NORTH WEST ARROW
ENCODING 8598
SWIDTH 784 0
DWIDTH 12 0
BBX 10 10 0 2
BITMAP
FF00
FF00
F000
F000
CC00
CC00
C300
C300
00C0
00C0
ENDCHAR
STARTCHAR NORTH EAST ARROW
ENCODING 8599
SWIDTH 784 0
DWIDTH 12 0
BBX 10 10 0 2
BITMAP
3FC0
3FC0
03C0
03C0
0CC0
0CC0
30C0
30C0
C000
C000
ENDCHAR
STARTCHAR SOUTH EAST ARROW
ENCODING 8600
SWIDTH 784 0
DWIDTH 12 0
BBX 10 10 0 2
BITMAP
C000
C000
30C0
30C0
0CC0
0CC0
03C0
03C0
3FC0
3FC0
ENDCHAR
STARTCHAR SOUTH WEST ARROW
ENCODING 8601
SWIDTH 784 0
DWIDTH 12 0
BBX 10 10 0 2
BITMAP
00C0
00C0
C300
C300
CC00
CC00
F000
F000
FF00
FF00
ENDCHAR
STARTCHAR LEFTWARDS ARROW FROM BAR
ENCODING 8612
SWIDTH 784 0
DWIDTH 12 0
BBX 12 10 0 0
BITMAP
0C30
0C30
3030
3030
FFF0
FFF0
3030
3030
0C30
0C30
ENDCHAR
STARTCHAR UPWARDS ARROW FROM BAR
ENCODING 8613
SWIDTH 784 0
DWIDTH 12 0
BBX 10 14 0 0
BITMAP
0C00
0C00
3F00
3F00
CCC0
CCC0
0C00
0C00
0C00
0C00
0C00
0C00
3F00
3F00
ENDCHAR
STARTCHAR RIGHTWARDS ARROW FROM BAR
ENCODING 8614
SWIDTH 784 0
DWIDTH 12 0
BBX 12 10 0 0
BITMAP
0300
0300
C0C0
C0C0
FFF0
FFF0
C0C0
C0C0
0300
0300
ENDCHAR
STARTCHAR DOWNWARDS ARROW FROM BAR
ENCODING 8615
SWIDTH 784 0
DWIDTH 12 0
BBX 10 14 0 0
BITMAP
3F00
3F00
0C00
0C00
0C00
0C00
0C00
0C00
CCC0
CCC0
3F00
3F00
0C00
0C00
ENDCHAR
STARTCHAR UP DOWN ARROW WITH BASE
ENCODING 8616
SWIDTH 784 0
DWIDTH 12 0
BBX 10 18 0 -2
BITMAP
0C00
0C00
3F00
3F00
CCC0
CCC0
0C00
0C00
0C00
0C00
CCC0
CCC0
3F00
3F00
0C00
0C00
FFC0
FFC0
ENDCHAR
STARTCHAR RIGHTWARDS ARROW OVER LEFTWARDS ARROW
ENCODING 8644
SWIDTH 784 0
DWIDTH 12 0
BBX 12 18 0 -4
BITMAP
0300
0300
00C0
00C0
FFF0
FFF0
00C0
00C0
0F00
0F00
3000
3000
FFF0
FFF0
3000
3000
0C00
0C00
ENDCHAR
STARTCHAR LEFTWARDS ARROW OVER RIGHTWARDS ARROW
ENCODING 8646
SWIDTH 784 0
DWIDTH 12 0
BBX 12 18 0 -4
BITMAP
0C00
0C00
3000
3000
FFF0
FFF0
3000
3000
0F00
0F00
00C0
00C0
FFF0
FFF0
00C0
00C0
0300
0300
ENDCHAR
STARTCHAR LEFTWARDS HARPOON OVER RIGHTWARDS HARPOON
ENCODING 8651
SWIDTH 784 0
DWIDTH 12 0
BBX 12 14 0 -2
BITMAP
0C00
0C00
3000
3000
FFF0
FFF0
0000
0000
FFF0
FFF0
00C0
00C0
0300
0300
ENDCHAR
STARTCHAR RIGHTWARDS HARPOON OVER LEFTWARDS HARPOON
ENCODING 8652
SWIDTH 784 0
DWIDTH 12 0
BBX 12 14 0 -2
BITMAP
0300
0300
00C0
00C0
FFF0
FFF0
0000
0000
FFF0
FFF0
3000
3000
0C00
0C00
ENDCHAR
STARTCHAR LEFTWARDS DOUBLE ARROW
ENCODING 8656
SWIDTH 784 0
DWIDTH 12 0
BBX 12 14 0 0
BITMAP
0300
0300
0C00
0C00
3FF0
3FF0
C000
C000
3FF0
3FF0
0C00
0C00
0300
0300
ENDCHAR
STARTCHAR UPWARDS DOUBLE ARROW
ENCODING 8657
SWIDTH 784 0
DWIDTH 12 0
BBX 10 14 0 0
BITMAP
0C00
0C00
3F00
3F00
F3C0
F3C0
3300
3300
3300
3300
3300
3300
3300
3300
ENDCHAR
STARTCHAR RIGHTWARDS DOUBLE ARROW
ENCODING 8658
SWIDTH 784 0
DWIDTH 12 0
BBX 12 14 0 0
BITMAP
0C00
0C00
0300
0300
FFC0
FFC0
0030
0030
FFC0
FFC0
0300
0300
0C00
0C00
ENDCHAR
STARTCHAR DOWNWARDS DOUBLE ARROW
ENCODING 8659
SWIDTH 784 0
DWIDTH 12 0
BBX 10 14 0 0
BITMAP
3300
3300
3300
3300
3300
3300
3300
3300
F3C0
F3C0
3F00
3F00
0C00
0C00
ENDCHAR
STARTCHAR LEFT RIGHT DOUBLE ARROW
ENCODING 8660
SWIDTH 784 0
DWIDTH 12 0
BBX 12 6 0 4
BITMAP
3FC0
3FC0
C030
C030
3FC0
3FC0
ENDCHAR
STARTCHAR UP DOWN DOUBLE ARROW
ENCODING 8661
SWIDTH 784 0
DWIDTH 12 0
BBX 10 16 0 -2
BITMAP
0C00
0C00
3300
3300
F3C0
F3C0
3300
3300
3300
3300
F3C0
F3C0
3300
3300
0C00
0C00
ENDCHAR
STARTCHAR FOR ALL
ENCODING 8704
SWIDTH 784 0
DWIDTH 12 0
BBX 10 14 0 0
BITMAP
C0C0
C0C0
C0C0
C0C0
3F00
3F00
3300
3300
3300
3300
0C00
0C00
0C00
0C00
ENDCHAR
STARTCHAR COMPLEMENT
ENCODING 8705
SWIDTH 784 0
DWIDTH 12 0
BBX 6 14 2 0
BITMAP
3000
3000
CC00
CC00
C000
C000
C000
C000
C000
C000
CC00
CC00
3000
3000
ENDCHAR
STARTCHAR PARTIAL DIFFERENTIAL
ENCODING 8706
SWIDTH 784 0
DWIDTH 12 0
BBX 10 14 0 0
BITMAP
0F00
0F00
00C0
00C0
3CC0
3CC0
C3C0
C3C0
C0C0
C0C0
C0C0
C0C0
3F00
3F00
ENDCHAR
STARTCHAR THERE EXISTS
ENCODING 8707
SWIDTH 784 0
DWIDTH 12 0
BBX 10 14 0 0
BITMAP
FFC0
FFC0
00C0
00C0
00C0
00C0
3FC0
3FC0
00C0
00C0
00C0
00C0
FFC0
FFC0
ENDCHAR
STARTCHAR THERE DOES NOT EXIST
ENCODING 8708
SWIDTH 784 0
DWIDTH 12 0
BBX 10 18 0 -2
BITMAP
0C00
0C00
FFC0
FFC0
0CC0
0CC0
0CC0
0CC0
3FC0
3FC0
0CC0
0CC0
0CC0
0CC0
FFC0
FFC0
0C00
0C00
ENDCHAR
STARTCHAR EMPTY SET
ENCODING 8709
SWIDTH 784 0
DWIDTH 12 0
BBX 12 12 0 0
BITMAP
0F30
0F30
30C0
30C0
C330
C330
CC30
CC30
30C0
30C0
CF00
CF00
ENDCHAR
STARTCHAR INCREMENT
ENCODING 8710
SWIDTH 784 0
DWIDTH 12 0
BBX 10 12 0 0
BITMAP
0C00
0C00
0C00
0C00
3300
3300
3300
3300
C0C0
C0C0
FFC0
FFC0
ENDCHAR
STARTCHAR NABLA
ENCODING 8711
SWIDTH 784 0
DWIDTH 12 0
BBX 10 12 0 0
BITMAP
FFC0
FFC0
C0C0
C0C0
3300
3300
3300
3300
0C00
0C00
0C00
0C00
ENDCHAR
STARTCHAR ELEMENT OF
ENCODING 8712
SWIDTH 784 0
DWIDTH 12 0
BBX 10 14 0 0
BITMAP
3FC0
3FC0
C000
C000
C000
C000
FF00
FF00
C000
C000
C000
C000
3FC0
3FC0
ENDCHAR
STARTCHAR NOT AN ELEMENT OF
ENCODING 8713
SWIDTH 784 0
DWIDTH 12 0
BBX 10 18 0 -2
BITMAP
0C00
0C00
3FC0
3FC0
CC00
CC00
CC00
CC00
FF00
FF00
CC00
CC00
CC00
CC00
3FC0
3FC0
0C00
0C00
ENDCHAR
STARTCHAR CONTAINS AS MEMBER
ENCODING 8715
SWIDTH 784 0
DWIDTH 12 0
BBX 10 14 0 0
BITMAP
FF00
FF00
00C0
00C0
00C0
00C0
3FC0
3FC0
00C0
00C0
00C0
00C0
FF00
FF00
ENDCHAR
STARTCHAR DOES NOT CONTAIN AS MEMBER
ENCODING 8716
SWIDTH 784 0
DWIDTH 12 0
BBX 10 18 0 -2
BITMAP
0C00
0C00
FF00
FF00
0CC0
0CC0
0CC0
0CC0
3FC0
3FC0
0CC0
0CC0
0CC0
0CC0
FF00
FF00
0C00
0C00
ENDCHAR
STARTCHAR N-ARY PRODUCT
ENCODING 8719
SWIDTH 784 0
DWIDTH 12 0
BBX 10 18 0 -2
BITMAP
FFC0
FFC0
3300
3300
3300
3300
3300
3300
3300
3300
3300
3300
3300
3300
3300
3300
3300
3300
ENDCHAR
STARTCHAR N-ARY SUMMATION
ENCODING 8721
SWIDTH 784 0
DWIDTH 12 0
BBX 10 18 0 -2
BITMAP
FFC0
FFC0
C000
C000
3000
3000
0C00
0C00
0300
0300
0C00
0C00
3000
3000
C000
C000
FFC0
FFC0
ENDCHAR
STARTCHAR MINUS SIGN
ENCODING 8722
SWIDTH 784 0
DWIDTH 12 0
BBX 10 2 0 6
BITMAP
FFC0
FFC0
ENDCHAR
STARTCHAR MINUS-OR-PLUS SIGN
ENCODING 8723
SWIDTH 784 0
DWIDTH 12 0
BBX 10 12 0 0
BITMAP
FFC0
FFC0
0C00
0C00
0C00
0C00
FFC0
FFC0
0C00
0C00
0C00
0C00
ENDCHAR
STARTCHAR DIVISION SLASH
ENCODING 8725
SWIDTH 784 0
DWIDTH 12 0
BBX 10 14 0 0
BITMAP
00C0
00C0
00C0
00C0
0300
0300
0C00
0C00
3000
3000
C000
C000
C000
C000
ENDCHAR
STARTCHAR RING OPERATOR
ENCODING 8728
SWIDTH 784 0
DWIDTH 12 0
BBX 8 8 2 2
BITMAP
3C00
3C00
C300
C300
C300
C300
3C00
3C00
ENDCHAR
STARTCHAR BULLET OPERATOR
ENCODING 8729
SWIDTH 784 0
DWIDTH 12 0
BBX 8 8 2 2
BITMAP
3C00
3C00
FF00
FF00
FF00
FF00
3C00
3C00
ENDCHAR
STARTCHAR SQUARE ROOT
ENCODING 8730
SWIDTH 784 0
DWIDTH 12 0
BBX 12 12 0 0
BITMAP
00F0
00F0
0300
0300
0300
0300
0C00
0C00
CC00
CC00
3000
3000
ENDCHAR
STARTCHAR PROPORTIONAL TO
ENCODING 8733
SWIDTH 784 0
DWIDTH 12 0
BBX 8 8 2 2
BITMAP
3300
3300
CC00
CC00
CC00
CC00
3300
3300
ENDCHAR
STARTCHAR INFINITY
ENCODING 8734
SWIDTH 784 0
DWIDTH 12 0
BBX 10 8 0 2
BITMAP
3300
3300
CCC0
CCC0
CCC0
CCC0
3300
3300
ENDCHAR
STARTCHAR RIGHT ANGLE
ENCODING 8735
SWIDTH 784 0
DWIDTH 12 0
BBX 10 10 0 2
BITMAP
C000
C000
C000
C000
C000
C000
C000
C000
FFC0
FFC0
ENDCHAR
STARTCHAR MEASURED ANGLE
ENCODING 8737
SWIDTH 784 0
DWIDTH 12 0
BBX 10 12 0 -2
BITMAP
3300
3300
0C00
0C00
3300
3300
C300
C300
FFC0
FFC0
0300
0300
ENDCHAR
STARTCHAR DOES NOT DIVIDE
ENCODING 8740
SWIDTH 784 0
DWIDTH 12 0
BBX 6 14 2 0
BITMAP
3000
3000
3000
3000
3C00
3C00
3000
3000
F000
F000
3000
3000
3000
3000
ENDCHAR
STARTCHAR PARALLEL TO
ENCODING 8741
SWIDTH 784 0
DWIDTH 12 0
BBX 6 14 2 0
BITMAP
CC00
CC00
CC00
CC00
CC00
CC00
CC00
CC00
CC00
CC00
CC00
CC00
CC00
CC00
ENDCHAR
STARTCHAR NOT PARALLEL TO
ENCODING 8742
SWIDTH 784 0
DWIDTH 12 0
BBX 10 14 0 0
BITMAP
3300
3300
3300
3300
33C0
33C0
3F00
3F00
F300
F300
3300
3300
3300
3300
ENDCHAR
STARTCHAR LOGICAL AND
ENCODING 8743
SWIDTH 784 0
DWIDTH 12 0
BBX 10 12 0 0
BITMAP
0C00
0C00
0C00
0C00
3300
3300
3300
3300
C0C0
C0C0
C0C0
C0C0
ENDCHAR
STARTCHAR LOGICAL OR
ENCODING 8744
SWIDTH 784 0
DWIDTH 12 0
BBX 10 12 0 0
BITMAP
C0C0
C0C0
C0C0
C0C0
3300
3300
3300
3300
0C00
0C00
0C00
0C00
ENDCHAR
STARTCHAR INTERSECTION
ENCODING 8745
SWIDTH 784 0
DWIDTH 12 0
BBX 10 12 0 0
BITMAP
3F00
3F00
C0C0
C0C0
C0C0
C0C0
C0C0
C0C0
C0C0
C0C0
C0C0
C0C0
ENDCHAR
STARTCHAR UNION
ENCODING 8746
SWIDTH 784 0
DWIDTH 12 0
BBX 10 12 0 0
BITMAP
C0C0
C0C0
C0C0
C0C0
C0C0
C0C0
C0C0
C0C0
C0C0
C0C0
3F00
3F00
ENDCHAR
STARTCHAR INTEGRAL
ENCODING 8747
SWIDTH 784 0
DWIDTH 12 0
BBX 12 20 0 -4
BITMAP
0300
0300
0CC0
0CC0
0C00
0C00
0C00
0C00
0C00
0C00
0C00
0C00
0C00
0C00
0C00
0C00
CC00
CC00
3000
3000
ENDCHAR
STARTCHAR CONTOUR INTEGRAL
ENCODING 8750
SWIDTH 784 0
DWIDTH 12 0
BBX 12 20 0 -4
BITMAP
0300
0300
0CC0
0CC0
0C00
0C00
3F00
3F00
CCC0
CCC0
CCC0
CCC0
3F00
3F00
0C00
0C00
CC00
CC00
3000
3000
ENDCHAR
STARTCHAR TILDE OPERATOR
ENCODING 8764
SWIDTH 784 0
DWIDTH 12 0
BBX 10 6 0 4
BITMAP
30C0
30C0
CCC0
CCC0
C300
C300
ENDCHAR
STARTCHAR ASYMPTOTICALLY EQUAL TO
ENCODING 8771
SWIDTH 784 0
DWIDTH 12 0
BBX 10 10 0 0
BITMAP
3000
3000
CCC0
CCC0
0300
0300
0000
0000
FFC0
FFC0
ENDCHAR
STARTCHAR APPROXIMATELY EQUAL TO
ENCODING 8773
SWIDTH 784 0
DWIDTH 12 0
BBX 10 14 0 0
BITMAP
3000
3000
CCC0
CCC0
0300
0300
0000
0000
FFC0
FFC0
0000
0000
FFC0
FFC0
ENDCHAR
STARTCHAR ALMOST EQUAL TO
ENCODING 8776
SWIDTH 784 0
DWIDTH 12 0
BBX 10 10 0 0
BITMAP
3000
3000
CCC0
CCC0
3300
3300
CCC0
CCC0
0300
0300
ENDCHAR
STARTCHAR NOT ALMOST EQUAL TO
ENCODING 8777
SWIDTH 784 0
DWIDTH 12 0
BBX 10 14 0 -2
BITMAP
0C00
0C00
3C00
3C00
CCC0
CCC0
3F00
3F00
CCC0
CCC0
0F00
0F00
0C00
0C00
ENDCHAR
STARTCHAR ESTIMATES
ENCODING 8793
SWIDTH 784 0
DWIDTH 12 0
BBX 10 12 0 0
BITMAP
0C00
0C00
3300
3300
0000
0000
FFC0
FFC0
0000
0000
FFC0
FFC0
ENDCHAR
STARTCHAR QUESTIONED EQUAL TO
ENCODING 8799
SWIDTH 784 0
DWIDTH 12 0
BBX 10 18 0 -2
BITMAP
3C00
3C00
0300
0300
0C00
0C00
0000
0000
0C00
0C00
0000
0000
FFC0
FFC0
0000
0000
FFC0
FFC0
ENDCHAR
STARTCHAR NOT EQUAL TO
ENCODING 8800
SWIDTH 784 0
DWIDTH 12 0
BBX 10 14 0 0
BITMAP
00C0
00C0
0300
0300
FFC0
FFC0
0C00
0C00
FFC0
FFC0
3000
3000
C000
C000
ENDCHAR
STARTCHAR IDENTICAL TO
ENCODING 8801
SWIDTH 784 0
DWIDTH 12 0
BBX 10 10 0 0
BITMAP
FFC0
FFC0
0000
0000
FFC0
FFC0
0000
0000
FFC0
FFC0
ENDCHAR
STARTCHAR NOT IDENTICAL TO
ENCODING 8802
SWIDTH 784 0
DWIDTH 12 0
BBX 10 14 0 -2
BITMAP
00C0
00C0
FFC0
FFC0
0300
0300
FFC0
FFC0
0C00
0C00
FFC0
FFC0
3000
3000
ENDCHAR
STARTCHAR LESS-THAN OR EQUAL TO
ENCODING 8804
SWIDTH 784 0
DWIDTH 12 0
BBX 10 14 0 0
BITMAP
03C0
03C0
3C00
3C00
C000
C000
3C00
3C00
03C0
03C0
0000
0000
FFC0
FFC0
ENDCHAR
STARTCHAR GREATER-THAN OR EQUAL TO
ENCODING 8805
SWIDTH 784 0
DWIDTH 12 0
BBX 10 14 0 0
BITMAP
F000
F000
0F00
0F00
00C0
00C0
0F00
0F00
F000
F000
0000
0000
FFC0
FFC0
ENDCHAR
STARTCHAR MUCH LESS-THAN
ENCODING 8810
SWIDTH 784 0
DWIDTH 12 0
BBX 12 10 0 0
BITMAP
0C30
0C30
30C0
30C0
C300
C300
30C0
30C0
0C30
0C30
ENDCHAR
STARTCHAR MUCH GREATER-THAN
ENCODING 8811
SWIDTH 784 0
DWIDTH 12 0
BBX 12 10 0 0
BITMAP
C300
C300
30C0
30C0
0C30
0C30
30C0
30C0
C300
C300
ENDCHAR
STARTCHAR SUBSET OF
ENCODING 8834
SWIDTH 784 0
DWIDTH 12 0
BBX 10 10 0 0
BITMAP
3FC0
3FC0
C000
C000
C000
C000
C000
C000
3FC0
3FC0
ENDCHAR
STARTCHAR SUPERSET OF
ENCODING 8835
SWIDTH 784 0
DWIDTH 12 0
BBX 10 10 0 0
BITMAP
FF00
FF00
00C0
00C0
00C0
00C0
00C0
00C0
FF00
FF00
ENDCHAR
STARTCHAR NOT A SUBSET OF
ENCODING 8836
SWIDTH 784 0
DWIDTH 12 0
BBX 10 14 0 -2
BITMAP
0C00
0C00
3FC0
3FC0
CC00
CC00
CC00
CC00
CC00
CC00
3FC0
3FC0
0C00
0C00
ENDCHAR
STARTCHAR NOT A SUPERSET OF
ENCODING 8837
SWIDTH 784 0
DWIDTH 12 0
BBX 10 14 0 -2
BITMAP
0C00
0C00
FF00
FF00
0CC0
0CC0
0CC0
0CC0
0CC0
0CC0
FF00
FF00
0C00
0C00
ENDCHAR
STARTCHAR SUBSET OF OR EQUAL TO
ENCODING 8838
SWIDTH 784 0
DWIDTH 12 0
BBX 10 14 0 0
BITMAP
3FC0
3FC0
C000
C000
C000
C000
C000
C000
3FC0
3FC0
0000
0000
FFC0
FFC0
ENDCHAR
STARTCHAR SUPERSET OF OR EQUAL TO
ENCODING 8839
SWIDTH 784 0
DWIDTH 12 0
BBX 10 14 0 0
BITMAP
FF00
FF00
00C0
00C0
00C0
00C0
00C0
00C0
FF00
FF00
0000
0000
FFC0
FFC0
ENDCHAR
STARTCHAR NEITHER A SUBSET OF NOR EQUAL TO
ENCODING 8840
SWIDTH 784 0
DWIDTH 12 0
BBX 10 18 0 -2
BITMAP
0C00
0C00
3FC0
3FC0
CC00
CC00
CC00
CC00
CC00
CC00
3FC0
3FC0
0C00
0C00
FFC0
FFC0
0C00
0C00
ENDCHAR
STARTCHAR NEITHER A SUPERSET OF NOR EQUAL TO
ENCODING 8841
SWIDTH 784 0
DWIDTH 12 0
BBX 10 18 0 -2
BITMAP
0C00
0C00
FF00
FF00
0CC0
0CC0
0CC0
0CC0
0CC0
0CC0
FF00
FF00
0C00
0C00
FFC0
FFC0
0C00
0C00
ENDCHAR
STARTCHAR SUBSET OF WITH NOT EQUAL TO
ENCODING 8842
SWIDTH 784 0
DWIDTH 12 0
BBX 10 16 0 -2
BITMAP
3FC0
3FC0
C000
C000
C000
C000
C000
C000
3FC0
3FC0
0C00
0C00
FFC0
FFC0
0C00
0C00
ENDCHAR
STARTCHAR SUPERSET OF WITH NOT EQUAL TO
ENCODING 8843
SWIDTH 784 0
DWIDTH 12 0
BBX 10 16 0 -2
BITMAP
FF00
FF00
00C0
00C0
00C0
00C0
00C0
00C0
FF00
FF00
0C00
0C00
FFC0
FFC0
0C00
0C00
ENDCHAR
STARTCHAR CIRCLED PLUS
ENCODING 8853
SWIDTH 784 0
DWIDTH 12 0
BBX 10 10 0 2
BITMAP
3F00
3F00
CCC0
CCC0
FFC0
FFC0
CCC0
CCC0
3F00
3F00
ENDCHAR
STARTCHAR CIRCLED TIMES
ENCODING 8855
SWIDTH 784 0
DWIDTH 12 0
BBX 10 10 0 2
BITMAP
3F00
3F00
F3C0
F3C0
CCC0
CCC0
F3C0
F3C0
3F00
3F00
ENDCHAR
STARTCHAR DOWN TACK
ENCODING 8868
SWIDTH 784 0
DWIDTH 12 0
BBX 10 14 0 0
BITMAP
FFC0
FFC0
0C00
0C00
0C00
0C00
0C00
0C00
0C00
0C00
0C00
0C00
0C00
0C00
ENDCHAR
STARTCHAR UP TACK
ENCODING 8869
SWIDTH 784 0
DWIDTH 12 0
BBX 10 14 0 0
BITMAP
0C00
0C00
0C00
0C00
0C00
0C00
0C00
0C00
0C00
0C00
0C00
0C00
FFC0
FFC0
ENDCHAR
STARTCHAR ASSERTION
ENCODING 8870
SWIDTH 784 0
DWIDTH 12 0
BBX 6 14 2 0
BITMAP
C000
C000
C000
C000
C000
C000
FC00
FC00
C000
C000
C000
C000
C000
C000
ENDCHAR
STARTCHAR MODELS
ENCODING 8871
SWIDTH 784 0
DWIDTH 12 0
BBX 6 14 2 0
BITMAP
C000
C000
C000
C000
FC00
FC00
C000
C000
FC00
FC00
C000
C000
C000
C000
ENDCHAR
STARTCHAR N-ARY LOGICAL AND
ENCODING 8896
SWIDTH 784 0
DWIDTH 12 0
BBX 10 18 0 -2
BITMAP
0C00
0C00
0C00
0C00
0C00
0C00
3300
3300
3300
3300
3300
3300
C0C0
C0C0
C0C0
C0C0
C0C0
C0C0
ENDCHAR
STARTCHAR N-ARY LOGICAL OR
ENCODING 8897
SWIDTH 784 0
DWIDTH 12 0
BBX 10 18 0 -2
BITMAP
C0C0
C0C0
C0C0
C0C0
C0C0
C0C0
3300
3300
3300
3300
3300
3300
0C00
0C00
0C00
0C00
0C00
0C00
ENDCHAR
STARTCHAR N-ARY INTERSECTION
ENCODING 8898
SWIDTH 784 0
DWIDTH 12 0
BBX 10 18 0 -2
BITMAP
3F00
3F00
C0C0
C0C0
C0C0
C0C0
C0C0
C0C0
C0C0
C0C0
C0C0
C0C0
C0C0
C0C0
C0C0
C0C0
C0C0
C0C0
ENDCHAR
STARTCHAR N-ARY UNION
ENCODING 8899
SWIDTH 784 0
DWIDTH 12 0
BBX 10 18 0 -2
BITMAP
C0C0
C0C0
C0C0
C0C0
C0C0
C0C0
C0C0
C0C0
C0C0
C0C0
C0C0
C0C0
C0C0
C0C0
C0C0
C0C0
3F00
3F00
ENDCHAR
STARTCHAR DOT OPERATOR
ENCODING 8901
SWIDTH 784 0
DWIDTH 12 0
BBX 2 2 4 6
BITMAP
C000
C000
ENDCHAR
STARTCHAR VERTICAL ELLIPSIS
ENCODING 8942
SWIDTH 784 0
DWIDTH 12 0
BBX 2 14 4 0
BITMAP
C000
C000
0000
0000
0000
0000
C000
C000
0000
0000
0000
0000
C000
C000
ENDCHAR
STARTCHAR MIDLINE HORIZONTAL ELLIPSIS
ENCODING 8943
SWIDTH 784 0
DWIDTH 12 0
BBX 10 2 0 6
BITMAP
CCC0
CCC0
ENDCHAR
STARTCHAR UP RIGHT DIAGONAL ELLIPSIS
ENCODING 8944
SWIDTH 784 0
DWIDTH 12 0
BBX 10 14 0 0
BITMAP
00C0
00C0
0000
0000
0000
0000
0C00
0C00
0000
0000
0000
0000
C000
C000
ENDCHAR
STARTCHAR DOWN RIGHT DIAGONAL ELLIPSIS
ENCODING 8945
SWIDTH 784 0
DWIDTH 12 0
BBX 10 14 0 0
BITMAP
C000
C000
0000
0000
0000
0000
0C00
0C00
0000
0000
0000
0000
00C0
00C0
ENDCHAR
STARTCHAR DIAMETER SIGN
ENCODING 8960
SWIDTH 784 0
DWIDTH 12 0
BBX 10 10 0 0
BITMAP
3FC0
3FC0
C3C0
C3C0
CCC0
CCC0
F0C0
F0C0
FF00
FF00
ENDCHAR
STARTCHAR HOUSE
ENCODING 8962
SWIDTH 784 0
DWIDTH 12 0
BBX 10 12 0 0
BITMAP
0C00
0C00
3300
3300
C0C0
C0C0
C0C0
C0C0
C0C0
C0C0
FFC0
FFC0
ENDCHAR
STARTCHAR LEFT CEILING
ENCODING 8968
SWIDTH 784 0
DWIDTH 12 0
BBX 6 14 2 0
BITMAP
FC00
FC00
C000
C000
C000
C000
C000
C000
C000
C000
C000
C000
C000
C000
ENDCHAR
STARTCHAR RIGHT CEILING
ENCODING 8969
SWIDTH 784 0
DWIDTH 12 0
BBX 6 14 2 0
BITMAP
FC00
FC00
0C00
0C00
0C00
0C00
0C00
0C00
0C00
0C00
0C00
0C00
0C00
0C00
ENDCHAR
STARTCHAR LEFT FLOOR
ENCODING 8970
SWIDTH 784 0
DWIDTH 12 0
BBX 6 14 2 0
BITMAP
C000
C000
C000
C000
C000
C000
C000
C000
C000
C000
C000
C000
FC00
FC00
ENDCHAR
STARTCHAR RIGHT FLOOR
ENCODING 8971
SWIDTH 784 0
DWIDTH 12 0
BBX 6 14 2 0
BITMAP
0C00
0C00
0C00
0C00
0C00
0C00
0C00
0C00
0C00
0C00
0C00
0C00
FC00
FC00
ENDCHAR
STARTCHAR REVERSED NOT SIGN
ENCODING 8976
SWIDTH 784 0
DWIDTH 12 0
BBX 8 4 2 4
BITMAP
FF00
FF00
C000
C000
ENDCHAR
STARTCHAR TOP HALF INTEGRAL
ENCODING 8992
SWIDTH 784 0
DWIDTH 12 0
BBX 6 16 4 -4
BITMAP
3000
3000
CC00
CC00
C000
C000
C000
C000
C000
C000
C000
C000
C000
C000
C000
C000
ENDCHAR
STARTCHAR BOTTOM HALF INTEGRAL
ENCODING 8993
SWIDTH 784 0
DWIDTH 12 0
BBX 6 18 0 0
BITMAP
0C00
0C00
0C00
0C00
0C00
0C00
0C00
0C00
0C00
0C00
0C00
0C00
0C00
0C00
CC00
CC00
3000
3000
ENDCHAR
STARTCHAR HORIZONTAL SCAN LINE-1
ENCODING 9146
SWIDTH 784 0
DWIDTH 12 0
BBX 12 2 0 14
BITMAP
FFF0
FFF0
ENDCHAR
STARTCHAR HORIZONTAL SCAN LINE-3
ENCODING 9147
SWIDTH 784 0
DWIDTH 12 0
BBX 12 2 0 10
BITMAP
FFF0
FFF0
ENDCHAR
STARTCHAR HORIZONTAL SCAN LINE-7
ENCODING 9148
SWIDTH 784 0
DWIDTH 12 0
BBX 12 2 0 0
BITMAP
FFF0
FFF0
ENDCHAR
STARTCHAR HORIZONTAL SCAN LINE-9
ENCODING 9149
SWIDTH 784 0
DWIDTH 12 0
BBX 12 2 0 -4
BITMAP
FFF0
FFF0
ENDCHAR
STARTCHAR SYMBOL FOR HORIZONTAL TABULATION
ENCODING 9225
SWIDTH 784 0
DWIDTH 12 0
BBX 10 18 0 -4
BITMAP
C300
C300
C300
C300
FF00
FF00
C300
C300
C300
C300
3FC0
3FC0
0300
0300
0300
0300
0300
0300
ENDCHAR
STARTCHAR SYMBOL FOR LINE FEED
ENCODING 9226
SWIDTH 784 0
DWIDTH 12 0
BBX 10 18 0 -4
BITMAP
C000
C000
C000
C000
C000
C000
FF00
FF00
3FC0
3FC0
3000
3000
3F00
3F00
3000
3000
3000
3000
ENDCHAR
STARTCHAR SYMBOL FOR VERTICAL TABULATION
ENCODING 9227
SWIDTH 784 0
DWIDTH 12 0
BBX 10 18 0 -4
BITMAP
C300
C300
C300
C300
3C00
3C00
3000
3000
3FC0
3FC0
0300
0300
0300
0300
0300
0300
0300
0300
ENDCHAR
STARTCHAR SYMBOL FOR FORM FEED
ENCODING 9228
SWIDTH 784 0
DWIDTH 12 0
BBX 10 18 0 -4
BITMAP
FC00
FC00
C000
C000
F000
F000
C000
C000
CFC0
CFC0
0C00
0C00
0F00
0F00
0C00
0C00
0C00
0C00
ENDCHAR
STARTCHAR SYMBOL FOR CARRIAGE RETURN
ENCODING 9229
SWIDTH 784 0
DWIDTH 12 0
BBX 10 18 0 -4
BITMAP
3F00
3F00
C000
C000
C000
C000
3F00
3F00
3F00
3F00
30C0
30C0
3F00
3F00
30C0
30C0
30C0
30C0
ENDCHAR
STARTCHAR SYMBOL FOR NEWLINE
ENCODING 9252
SWIDTH 784 0
DWIDTH 12 0
BBX 10 18 0 -4
BITMAP
C300
C300
F300
F300
F300
F300
CF00
CF00
C300
C300
3000
3000
3000
3000
3000
3000
3FC0
3FC0
ENDCHAR
STARTCHAR BOX DRAWINGS LIGHT HORIZONTAL
ENCODING 9472
SWIDTH 784 0
DWIDTH 12 0
BBX 12 2 0 4
BITMAP
FFF0
FFF0
ENDCHAR
STARTCHAR BOX DRAWINGS HEAVY HORIZONTAL
ENCODING 9473
SWIDTH 784 0
DWIDTH 12 0
BBX 12 4 0 4
BITMAP
FFF0
FFF0
FFF0
FFF0
ENDCHAR
STARTCHAR BOX DRAWINGS LIGHT VERTICAL
ENCODING 9474
SWIDTH 784 0
DWIDTH 12 0
BBX 2 22 4 -4
BITMAP
C000
C000
C000
C000
C000
C000
C000
C000
C000
C000
C000
C000
C000
C000
C000
C000
C000
C000
C000
C000
C000
C000
ENDCHAR
STARTCHAR BOX DRAWINGS HEAVY VERTICAL
ENCODING 9475
SWIDTH 784 0
DWIDTH 12 0
BBX 4 22 4 -4
BITMAP
F000
F000
F000
F000
F000
F000
F000
F000
F000
F000
F000
F000
F000
F000
F000
F000
F000
F000
F000
F000
F000
F000
ENDCHAR
STARTCHAR BOX DRAWINGS LIGHT TRIPLE DASH HORIZONTAL
ENCODING 9476
SWIDTH 784 0
DWIDTH 12 0
BBX 10 2 0 4
BITMAP
CCC0
CCC0
ENDCHAR
ENDFONT
